<?xml version="1.0" encoding="iso-8859-1"?>
<!-- Generator: Adobe Illustrator 19.0.0, SVG Export Plug-In . SVG Version: 6.00 Build 0)  -->
<svg version="1.1" id="Capa_1" xmlns="http://www.w3.org/2000/svg" xmlns:xlink="http://www.w3.org/1999/xlink" x="0px" y="0px"
	 viewBox="0 0 496 496" style="enable-background:new 0 0 496 496;" xml:space="preserve">
<g>
	<g>
		<g>
			<path d="M465.376,328H438.84c-3.768,0-6.84-3.072-6.84-6.832v-3.024c0-1.8,0.728-3.552,2-4.832L465.312,282
				c4.248-4.248,6.688-10.136,6.688-16.144v-19.232c0-6.408-2.496-12.44-7.032-16.968c-9.36-9.36-24.576-9.36-33.936,0
				c-1.496,1.496-3.552,2.344-5.656,2.344H424c-8.824,0-16-7.184-16-16c0-8.824,7.176-16,16-16h1.168
				C437.76,200,448,189.76,448,177.168c0-2.6,1.448-4.944,3.784-6.112l28.864-14.432C490.12,151.88,496,142.36,496,131.776
				C496,116.464,483.536,104,468.224,104h-20.032c-3.104,0-6.144-1.256-8.328-3.448l-8.04-8.04C423.76,84.448,413.032,80,401.616,80
				h-4.36c-10.688,0-20.736,4.168-28.288,11.72c-2.72,2.72-6.488,4.28-10.344,4.28C350.56,96,344,89.44,344,81.376
				c0-13.152-5.328-26.016-14.624-35.312l-1.224-1.224C319.872,36.552,308.864,32,297.168,32c-5.056,0-9.168-4.112-9.168-9.168
				C288,10.24,277.76,0,265.168,0c-13.2,0-25.624,5.144-34.96,14.48l-20.24,20.24C203.536,41.152,200,49.688,200,58.776V62
				c0,9.92-8.08,18-18,18c-6.792,0-13.44-2.752-18.24-7.552l-7.48-7.48C150.496,59.184,142.808,56,134.624,56
				C117.744,56,104,69.744,104,86.624c0,8.184,3.184,15.872,8.968,21.656l10.752,10.752c2.72,2.72,4.28,6.488,4.28,10.344
				c0,8.064-6.56,14.624-14.624,14.624c-3.856,0-7.624-1.56-10.344-4.28l-12.12-12.12C80.848,117.536,67.48,112,53.256,112
				C23.888,112,0,135.888,0,165.256v8c0,14.224,5.536,27.592,15.6,37.656l46.4,46.4c1.272,1.272,2,3.032,2,4.832v27.72
				c0,6.008,2.44,11.888,6.688,16.144l13.52,13.52C91.816,327.128,96,337.24,96,348s-4.184,20.872-11.8,28.48l-4.6,4.6
				C69.536,391.152,64,404.52,64,418.744C64,448.112,87.888,472,117.256,472h2.256c12.768,0,24.776-4.968,33.8-14
				c1.272-1.272,3.032-2,4.832-2h19.72c1.8,0,3.552,0.728,4.832,2l27.376,27.376c6.84,6.848,15.952,10.624,25.648,10.624
				c20.008,0,36.28-16.272,36.28-36.28v-5.576c0-1.8,0.728-3.552,2-4.832L297.312,426c1.272-1.272,3.032-2,4.832-2h20.912
				c1.472,0,2.92,0.48,4.104,1.368l10.92,8.184c12.416,9.312,27.8,14.448,43.328,14.448c19.008,0,37.616-7.712,51.056-21.152
				L433.32,426c1.272-1.272,3.032-2,4.832-2h11.024C461.76,424,472,413.76,472,401.168v-3.024c0-1.8,0.728-3.552,2-4.832
				l13.032-13.032c5.784-5.784,8.968-13.472,8.968-21.656C496,341.744,482.256,328,465.376,328z M475.72,368.968L462.688,382
				c-4.248,4.248-6.688,10.136-6.688,16.144v3.024c0,3.76-3.072,6.832-6.832,6.832h-11.024c-6.008,0-11.888,2.44-16.144,6.688
				l-0.848,0.856C410.688,426,396.2,432,381.408,432c-12.088,0-24.064-3.992-33.736-11.24l-10.904-8.176
				c-3.928-2.96-8.792-4.584-13.712-4.584h-20.912c-6.008,0-11.888,2.44-16.144,6.688L262.688,438
				c-4.248,4.248-6.688,10.136-6.688,16.144v5.576c0,11.176-9.104,20.28-20.28,20.28c-5.424,0-10.512-2.112-14.344-5.936
				L194,446.688c-4.248-4.248-10.136-6.688-16.144-6.688h-19.72c-6.008,0-11.888,2.44-16.144,6.688
				C136.08,452.608,127.88,456,119.52,456h-2.256C96.712,456,80,439.288,80,418.744c0-9.952,3.872-19.304,10.912-26.344l4.6-4.6
				C106.152,377.168,112,363.032,112,348c0-15.032-5.848-29.168-16.48-39.8L82,294.68c-1.272-1.264-2-3.024-2-4.824v-27.72
				c0-6.008-2.44-11.888-6.688-16.144l-46.4-46.4C19.872,192.56,16,183.208,16,173.256v-8C16,144.712,32.712,128,53.256,128
				c9.952,0,19.304,3.872,26.344,10.912l12.12,12.12c5.784,5.784,13.472,8.968,21.656,8.968c16.88,0,30.624-13.744,30.624-30.624
				c0-8.176-3.184-15.872-8.968-21.656L124.28,96.968c-2.72-2.72-4.28-6.488-4.28-10.344C120,78.56,126.56,72,134.624,72
				c3.856,0,7.624,1.56,10.344,4.28l7.48,7.48C160.224,91.536,171,96,182,96c18.752,0,34-15.248,34-34v-3.224
				c0-4.744,1.92-9.384,5.272-12.736l20.24-20.24c6.32-6.32,14.72-9.8,23.656-9.8c3.76,0,6.832,3.072,6.832,6.832
				C272,36.712,283.288,48,297.168,48c7.432,0,14.416,2.888,19.672,8.152l1.224,1.224c6.312,6.32,9.936,15.064,9.936,24
				C328,98.256,341.744,112,358.624,112c8.184,0,15.872-3.184,21.656-8.968C384.816,98.496,390.84,96,397.256,96h4.36
				c7.144,0,13.856,2.784,18.896,7.824l8.04,8.04c5.168,5.176,12.328,8.136,19.64,8.136h20.032c6.496,0,11.776,5.28,11.776,11.776
				c0,4.496-2.496,8.528-6.512,10.536l-28.864,14.432C436.832,160.64,432,168.464,432,177.168c0,3.76-3.072,6.832-6.832,6.832H424
				c-17.648,0-32,14.352-32,32s14.352,32,32,32h1.376c6.408,0,12.44-2.496,16.968-7.032c3.032-3.016,8.28-3.016,11.312,0
				c1.496,1.496,2.344,3.552,2.344,5.656v19.232c0,1.8-0.728,3.552-2,4.832L422.688,302c-4.248,4.248-6.688,10.136-6.688,16.144
				v3.024C416,333.76,426.24,344,438.832,344h26.536c8.072,0,14.632,6.56,14.632,14.624C480,362.48,478.44,366.248,475.72,368.968z"
				/>
			<path d="M210.336,192h-4.672C158.432,192,120,230.432,120,277.664c0,13.24,3.136,26.488,9.048,38.312l48.64,97.288
				C183.464,424.816,195.08,432,208,432s24.536-7.184,30.312-18.736l48.64-97.288c5.912-11.824,9.048-25.072,9.048-38.312
				C296,230.432,257.568,192,210.336,192z M272.64,308.816L224,406.112c-3.048,6.096-9.184,9.888-16,9.888
				c-6.824,0-12.952-3.792-16-9.888l-48.64-97.288c-4.816-9.624-7.36-20.392-7.36-31.16C136,239.248,167.248,208,205.664,208h4.672
				C248.752,208,280,239.248,280,277.664C280,288.432,277.456,299.2,272.64,308.816z"/>
			<path d="M208,232c-26.472,0-48,21.528-48,48s21.528,48,48,48s48-21.528,48-48S234.472,232,208,232z M208,312
				c-17.648,0-32-14.352-32-32s14.352-32,32-32s32,14.352,32,32S225.648,312,208,312z"/>
			<rect x="200" y="344" width="16" height="16"/>
			<rect x="384" y="128" width="16" height="16"/>
			<rect x="184" y="136" width="16" height="16"/>
			<rect x="296" y="360" width="16" height="16"/>
			<rect x="352" y="264" width="16" height="16"/>
		</g>
	</g>
</g>
<g>
</g>
<g>
</g>
<g>
</g>
<g>
</g>
<g>
</g>
<g>
</g>
<g>
</g>
<g>
</g>
<g>
</g>
<g>
</g>
<g>
</g>
<g>
</g>
<g>
</g>
<g>
</g>
<g>
</g>
</svg>
