<?xml version="1.0" encoding="utf-8"?>
<!-- Generator: Adobe Illustrator 16.0.0, SVG Export Plug-In . SVG Version: 6.00 Build 0)  -->
<!DOCTYPE svg PUBLIC "-//W3C//DTD SVG 1.1//EN" "http://www.w3.org/Graphics/SVG/1.1/DTD/svg11.dtd">
<svg version="1.1" id="Calque_1" xmlns="http://www.w3.org/2000/svg" xmlns:xlink="http://www.w3.org/1999/xlink" x="0px" y="0px"
	 width="508.728px" height="146px" viewBox="0 0 508.728 146" enable-background="new 0 0 508.728 146" xml:space="preserve">
<rect id="XMLID_1_" x="294" y="8" fill="#E52521" width="171" height="87"/>
<g>
	<path fill="#E5242A" d="M6.384,55.525l36.435-16.273v6.192l-29.09,12.745l29.09,12.745v6.193L6.384,60.854V55.525z"/>
	<path fill="#FFFFFF" d="M74.785,24.995h10.513l13.538,51.413h-8.569l-3.168-12.601H72.048l-3.312,12.601h-8.569L74.785,24.995z
		 M85.729,57.253l-5.904-25.346h-0.144l-6.121,25.346H85.729z"/>
	<path fill="#FFFFFF" d="M134.042,57.974v1.08c0,9.289-3.744,18.362-15.841,18.362c-12.961,0-16.993-8.353-16.993-26.714
		c0-18.362,4.032-26.714,17.065-26.714c14.617,0,15.481,10.801,15.481,16.129v0.936h-8.209v-0.864c0-4.752-1.44-10.225-7.345-10.009
		c-6.048,0-8.785,3.744-8.785,20.306s2.736,20.738,8.785,20.738c6.841,0,7.633-7.632,7.633-12.385v-0.864H134.042z"/>
	<path fill="#FFFFFF" d="M171.41,57.974v1.08c0,9.289-3.744,18.362-15.841,18.362c-12.961,0-16.993-8.353-16.993-26.714
		c0-18.362,4.032-26.714,17.065-26.714c14.617,0,15.481,10.801,15.481,16.129v0.936h-8.209v-0.864c0-4.752-1.44-10.225-7.345-10.009
		c-6.048,0-8.785,3.744-8.785,20.306s2.736,20.738,8.785,20.738c6.841,0,7.633-7.632,7.633-12.385v-0.864H171.41z"/>
	<path fill="#FFFFFF" d="M177.167,24.995h27.794v6.913h-19.586v14.257h18.434v6.913h-18.434v16.417h20.162v6.913h-28.37V24.995z"/>
	<path fill="#FFFFFF" d="M218.135,60.494v1.296c0,6.265,2.736,9.433,8.425,9.433c5.185,0,7.776-3.672,7.776-7.488
		c0-5.401-2.736-7.777-7.344-9.145l-5.617-1.944c-7.489-2.88-10.729-6.769-10.729-14.113c0-9.361,6.336-14.545,15.985-14.545
		c13.177,0,14.545,8.208,14.545,13.537v1.152h-8.209v-1.08c0-4.68-2.088-7.417-7.2-7.417c-3.528,0-6.913,1.944-6.913,7.417
		c0,4.393,2.232,6.625,7.705,8.713l5.544,2.016c7.272,2.592,10.441,6.553,10.441,13.609c0,10.945-6.625,15.481-16.994,15.481
		c-12.745,0-15.625-8.497-15.625-15.698v-1.224H218.135z"/>
	<path fill="#FFFFFF" d="M255.503,60.494v1.296c0,6.265,2.736,9.433,8.425,9.433c5.185,0,7.776-3.672,7.776-7.488
		c0-5.401-2.736-7.777-7.345-9.145l-5.616-1.944c-7.488-2.88-10.729-6.769-10.729-14.113c0-9.361,6.336-14.545,15.985-14.545
		c13.177,0,14.545,8.208,14.545,13.537v1.152h-8.209v-1.08c0-4.68-2.088-7.417-7.2-7.417c-3.528,0-6.913,1.944-6.913,7.417
		c0,4.393,2.232,6.625,7.705,8.713l5.544,2.016c7.273,2.592,10.441,6.553,10.441,13.609c0,10.945-6.625,15.481-16.993,15.481
		c-12.745,0-15.626-8.497-15.626-15.698v-1.224H255.503z"/>
	<path fill="#FFFFFF" d="M335.425,57.974v1.08c0,9.289-3.744,18.362-15.842,18.362c-12.961,0-16.993-8.353-16.993-26.714
		c0-18.362,4.032-26.714,17.065-26.714c14.617,0,15.481,10.801,15.481,16.129v0.936h-8.209v-0.864c0-4.752-1.44-10.225-7.345-10.009
		c-6.049,0-8.784,3.744-8.784,20.306s2.735,20.738,8.784,20.738c6.841,0,7.633-7.632,7.633-12.385v-0.864H335.425z"/>
	<path fill="#FFFFFF" d="M339.958,50.701c0-18.362,5.185-26.714,16.993-26.714c11.81,0,16.993,8.353,16.993,26.714
		c0,18.361-5.184,26.714-16.993,26.714C345.143,77.416,339.958,69.063,339.958,50.701z M365.736,50.485
		c0-17.281-3.889-20.306-8.785-20.306s-8.784,3.024-8.784,20.306c0,17.714,3.888,20.738,8.784,20.738S365.736,68.199,365.736,50.485
		z"/>
	<path fill="#FFFFFF" d="M381.214,24.995h14.617c16.13,0,18.146,10.513,18.146,25.707s-2.016,25.706-18.146,25.706h-14.617V24.995z
		 M389.423,70.215h6.769c6.769,0,9.577-4.464,9.577-19.514c0-14.474-2.448-19.514-9.577-19.514h-6.769V70.215z"/>
	<path fill="#FFFFFF" d="M421.246,24.995h27.795v6.913h-19.586v14.257h18.434v6.913h-18.434v16.417h20.162v6.913h-28.371V24.995z"/>
	<path fill="#E52521" d="M508.728,60.854l-36.435,16.273v-6.193l29.09-12.745l-29.09-12.745v-6.192l36.435,16.273V60.854z"/>
</g>
<g>
	<path fill="#FFFFFF" d="M57.896,128.616c0,3.276,2.124,5.795,5.832,5.795c3.563,0,5.939-2.556,5.939-5.831
		c0-3.348-1.8-4.5-4.679-5.507l-2.916-1.008c-3.384-1.152-5.22-2.808-5.22-6.299c0-4.14,2.844-6.695,6.875-6.695
		c4.751,0,6.875,2.7,6.875,6.983h-1.512c0-3.456-1.584-5.759-5.219-5.759c-2.88,0-5.507,1.332-5.507,5.327
		c0,2.844,1.548,4.211,3.779,4.967l3.815,1.332c3.312,1.152,5.22,2.771,5.22,6.551c0,4.571-3.384,7.163-7.451,7.163
		c-5.939,0-7.343-4.176-7.343-6.659v-1.692h1.512V128.616z"/>
	<path fill="#FFFFFF" d="M148.216,116.882c0-3.456-1.835-6.587-5.615-6.587c-5.111,0-6.803,4.787-6.803,12.022
		c0,6.911,1.404,12.094,6.587,12.094c4.967,0,6.155-5.831,6.155-7.847h1.512c0,3.024-1.512,9.071-7.919,9.071
		c-5.579,0-7.847-4.932-7.847-13.247c0-8.063,2.268-13.318,8.243-13.318c6.011,0,7.199,5.292,7.199,7.811H148.216z"/>
	<path fill="#FFFFFF" d="M213.591,109.503h1.512v11.267h11.267v-11.267h1.512v25.701h-1.512v-13.066h-11.267v13.066h-1.512V109.503z
		"/>
	<path fill="#FFFFFF" d="M308.519,122.353c0,11.267-4.644,13.283-8.279,13.283c-4.932,0-8.314-3.312-8.314-13.283
		c0-9.971,3.6-13.282,8.314-13.282C305.351,109.071,308.519,112.382,308.519,122.353z M293.437,122.353
		c0,7.055,1.439,12.059,6.803,12.059c4.716,0,6.768-3.887,6.768-12.059c0-6.947-1.548-12.058-6.768-12.058
		C295.2,110.295,293.437,115.298,293.437,122.353z"/>
	<path fill="#FFFFFF" d="M388.328,122.353c0,11.267-4.644,13.283-8.279,13.283c-4.932,0-8.314-3.312-8.314-13.283
		c0-9.971,3.6-13.282,8.314-13.282C385.16,109.071,388.328,112.382,388.328,122.353z M373.246,122.353
		c0,7.055,1.439,12.059,6.803,12.059c4.716,0,6.768-3.887,6.768-12.059c0-6.947-1.548-12.058-6.768-12.058
		C375.01,110.295,373.246,115.298,373.246,122.353z"/>
	<path fill="#FFFFFF" d="M461.01,109.503h1.513v24.333h10.762v1.368H461.01V109.503z"/>
</g>
<line fill="#FFFFFB" x1="56" y1="95" x2="465" y2="95"/>
</svg>
