<?xml version="1.0" encoding="utf-8"?>
<!-- Generator: Adobe Illustrator 16.0.0, SVG Export Plug-In . SVG Version: 6.00 Build 0)  -->
<!DOCTYPE svg PUBLIC "-//W3C//DTD SVG 1.1//EN" "http://www.w3.org/Graphics/SVG/1.1/DTD/svg11.dtd">
<svg version="1.1" id="Calque_2" xmlns="http://www.w3.org/2000/svg" xmlns:xlink="http://www.w3.org/1999/xlink" x="0px" y="0px"
	 width="502.667px" height="52.664px" viewBox="0 0 502.667 52.664" enable-background="new 0 0 502.667 52.664"
	 xml:space="preserve">
<circle fill="none" stroke="#AD313A" stroke-width="3" stroke-miterlimit="10" cx="23.834" cy="38.501" r="7.25"/>
<path fill="none" stroke="#AD313A" stroke-width="3" stroke-miterlimit="10" d="M13.471,19.138c-0.79,0.311-1.54,0.681-2.25,1.12
	c-4.23,2.59-7.06,7.271-7.06,12.59c0,8.15,6.61,14.75,14.75,14.75c3.62,0,6.93-1.3,9.49-3.46c0.05-0.04,0.1-0.08,0.14-0.12"/>
<circle fill="none" stroke="#AD313A" stroke-width="3" stroke-miterlimit="10" cx="82.007" cy="40.967" r="6.625"/>
<path fill="none" stroke="#AD313A" stroke-width="3" stroke-miterlimit="10" d="M11.225,20.262
	c26.472-15.177,51.659,28.311,72.056,27.33"/>
<path fill="none" stroke="#AD313A" stroke-width="3" stroke-miterlimit="10" d="M80.911,19.188c-1.24,0.33-2.41,0.82-3.5,1.44
	c-4.45,2.53-7.46,7.32-7.46,12.82c0,1.92,0.37,3.75,1.03,5.43c2.17,5.46,6.08,8.714,12.3,8.714"/>
<circle fill="none" stroke="#AD313A" stroke-width="3" stroke-miterlimit="10" cx="149.96" cy="42.419" r="6.625"/>
<path fill="none" stroke="#AD313A" stroke-width="3" stroke-miterlimit="10" d="M77.406,20.624
	c32.542-15.123,53.164,29.387,73.561,28.406"/>
<path fill="none" stroke="#AD313A" stroke-width="3" stroke-miterlimit="10" d="M146.451,20.458c-0.01,0-0.03,0.01-0.05,0.02
	c-5.65,2.08-9.68,7.5-9.68,13.86c0,6.7,4.46,12.35,10.57,14.15c0.96,0.279,1.95,0.47,2.98,0.55c0.01,0,0.02,0,0.03,0
	c0.03,0.01,0.07,0.01,0.1,0"/>
<path fill="none" stroke="#AD313A" stroke-width="3" stroke-miterlimit="10" d="M180.13,26.334c-0.01-0.01-0.02-0.02-0.03-0.02
	c-0.01-0.011-0.01-0.011-0.01-0.011c-10.37-7.18-21.73-11.72-34.57-5.47c-0.18,0.08-0.35,0.17-0.53,0.26
	c-0.3,0.15-0.59,0.311-0.89,0.471"/>
<circle fill="none" stroke="#AD313A" stroke-width="3" stroke-miterlimit="10" cx="480.801" cy="37.85" r="7.25"/>
<path fill="none" stroke="#AD313A" stroke-width="3" stroke-miterlimit="10" d="M476.096,43.366c0.039,0.04,0.09,0.08,0.139,0.12
	c2.561,2.16,5.871,3.46,9.49,3.46c8.141,0,14.75-6.6,14.75-14.75c0-5.319-2.83-10-7.059-12.59c-0.711-0.439-1.461-0.81-2.25-1.12"/>
<circle fill="none" stroke="#AD313A" stroke-width="3" stroke-miterlimit="10" cx="421.059" cy="39.695" r="6.625"/>
<path fill="none" stroke="#AD313A" stroke-width="3" stroke-miterlimit="10" d="M491.84,18.99
	c-26.471-15.177-51.658,28.311-72.055,27.33"/>
<path fill="none" stroke="#AD313A" stroke-width="3" stroke-miterlimit="10" d="M419.785,46.32c6.219,0,10.129-3.254,12.299-8.714
	c0.66-1.68,1.031-3.51,1.031-5.43c0-5.5-3.01-10.29-7.461-12.82c-1.09-0.62-2.26-1.11-3.5-1.44"/>
<circle fill="none" stroke="#AD313A" stroke-width="3" stroke-miterlimit="10" cx="353.105" cy="41.147" r="6.625"/>
<path fill="none" stroke="#AD313A" stroke-width="3" stroke-miterlimit="10" d="M425.66,19.353
	C393.119,4.229,372.496,48.739,352.1,47.759"/>
<path fill="none" stroke="#AD313A" stroke-width="3" stroke-miterlimit="10" d="M352.664,47.767c0.031,0.01,0.07,0.01,0.102,0
	c0.01,0,0.02,0,0.029,0c1.029-0.08,2.02-0.271,2.98-0.55c6.109-1.801,10.57-7.45,10.57-14.15c0-6.36-4.031-11.78-9.682-13.86
	c-0.02-0.01-0.039-0.02-0.049-0.02"/>
<path fill="none" stroke="#AD313A" stroke-width="3" stroke-miterlimit="10" d="M320.58,26.754c11.03-8.149,23.18-13.939,37.03-7.16
	c0.159,0.07,0.31,0.15,0.47,0.23c0.28,0.14,0.55,0.29,0.83,0.439c0.02,0.011,0.04,0.021,0.06,0.03"/>
<path fill="none" stroke="#AD313A" stroke-width="3" stroke-miterlimit="10" d="M180.088,26.305c0,0,0,0,0.01,0.011
	c0.01,0,0.02,0.01,0.03,0.02c1.58,0.811,42.61,21.7,69.75-4.55c0.199-0.18,0.399-0.38,0.6-0.58c0,0,0.11-0.09,0.31-0.27
	c1.221-1.11,5.671-5.61,5.521-12.23c0,0,0-1.72-1.38-2.95c-0.021-0.02-0.04-0.03-0.07-0.05c-0.81-0.7-2.08-1.23-4.05-1.17
	c-0.03,0-0.05,0-0.05,0c-0.36,0.02-2.471,0.17-4.07,1.189c-0.01,0-0.02,0.011-0.03,0.021h-0.01"/>
<path fill="none" stroke="#AD313A" stroke-width="3" stroke-miterlimit="10" d="M321.479,26.305c0,0-0.31,0.16-0.9,0.45
	c-6.229,3.01-43.59,19.5-68.899-4.97"/>
<path fill="none" stroke="#AD313A" stroke-width="3" stroke-miterlimit="10" d="M251.679,21.785c-0.2-0.19-0.391-0.38-0.59-0.58
	c0,0-0.11-0.09-0.301-0.27c-1.21-1.091-5.68-5.601-5.529-12.23c0,0,0-1.73,1.39-2.96h0.01c0.011-0.01,0.021-0.021,0.03-0.021
	c0.81-0.71,2.07-1.25,4.07-1.189c0,0,0.02,0,0.05,0c0.35,0.02,2.45,0.16,4.05,1.17c0.03,0.02,0.05,0.03,0.07,0.05"/>
</svg>
