<?xml version="1.0" encoding="utf-8"?>
<!-- Generator: Adobe Illustrator 21.0.2, SVG Export Plug-In . SVG Version: 6.00 Build 0)  -->
<svg version="1.1" id="Layer_1" xmlns="http://www.w3.org/2000/svg" xmlns:xlink="http://www.w3.org/1999/xlink" x="0px" y="0px"
	 viewBox="0 0 512 512" style="enable-background:new 0 0 512 512;" xml:space="preserve">
<style type="text/css">
	.st0{fill:#C7C5C4;}
	.st1{fill:#B7B7B7;}
	.st2{fill:#9E9E9E;}
</style>
<g>
	<g>
		<path class="st0" d="M493.1,447.2h-10.5v-32.9c0-5.9-4.8-10.6-10.6-10.6h-23.2v-24.2c0-5.3-4.1-9.6-9.2-10l-4-136.9h3.2
			c5.6,0,10.1-4.5,10.1-10.1v-24.2H472c5.9,0,10.6-4.8,10.6-10.6v-32.9h10.5c4.8,0,9.1-3.3,10.3-7.9c1.2-4.7-0.9-9.6-5.1-12
			L261.2,1.4c-3.2-1.8-7.2-1.8-10.4,0L13.7,134.8c-4.2,2.4-6.3,7.3-5.1,12c1.2,4.7,5.4,7.9,10.3,7.9h10.5v32.9
			c0,5.9,4.8,10.6,10.6,10.6h23.2v24.2c0,5.6,4.5,10.1,10.1,10.1h3.2l-4,136.9c-5.2,0.4-9.2,4.8-9.2,10.1v24.2H40
			c-5.9,0-10.6,4.8-10.6,10.6v32.9H18.9c-5.9,0-10.6,4.8-10.6,10.6v43.5c0,5.9,4.8,10.6,10.6,10.6h474.2c5.9,0,10.6-4.8,10.6-10.6
			v-43.5C503.8,452,499,447.2,493.1,447.2z M256,22.8l196.5,110.5H59.5L256,22.8z M50.7,176.9v-22.3h410.7v22.3H50.7z M428.5,390.1
			v13.6h-49.5v-13.6H428.5z M389.4,368.8l4-135.8h20.8l3,102.6l1,33.1H389.4z M427.8,212.3c-1-0.3-2.2-0.5-3.3-0.5h-41.4
			c-1.2,0-2.3,0.2-3.3,0.5h-0.7v-14.1h49.5v14.1H427.8z M291.7,369.4l-1-34.3l-3-102.5h3.2c5.6,0,10.1-4.5,10.1-10.1v-24.2h58v24.2
			c0,5.6,4.5,10.1,10.1,10.1h3.2l-4,136.9c-5.2,0.4-9.2,4.8-9.2,10.1v24.2h-58v-24.2C300.9,374.2,296.9,369.8,291.7,369.4z
			 M280.7,390.1v13.6h-49.5v-13.6H280.7z M241.6,368.8l4-135.8h20.8l4,135.8H241.6z M280,212.3c-1-0.3-2.1-0.5-3.3-0.5h-41.4
			c-1.2,0-2.3,0.2-3.3,0.5h-0.7v-14.1h49.5v14.1H280z M143.9,369.4l-4-136.9h3.2c5.6,0,10.1-4.5,10.1-10.1v-24.2h58v24.2
			c0,5.6,4.5,10.1,10.1,10.1h3.2l-4,136.9c-5.2,0.4-9.2,4.8-9.2,10v24.2h-58v-24.2C153.1,374.2,149,369.8,143.9,369.4z M132.9,390.1
			v13.6H83.5v-13.6H132.9z M93.8,368.8l4-135.8h20.8l4,135.8H93.8z M132.2,212.3c-1-0.3-2.2-0.5-3.3-0.5H87.5
			c-1.2,0-2.3,0.2-3.3,0.5h-0.7v-14.1h49.5v14.1H132.2z M50.7,425h410.7v22.3H50.7V425z M482.5,490.7h-453v-22.2h453V490.7z"/>
		<rect x="29.5" y="468.5" class="st1" width="453" height="22.2"/>
		<path class="st2" d="M428.5,198.2v14.1h-0.7c-1-0.3-2.2-0.5-3.3-0.5h-41.4c-1.2,0-2.3,0.2-3.3,0.5h-0.7v-14.1H428.5z"/>
		<polygon class="st2" points="418.2,368.8 389.4,368.8 393.4,233 414.2,233 417.2,335.7 		"/>
		<rect x="379.1" y="390.1" class="st2" width="49.5" height="13.6"/>
		<rect x="231.3" y="390.1" class="st2" width="49.5" height="13.6"/>
		<rect x="83.5" y="390.1" class="st2" width="49.5" height="13.6"/>
		<path class="st2" d="M280.7,198.2v14.1H280c-1-0.3-2.1-0.5-3.3-0.5h-41.4c-1.2,0-2.3,0.2-3.3,0.5h-0.7v-14.1H280.7z"/>
		<polygon class="st2" points="270.4,368.8 241.6,368.8 245.6,233 266.4,233 		"/>
		<rect x="50.7" y="154.7" class="st1" width="410.7" height="22.3"/>
		<path class="st1" d="M256,22.8L59.5,133.4h393.1L256,22.8z M330.8,111H181.2c-4.3,0-8.2-2.9-9.3-7.1c-1.1-4.2,0.8-8.6,4.6-10.8
			l74.8-42c2.9-1.6,6.5-1.6,9.4,0l74.8,42c3.8,2.1,5.7,6.6,4.6,10.8C338.9,108.1,335.1,111,330.8,111z"/>
		<path class="st2" d="M132.9,198.2v14.1h-0.7c-1-0.3-2.2-0.5-3.3-0.5H87.5c-1.2,0-2.3,0.2-3.3,0.5h-0.7v-14.1H132.9z"/>
		<polygon class="st2" points="122.6,368.8 93.8,368.8 97.8,233 118.6,233 		"/>
		<path class="st0" d="M335.4,93.1l-74.8-42c-2.9-1.6-6.5-1.6-9.4,0l-74.8,42c-3.8,2.1-5.7,6.6-4.6,10.8c1.1,4.2,4.9,7.1,9.3,7.1
			h149.5c4.3,0,8.2-2.9,9.3-7.1C341.1,99.7,339.2,95.3,335.4,93.1z M217.8,91.9L256,70.4l38.2,21.5H217.8z"/>
		<polygon class="st1" points="294.2,91.9 217.8,91.9 256,70.4 		"/>
		<rect x="50.7" y="425" class="st1" width="410.7" height="22.3"/>
	</g>
</g>
</svg>
