<?xml version="1.0" encoding="utf-8"?>
<!-- Generator: Adobe Illustrator 21.0.2, SVG Export Plug-In . SVG Version: 6.00 Build 0)  -->
<svg version="1.1" id="Layer_1" xmlns="http://www.w3.org/2000/svg" xmlns:xlink="http://www.w3.org/1999/xlink" x="0px" y="0px"
	 viewBox="0 0 512 512" style="enable-background:new 0 0 512 512;" xml:space="preserve">
<style type="text/css">
	.st0{fill:#A5A4A4;}
	.st1{fill:#E8E8E8;}
	.st2{fill:#EDC9BE;}
	.st3{fill:#E2A99C;}
	.st4{fill:#A3A2A0;}
	.st5{fill:#C7C5C4;}
	.st6{fill:#464655;}
</style>
<g>
	<path class="st0" d="M123.9,146c-24.8,8.3-43.9-14-58.3-13.8C51.2,132.3-0.2,155.5,0,174.1c0.2,18.2,82.7,71,140.5,13.2L123.9,146z
		"/>
	<path class="st0" d="M388.1,146c24.8,8.3,43.9-14,58.3-13.8c14.4,0.1,65.8,23.3,65.6,41.9c-0.2,18.2-82.7,71-140.5,13.2L388.1,146z
		"/>
</g>
<path class="st1" d="M342.4,385.2c19.1-82.8,53.9-237.3,53.9-261.3c0-24.8,0-33-16.5-49.5c-5.3-5.3-15.6-10.5-28.2-15.3
	c-61.3-23.6-129.8-23.6-191.2,0c-12.6,4.9-23,10.1-28.2,15.3c-16.5,16.5-16.5,24.8-16.5,49.5c0,24,34.8,178.4,53.9,261.3l-14.1,49.3
	c-7.5,26.4,12.3,52.6,39.7,52.6h121.7c27.4,0,47.2-26.2,39.7-52.6L342.4,385.2z"/>
<path class="st2" d="M299,406.5h-86c-12.7,0-23,10.3-23,23l0,0c0,10.7,2.9,21.1,8.4,30.2l9.2,15.3c4.5,7.5,12.5,12,21.2,12h54.5
	c8.7,0,16.8-4.6,21.2-12l9.2-15.3c5.5-9.1,8.4-19.6,8.4-30.2l0,0C322,416.8,311.7,406.5,299,406.5z"/>
<g>
	<path class="st3" d="M223,454.1c-2.1,0-4.2-0.8-5.8-2.4l-16.5-16.5c-3.2-3.2-3.2-8.4,0-11.7s8.4-3.2,11.7,0l16.5,16.5
		c3.2,3.2,3.2,8.4,0,11.7C227.2,453.3,225.1,454.1,223,454.1z"/>
	<path class="st3" d="M289,454.1c-2.1,0-4.2-0.8-5.8-2.4c-3.2-3.2-3.2-8.4,0-11.7l16.5-16.5c3.2-3.2,8.4-3.2,11.7,0s3.2,8.4,0,11.7
		l-16.5,16.5C293.2,453.3,291.1,454.1,289,454.1z"/>
</g>
<path class="st4" d="M379.8,74.4c-5.2-5.2-15.3-10.3-27.7-15.1c-7.6-9.2-18.4-20.3-30.1-26.1c-16.5-8.3-66-8.3-66-8.3
	s-49.5,0-66,8.3c-11.6,5.8-22.4,16.9-30.1,26.1c-12.4,4.8-22.5,9.9-27.7,15.1c-14.7,14.7-16.3,22.9-16.5,42.1
	c11.3,0.5,25.4,1.1,32.2,1.1c50.4,0,92.6-23.5,107-34l-8,33.1c26.1-0.2,72.7-23.4,82.2-33.8l8.6,32.9c25.6-16.7,25.6-25,25.6-25
	s16.7,0,31.8,9.2C393.4,91,389.5,84.1,379.8,74.4z"/>
<path class="st5" d="M116,107.5c-0.3,4.7-0.3,10-0.3,16.4c0,24,34.8,178.4,53.9,261.3c0,0,45.2-87.9,45.2-104.5
	C214.7,264.3,223,132.5,116,107.5z"/>
<ellipse class="st6" cx="161.1" cy="202.4" rx="12.4" ry="20.6"/>
<path class="st5" d="M396,107.5c0.3,4.7,0.3,10,0.3,16.4c0,24-34.8,178.4-53.9,261.3c0,0-45.2-87.9-45.2-104.5
	C297.3,264.3,289,132.5,396,107.5z"/>
<ellipse class="st6" cx="350.9" cy="202.4" rx="12.4" ry="20.6"/>
</svg>
