<?xml version="1.0" encoding="utf-8"?>
<!-- Generator: Adobe Illustrator 21.0.2, SVG Export Plug-In . SVG Version: 6.00 Build 0)  -->
<svg version="1.1" id="Capa_1" xmlns="http://www.w3.org/2000/svg" xmlns:xlink="http://www.w3.org/1999/xlink" x="0px" y="0px"
	 viewBox="0 0 512 512" style="enable-background:new 0 0 512 512;" xml:space="preserve">
<style type="text/css">
	.st0{fill:#C7C5C4;}
	.st1{fill:#918D8D;}
	.st2{fill:#EAEAEA;}
	.st3{fill:#D1D1D1;}
	.st4{fill:#84665D;}
	.st5{fill:#BCBBBB;}
	.st6{fill:#9B9A9A;}
	.st7{fill:#F4BEDE;}
	.st8{fill:#F792CE;}
</style>
<path class="st0" d="M397.6,18c-5.9-15.8-21.4-20.1-37.7-17l0,0c-61.5,11.1-137,11.5-199,1.6c-0.8-0.1-1.6-0.3-2.5-0.4
	c-2.3-0.4-4.5-0.8-6.7-1.2l0,0c-1.2,0-28.8-6.6-37.7,17c-69.4,208.3,6.8,494,141.7,494C387.3,512,469.2,232.6,397.6,18z"/>
<path class="st1" d="M132,51.3c0-0.1,0-0.1,0.1-0.2c0.8-3.2,1.6-6.4,2.5-9.5c0,0,0-0.1,0-0.1c1.7-6.3,3.6-12.5,5.5-18.6c0,0,0,0,0,0
	c0.3-0.7,0.5-1.5,0.8-2.4c0.1-0.5,0.3-0.9,0.4-1.3c0.1-0.4,0.2-0.7,0.4-1.1c3.4-9.1,9.6-13.7,16.1-16c-2-0.3-4-0.7-6-1l0,0
	c-1.2,0-28.8-6.6-37.7,17c-69.9,209.8,7.6,494,141.7,494c4.6,0,9.2-0.4,13.8-1.1C151.6,492.6,81.5,251.5,132,51.3z"/>
<g>
	<ellipse class="st2" cx="334.5" cy="163.4" rx="50.5" ry="17.2"/>
	<ellipse class="st2" cx="177.2" cy="163.4" rx="50.5" ry="17.2"/>
</g>
<g>
	<path class="st3" d="M153,163.3c0-8.3,13.9-15.2,32.4-16.8c-27.1-1.5-58.8,5.2-58.8,17c0,11.8,31.9,18.8,60.5,16.8
		C167.8,178.9,153,171.8,153,163.3z"/>
	<path class="st3" d="M310.4,163.3c0-8.3,13.9-15.2,32.4-16.8c-27.1-1.5-58.8,5.2-58.8,17c0,9.5,22.6,17.2,50.5,17.2
		c3.4,0,6.8-0.1,10-0.3C325.2,178.9,310.4,171.8,310.4,163.3z"/>
</g>
<g>
	<path class="st4" d="M345.2,217.1c-15.8,0-32.8-3.4-47.2-9.1c-4-1.6-5.9-6.1-4.3-10c1.6-4,6.1-5.9,10-4.3
		c19,7.6,48.9,11.8,66.4,3.6c3.9-1.8,8.5-0.2,10.3,3.7c1.8,3.9,0.2,8.5-3.7,10.3C368.4,215.1,357.4,217.1,345.2,217.1z"/>
	<path class="st4" d="M136.6,211.2c-3.9-1.8-5.5-6.4-3.7-10.3c1.8-3.9,6.4-5.5,10.3-3.7c17.3,8.1,47.1,4.1,66.4-3.6
		c4-1.6,8.5,0.4,10,4.3c1.6,4-0.4,8.5-4.3,10C192.1,217.3,158,221.4,136.6,211.2z"/>
</g>
<path class="st5" d="M292.3,260.8c-16.1-33.9-19.7-67.7-36.4-67.7s-20.3,33.9-36.4,67.7c-23,48.2,8.3,24.8,15.3,39.2
	c7.1,14.6,21.1,14,21.1,14s14,0.6,21.1-14C284,285.6,315.3,309.1,292.3,260.8z"/>
<path class="st6" d="M253.6,278.3c3.8-38.7-3.9-73.3,9.3-82.8c-2.1-1.6-4.4-2.4-7.1-2.4c-16.7,0-20.3,33.9-36.4,67.7
	c-23,48.2,8.3,24.8,15.3,39.2c7.1,14.6,21.1,14,21.1,14s2.2,0.1,5.4-0.7C254.9,313,250.8,306.6,253.6,278.3z"/>
<g>
	<path class="st2" d="M320.7,255.1c-4.6,0-6.4-3.3-7.9-5.8c-2.3-3.6-1.2-8.4,2.5-10.6c3.6-2.3,8.4-1.2,10.6,2.5
		c0.4,0.7,0.9,1.4,1.3,2.1c2.3,3.6,1.3,8.4-2.3,10.7C323.6,254.7,322.1,255.1,320.7,255.1z"/>
	<path class="st2" d="M358.8,298.9c-1.5-1.1-2.9-2.2-4.3-3.3c-3.4-2.6-3.9-7.5-1.3-10.8c2.6-3.4,7.5-3.9,10.8-1.3c1.3,1,2.6,2,4,3
		c3.4,2.5,4.2,7.4,1.6,10.8C367.1,300.7,362.3,301.4,358.8,298.9z M340,279.6c-4,0-5.8-2.5-9.3-6.4c-2.8-3.2-2.5-8.1,0.6-10.9
		c3.2-2.8,8.1-2.5,10.9,0.6c1.1,1.2,2.2,2.5,3.4,3.7C350.3,271.5,346.8,279.6,340,279.6z"/>
	<path class="st2" d="M388,315.2c-2.1,0-3.3-0.7-5.8-1.9c-3.8-1.9-5.4-6.5-3.5-10.4s6.5-5.4,10.4-3.5c0.7,0.4,1.5,0.7,2.2,1.1
		c3.9,1.8,5.5,6.4,3.7,10.3C393.6,313.6,390.8,315.2,388,315.2z"/>
	<path class="st2" d="M188.4,253.8c-3.6-2.3-4.6-7.1-2.3-10.7c0.4-0.7,0.9-1.4,1.3-2.1c2.3-3.6,7-4.7,10.6-2.5
		c3.6,2.3,4.7,7,2.5,10.6c-0.5,0.8-1,1.5-1.4,2.3C196.8,255.1,192,256.2,188.4,253.8z"/>
	<path class="st2" d="M143.7,297.3c-2.5-3.4-1.8-8.3,1.6-10.8c1.3-1,2.7-2,4-3c3.4-2.6,8.2-2.1,10.8,1.3c2.6,3.4,2.1,8.2-1.3,10.8
		c-1.4,1.1-2.9,2.2-4.3,3.3C151,301.4,146.2,300.7,143.7,297.3z M168,277.5c-3.1-2.9-3.3-7.8-0.3-10.9c1.1-1.2,2.3-2.4,3.4-3.7
		c2.8-3.2,7.7-3.5,10.9-0.6s3.5,7.7,0.6,10.9c-1.2,1.4-2.4,2.7-3.7,4C176,280.3,171.1,280.5,168,277.5z"/>
	<path class="st2" d="M125.3,315.2c-8.2,0-10.7-11.2-3.3-14.7c0.7-0.3,1.5-0.7,2.2-1.1c3.8-1.9,8.5-0.3,10.4,3.5
		c1.9,3.8,0.3,8.5-3.5,10.4C128.8,314.4,127.5,315.2,125.3,315.2z"/>
</g>
<path class="st7" d="M319.4,377.6L319.4,377.6L319.4,377.6c-5-3.3-10.3-7.4-14.7-12.4c-11.5-13-34-22.1-48.8-5.3
	c-14.8-16.7-37.4-7.6-48.8,5.3c-6,6.8-12.5,10.7-16.2,13.3c-0.3,0.2-0.6,0.4-0.9,0.6c-2.3,1.6-7.6,6.4,0.9,12.5l0,0
	c5.8,3.4,12.8,8.8,20.3,17.2c17.9,20.3,44.8,16.8,44.8,16.8s26.8,3.5,44.8-16.8c6.8-7.7,13.3-12.8,18.8-16.2
	C324.7,387.2,325.4,381.6,319.4,377.6z"/>
<path class="st8" d="M190.8,391.7L190.8,391.7c5.8,3.4,12.8,8.8,20.3,17.2c17.9,20.3,44.8,16.8,44.8,16.8s26.8,3.5,44.8-16.8
	c6.8-7.7,13.3-12.8,18.8-16.2c3.4-3.4,4.4-6.2,4.3-8.5H186.3C185.9,386.1,186.8,388.8,190.8,391.7z"/>
<path class="st2" d="M211.3,8.2L211.3,8.2C192,6.9,171.5,4.6,151.8,1l0,0c-1.3,0-28.6-6.5-37.5,16.7c-7.1,21.3-12.4,42.4-16.6,64.7
	c93,22.5,223.3,22.6,316.5,0c-4.1-21.8-9.4-43.1-16.6-64.7C391.5,2.2,376-2.1,359.9,1l0,0c-28,5.1-57.6,7.7-86.9,8.5l0,0
	C251.5,10,229.8,9.5,211.3,8.2z"/>
<path class="st3" d="M114.2,17.7c-7.5,22.3-12.4,42.6-16.6,64.7c8.4,2,17.3,3.9,26.5,5.6c2.2-12.6,4.6-24.1,7.8-36.8
	c0-0.1,0-0.1,0.1-0.2c0.8-3.2,1.6-6.4,2.5-9.5c0,0,0-0.1,0-0.1c1.7-6.3,3.6-12.5,5.5-18.6c0,0,0,0,0,0c0.3-0.7,0.5-1.5,0.8-2.4
	c0.1-0.5,0.3-0.9,0.4-1.3c0.1-0.4,0.2-0.7,0.4-1.1c3.4-9.1,9.6-13.7,16.1-16c-2-0.3-4-0.7-6-1l0,0l0,0l0,0
	C120.3-4.9,114.6,17.4,114.2,17.7z"/>
<path class="st0" d="M397.5,17.7C391.5,2.2,376-2.1,359.9,1l0,0c-63.5,11.5-143.4,11.7-208.2,0v0c-1.3,0-28.6-6.5-37.5,16.7
	c-1.8,5.4-2.7,8.4-4.7,15.1c87.8,18.9,204.3,19,292.7,0C400.1,25.7,399.1,22.6,397.5,17.7z"/>
<path class="st1" d="M114.2,17.7c-1.5,4.6-2.6,7.9-4.7,15.1c8.4,1.8,17.1,3.4,26.1,4.9c1.4-5,2.9-10,4.5-14.9c0,0,0,0,0,0
	c0.3-0.7,0.5-1.5,0.8-2.4c0.1-0.5,0.3-0.9,0.4-1.3c0.1-0.4,0.2-0.7,0.4-1.1c3.4-9.1,9.6-13.7,16.1-16c-2-0.3-4-0.7-6-1l0,0l0,0l0,0
	C120.3-4.9,114.6,17.4,114.2,17.7z"/>
<path class="st4" d="M374.8,37.9c-5.1,0.8-10.2,1.6-15.4,2.3l-14.5,37.1l-22.8-33c-5.5,0.5-11.1,0.9-16.7,1.2l-17.1,36.9L264.7,47
	c-6.5,0.1-11.1,0.1-18.1,0l-23.5,35.5l-17.1-36.9c-5.6-0.3-11.2-0.8-16.7-1.2l-22.8,33.1l-14.6-37.2c-5.2-0.7-10.3-1.5-15.4-2.3
	L97.7,81.9c-0.1,0.3-0.1,0.5-0.1,0.5c5.5,1.3,11.1,2.6,16.9,3.8l26.9-30.5L156,93.1c5.5,0.7,11.2,1.4,16.9,2l23.3-33.8l17.1,37
	c5.7,0.3,11.5,0.5,17.3,0.7l25-37.7l25,37.7c5.8-0.2,11.6-0.4,17.2-0.7l17.1-37l23.3,33.8c5.7-0.6,11.3-1.3,16.9-2l14.7-37.4
	l26.9,30.6c5.9-1.2,11.6-2.5,17.2-3.8C413.7,82,386.4,51.1,374.8,37.9z"/>
</svg>
