<?xml version="1.0" encoding="utf-8"?>
<!-- Generator: Adobe Illustrator 21.0.2, SVG Export Plug-In . SVG Version: 6.00 Build 0)  -->
<svg version="1.1" id="Capa_1" xmlns="http://www.w3.org/2000/svg" xmlns:xlink="http://www.w3.org/1999/xlink" x="0px" y="0px"
	 viewBox="0 0 512 512" style="enable-background:new 0 0 512 512;" xml:space="preserve">
<style type="text/css">
	.st0{fill:#C7C5C4;}
	.st1{fill:#ADABAA;}
	.st2{fill:#999898;}
	.st3{fill:#B9BAB9;}
	.st4{fill:#757574;}
</style>
<path class="st0" d="M251.8,462.3c-1.7-1.4-41.8-34.3-117.5-34.3c-75.6,0-115.8,32.9-117.5,34.3L7.8,470l9.1,7.7
	c1.7,1.4,41.8,34.3,117.5,34.3c75.6,0,115.8-32.9,117.5-34.3l9.1-7.7L251.8,462.3z"/>
<path class="st1" d="M261,470l-9.1-7.7c-1.7-1.4-41.8-34.3-117.5-34.3c-75.6,0-115.8,32.9-117.5,34.3L7.8,470"/>
<path class="st0" d="M259.8,365.8c-1.7-1.2-41.6-28.5-116.8-28.5c-75.2,0-115.1,27.3-116.8,28.5L14.5,374l11.7,8.2
	c1.7,1.2,41.6,28.5,116.8,28.5c75.2,0,115.1-27.3,116.8-28.5l11.7-8.2L259.8,365.8z"/>
<path class="st1" d="M271.6,374l-11.7-8.2c-1.7-1.2-41.6-28.5-116.8-28.5c-75.2,0-115.1,27.3-116.8,28.5L14.5,374"/>
<path class="st0" d="M261.8,304.4c-1.2-1.6-30.7-40-102.2-63.3c-71.4-23.3-117.9-9.8-119.8-9.2l-13.7,4.2l8.6,11.4
	c1.2,1.6,30.7,40,102.2,63.3c32.7,10.7,60.2,13.6,80.5,13.6c24.1,0,38.2-4.1,39.3-4.5l13.7-4.2L261.8,304.4z"/>
<path class="st1" d="M270.4,315.8l-8.6-11.4c-1.2-1.6-30.7-40-102.2-63.3c-71.4-23.3-117.9-9.8-119.8-9.2l-13.7,4.2"/>
<path class="st0" d="M262.8,231c-5.8-14.2-23-47.5-64.9-79.1c-54.7-41.2-100.4-41.2-102.3-41.2L82.6,111l3.4,12.5
	c0.5,1.9,13,45.8,67.7,87.1c38.7,29.2,73,37.6,90,40.1c0.8,0.1,1.6,0.2,2.4,0.2C255.5,250.8,264,243,262.8,231z"/>
<g>
	<path class="st1" d="M258.5,245.3c3.1-3.4,4.9-8.4,4.3-14.3c-5.8-14.2-23-47.5-64.9-79.1c-54.7-41.2-100.4-41.2-102.3-41.2
		L82.6,111"/>
	<path class="st1" d="M260.1,462.3c1.7-1.4,41.8-34.3,117.5-34.3c75.6,0,115.8,32.9,117.5,34.3l9.1,7.7l-9.1,7.7
		c-1.7,1.4-41.8,34.3-117.5,34.3c-75.6,0-115.8-32.9-117.5-34.3L251,470L260.1,462.3z"/>
</g>
<path class="st2" d="M251,470l9.1-7.7c1.7-1.4,41.8-34.3,117.5-34.3c75.6,0,115.8,32.9,117.5,34.3l9.1,7.7"/>
<path class="st0" d="M252.2,365.8c1.7-1.2,41.6-28.5,116.8-28.5c75.2,0,115.1,27.3,116.8,28.5l11.7,8.2l-11.7,8.2
	c-1.7,1.2-41.6,28.5-116.8,28.5c-75.2,0-115.1-27.3-116.8-28.5l-11.7-8.2L252.2,365.8z"/>
<path class="st2" d="M240.4,374l11.7-8.2c1.7-1.2,41.6-28.5,116.8-28.5c75.2,0,115.1,27.3,116.8,28.5l11.7,8.2"/>
<path class="st0" d="M250.2,304.4c1.2-1.6,30.7-40,102.2-63.3c71.4-23.3,117.9-9.8,119.8-9.2l13.7,4.2l-8.6,11.4
	c-1.2,1.6-30.7,40-102.2,63.3c-32.7,10.7-60.2,13.6-80.5,13.6c-24.1,0-38.2-4.1-39.3-4.5l-13.7-4.2L250.2,304.4z"/>
<path class="st2" d="M241.6,315.8l8.6-11.4c1.2-1.6,30.7-40,102.2-63.3c71.4-23.3,117.9-9.8,119.8-9.2l13.7,4.2"/>
<path class="st0" d="M249.2,231c5.8-14.2,23-47.5,64.9-79.1c54.7-41.2,100.4-41.2,102.3-41.2l12.9,0.2l-3.4,12.5
	c-0.5,1.9-13,45.8-67.7,87.1c-38.7,29.2-73,37.6-90,40.1c-0.8,0.1-1.6,0.2-2.4,0.2C256.5,250.8,248,243,249.2,231z"/>
<path class="st2" d="M253.5,245.3c-3.1-3.4-4.9-8.4-4.3-14.3c5.8-14.2,23-47.5,64.9-79.1c54.7-41.2,100.4-41.2,102.3-41.2l12.9,0.2"
	/>
<path class="st0" d="M263.7,9.5L256,0l-7.7,9.5c-1.2,1.4-28.9,36.2-28.9,101.4s27.7,99.9,28.9,101.4l7.7,9.5l7.7-9.5
	c1.2-1.4,28.9-36.2,28.9-101.4C292.7,45.7,264.9,10.9,263.7,9.5z"/>
<path class="st1" d="M256,221.7l7.7-9.5c1.2-1.4,28.9-36.2,28.9-101.4c0-65.2-27.7-99.9-28.9-101.4L256,0"/>
<rect x="241" y="202.7" class="st3" width="30" height="309.3"/>
<rect x="256" y="202.7" class="st4" width="15" height="309.3"/>
</svg>
