<?xml version="1.0" encoding="utf-8"?>
<!-- Generator: Adobe Illustrator 21.0.2, SVG Export Plug-In . SVG Version: 6.00 Build 0)  -->
<svg version="1.1" id="Capa_1" xmlns="http://www.w3.org/2000/svg" xmlns:xlink="http://www.w3.org/1999/xlink" x="0px" y="0px"
	 viewBox="0 0 460.3 460.3" style="enable-background:new 0 0 460.3 460.3;" xml:space="preserve">
<style type="text/css">
	.st0{fill:#C7C5C4;}
	.st1{fill:#9B9A9A;}
	.st2{fill:none;}
</style>
<g>
	<g>
		<path class="st0" d="M394.6,258v137c0,4.9-1.8,9.2-5.4,12.8c-3.6,3.6-7.9,5.4-12.8,5.4H266.7V303.7h-73.1v109.6H84
			c-4.9,0-9.2-1.8-12.8-5.4c-3.6-3.6-5.4-7.9-5.4-12.8V258c0-0.2,0-0.5,0.1-0.8c0.1-0.4,0.1-0.7,0.1-0.9l164.2-135.3l164.2,135.3
			C394.5,256.7,394.6,257.2,394.6,258z"/>
		<path class="st0" d="M458.3,238.3l-17.7,21.1c-1.5,1.7-3.5,2.8-6,3.1h-0.9c-2.5,0-4.5-0.7-6-2L409,245L230.2,95.8L52.4,244
			l-19.8,16.5c-2.3,1.5-4.6,2.2-6.9,2c-2.5-0.4-4.5-1.4-6-3.2L2,238.3c-1.5-1.9-2.2-4.1-2-6.7c0.2-2.6,1.2-4.6,3.1-6.1l205.3-171
			c6.1-5,13.3-7.4,21.7-7.4c8.4,0,15.6,2.5,21.7,7.4l69.7,58.2V57c0-2.7,0.9-4.8,2.6-6.6c1.7-1.7,3.9-2.6,6.6-2.6h54.8
			c2.7,0,4.9,0.9,6.6,2.6c1.7,1.7,2.6,3.9,2.6,6.6v116.5l62.5,52c1.9,1.5,3,3.6,3.1,6.1C460.5,234.1,459.8,236.4,458.3,238.3z"/>
	</g>
</g>
<rect x="193.6" y="303.7" class="st1" width="73.1" height="109.6"/>
<polygon class="st1" points="409,245 394.3,256.3 230.2,120.9 66,256.3 52.4,244 230.2,95.8 "/>
<line class="st2" x1="52.4" y1="244" x2="45" y2="237.3"/>
<line class="st2" x1="419" y1="237.3" x2="409" y2="245"/>
</svg>
