<?xml version="1.0" encoding="utf-8"?>
<!-- Generator: Adobe Illustrator 21.0.2, SVG Export Plug-In . SVG Version: 6.00 Build 0)  -->
<svg version="1.1" id="Layer_1" xmlns="http://www.w3.org/2000/svg" xmlns:xlink="http://www.w3.org/1999/xlink" x="0px" y="0px"
	 viewBox="0 0 512 512" style="enable-background:new 0 0 512 512;" xml:space="preserve">
<style type="text/css">
	.st0{fill:#E0AAC9;}
	.st1{fill:#ADA9A7;}
	.st2{fill:#B28EA5;}
	.st3{fill:#464655;}
	.st4{fill:#8C888A;}
</style>
<g>
	<path class="st0" d="M314.8,366.2l-39,0.8l-11.6,17l33,33C297.3,417,323.1,399.1,314.8,366.2z"/>
	<path class="st0" d="M223,334.5c0,24.8-26.8,49.5-41.3,49.5c-0.7,0-8.3-24.8-24.8-41.3c-24.8-24.8-36.1-28.9-51.5-64.5l11.6-9.5
		L223,334.5z"/>
</g>
<path class="st1" d="M487.2,268.4l16.5-16.5c-8.3-24.8-65-99.1-165.2-99.1c-18.6,0-38,2.3-57.4,6C261.7,133,231.8,95,223,95
	c-9.6,0-66.1,57.8-66.1,74.3c0,5,7.4,14.5,14.2,22c-39.3,14.5-69.7,27.6-80.2,27.6C67.1,218.8,53.7,128,0,128
	c0,54.2,16.5,75.9,16.5,107.4v8.3C16.5,275.1,0,296.8,0,351c53.7,0,67.1-90.8,90.8-90.8s114.6,115.6,214.7,115.6
	c104.3,0,206.5-69.5,206.5-90.8C512,262.2,487.2,268.4,487.2,268.4z"/>
<path class="st2" d="M305.5,375.7c46.9,0,93.4-14.1,130.4-31.5c-20.7-11.8-39.5-34.5-39.5-34.5s-49.5,24.8-165.2,0
	c-39.3-8.4-101.4-33.5-119.1-37.9C150.6,301.1,225.1,375.7,305.5,375.7z"/>
<path class="st0" d="M379.9,326.3l-33,16.5l-41.3-16.5c23.4-19.3,66.1-16.5,66.1-16.5L379.9,326.3z"/>
<circle class="st3" cx="454.2" cy="251.9" r="16.5"/>
<path class="st4" d="M476,211.5c-27.2-28.4-73.4-58.7-137.4-58.7c-100.1,0-224,66.1-247.7,66.1c-5.4,0-10.3-4.8-15.3-12.1
	c0,0,0,0,0,0c-5.2-7.7-10.5-18.2-16.5-29.1c-0.8,9.3-5.3,17.7-10.2,26.9c-5.7,10.7-11.6,21.8-11.6,35c0,13.2,5.9,24.3,11.6,35
	c4.9,9.2,9.4,17.6,10.2,26.9c6-10.9,11.3-21.4,16.5-29.1c-1.6-3.3-3.3-6.5-4.9-9.5c-4.7-8.7-8.7-16.3-8.7-23.3c0-4.7,1.8-9.6,4.4-15
	c10.1,12.8,27.1,23.1,57.5,10.9c34.3-13.7,203.8-34.4,256-8.3c2.4,1.2,4.9,2.2,7.4,3.2c-4.8,11.1-7.4,23.2-7.4,36
	c0,34.4,18.8,64.9,48.1,81.6c6.6-2.9,13-6,19-9.1c-30.4-12-50.6-40.2-50.6-72.5c0-11.3,2.6-22,7.1-31.7
	C430.8,238.8,459.3,229.6,476,211.5z"/>
</svg>
