<?xml version="1.0" encoding="utf-8"?>
<!-- Generator: Adobe Illustrator 21.0.2, SVG Export Plug-In . SVG Version: 6.00 Build 0)  -->
<svg version="1.1" id="Layer_1" xmlns="http://www.w3.org/2000/svg" xmlns:xlink="http://www.w3.org/1999/xlink" x="0px" y="0px"
	 viewBox="0 0 512 512" style="enable-background:new 0 0 512 512;" xml:space="preserve">
<style type="text/css">
	.st0{fill:none;}
	.st1{fill:#EFDB78;}
	.st2{fill:#BCBCBC;}
	.st3{fill:#C7C5C4;}
	.st4{fill:#AAA8A7;}
</style>
<g>
	<g>
		<path class="st0" d="M163.7,32v16h0L163.7,32L163.7,32z M178.7,347.9l12.2,12.6h0L178.7,347.9z M203.7,129.4L203.7,129.4
			l14.1,11.4L203.7,129.4z M330,143.6l14.7-11.8l2.9-2.3v0L330,143.6z M354.7,345.1l-49.6-7.6l-29.4-62.7l7.5,16.1l-28,59.6
			l-64.2,9.8l36.6,37.5l-11.4,69.7l3-18.5l47.4-26.2l59.4,32.8l-11.4-69.6L354.7,345.1z"/>
		<path class="st1" d="M275.6,187.3l-7.9-6.3L275.6,187.3l7.9-6.3L275.6,187.3z M330,143.6l-4.6,3.7L330,143.6l14.7-11.8L330,143.6z
			 M347.6,129.4L347.6,129.4L347.6,129.4L347.6,129.4L347.6,129.4z M414.1,325.2c-2.7-2.6-6.1-4.3-9.8-4.9l-77.6-11.8l-35.1-74.3
			v-18.7l-16,15.3c0,6-1.4,11.8-4.2,17.1l-31.3,62c-4.7,9.3-13.7,15.7-24,17.1l-61.3,9.4c-8.6,1.2-15,8.6-15.2,17.3v0l53.7,55.1
			l-13.8,82.2c-1.6,9.8,5,19.1,14.9,20.6c2.3,0.4,4.6,0.3,6.8-0.2c-1.1,0.2-2.2,0.3-3.2,0.3c-2.9,0-5.8-0.7-8.4-2.1
			c-0.4-0.7-0.7-1.5-1-2.3c-1.6-5.6,1.7-11.5,7.3-13c0.8-0.2,1.6-0.4,2.3-0.8l53.3-29.6c9.7-5.5,21.6-5.5,31.4,0l53.6,29.4
			c3.5,1.9,7.6,2.7,11.6,2c9.8-1.6,16.5-10.8,14.9-20.6l-10.8-66.2c-1.7-10,1.6-20.2,8.6-27.5l45.3-46.5c3.1-2.6,7-4.2,11-4.6
			c0.4,0.6,0.7,1.2,1,1.9C417.4,329.3,416,327.1,414.1,325.2z M323.7,397.9l11.3,69.7l-59.4-32.9l-59.4,32.9l11.4-69.7L191,360.4h0
			l-12.2-12.6l67.5-10.3l29.4-62.7l29.4,62.7l49.6,7.6l17.8,2.7L323.7,397.9z"/>
		<path class="st2" d="M387.6,0c0,8.8-7.2,16-16,16H163.7c-8.8,0-16,7.2-16,16v40c0,4.4-1.8,8.4-4.7,11.3c-2.9,2.9-6.9,4.7-11.3,4.7
			v1.7c0,14.5,6.6,28.3,17.9,37.4l110,88.4v0.4h1.1l41.2-28c1.7-2,3.6-3.8,5.7-5.5l86.9-69.7c5.7-4.5,9-11.4,9-18.7V48
			c0-8.8,7.2-16,16-16C419.6,14.3,405.3,0,387.6,0z M387.6,89.6c0,4.9-2.2,9.5-6,12.5l-34,27.3v0l0,0l-2.9,2.3L330,143.6l-4.6,3.7
			l-2,1.6l-17.1,13.8l-14.6,11.7l-4.4,3.6l-3.7,3l-7.9,6.3l-7.9-6.3l-4-3.2l-4.1-3.3l-38.3-30.8l-3.5-2.8l-14.1-11.3v0l-34-27.3
			c-3.8-3-6-7.6-6-12.5V48h0V32h223.9V89.6z"/>
		<path class="st3" d="M419.6,32v57.7c0,0.5,0,1,0,1.4c0,0.4,0,0.9-0.1,1.3c-0.1,1.7-0.3,3.4-0.6,5c0,0.2-0.1,0.4-0.1,0.6
			c-0.1,0.4-0.1,0.7-0.2,1.1c-0.1,0.4-0.2,0.9-0.3,1.3c-0.2,0.7-0.3,1.4-0.5,2c-0.1,0.3-0.2,0.6-0.2,0.9c-0.2,0.6-0.4,1.2-0.6,1.8
			c-0.1,0.2-0.2,0.5-0.2,0.7c-1.9,5.3-4.7,10.3-8.4,14.7c-0.6,0.7-1.2,1.3-1.8,2c-0.3,0.3-0.6,0.6-0.9,1c-1.3,1.3-2.6,2.5-4,3.6
			l-110,88.4c0-10.2,3.7-20,10.3-27.6c1.7-2,3.6-3.8,5.7-5.5l86.9-69.7c5.7-4.5,9-11.4,9-18.7V48C403.6,39.1,410.8,32,419.6,32z"/>
		<path class="st3" d="M387.6,0c0,8.8-7.2,16-16,16H163.7c-8.8,0-16,7.2-16,16v40c0,4.4-1.8,8.4-4.7,11.3c-2.9,2.9-6.9,4.7-11.3,4.7
			V32c0-17.7,14.3-32,32-32H387.6z"/>
		<path class="st1" d="M419.5,339c0,0.2,0,0.5-0.1,0.7c0,0.5-0.1,1-0.2,1.5c0,0.2-0.1,0.3-0.1,0.5c-0.1,0.5-0.2,0.9-0.3,1.3
			c0,0,0,0,0,0c-0.2,0.5-0.3,1.1-0.5,1.6v0c-0.1,0.3-0.2,0.6-0.4,0.9c-0.2,0.4-0.4,0.8-0.6,1.3c-0.1,0.2-0.2,0.4-0.4,0.6
			c-0.2,0.4-0.5,0.8-0.8,1.2c-0.4,0.5-0.7,1-1.1,1.4c-0.2,0.2-0.4,0.4-0.6,0.7l-56.6,58.1l13.8,82.2c0.7,4.2-0.1,8.5-2.2,12.2
			c-5,8.6-16,11.5-24.6,6.5l-69.2-38.2l-69.5,38.2c-1.5,0.8-3.1,1.4-4.7,1.8c0,0,0,0-0.1,0c-1.1,0.2-2.2,0.3-3.2,0.3
			c-2.9,0-5.8-0.7-8.4-2.1c-0.4-0.7-0.7-1.5-1-2.3c-1.6-5.6,1.7-11.5,7.3-13c0.8-0.2,1.6-0.4,2.3-0.8l53.3-29.6
			c9.7-5.5,21.6-5.5,31.4,0l53.6,29.4c3.5,1.9,7.6,2.7,11.6,2c9.8-1.6,16.5-10.8,14.9-20.6l-10.8-66.2c-1.7-10,1.6-20.2,8.6-27.5
			l45.3-46.5c3.1-2.6,7-4.2,11-4.6c0.4,0.6,0.7,1.2,1,1.9c0,0.1,0,0.1,0.1,0.2v0c0,0,0,0,0,0C419.3,334.2,419.6,336.6,419.5,339z"/>
		<path class="st0" d="M275.6,471.3l-69.1,38.2c-1.6,0.9-3.3,1.5-5.1,1.8c1.6-0.4,3.2-1,4.7-1.8L275.6,471.3z"/>
		<path class="st0" d="M419.5,339.7c0-0.2,0-0.5,0.1-0.7c0.1-2.4-0.2-4.8-1.1-7.1c0.1,0.1,0.1,0.3,0.2,0.4c1.2,3.5,1.2,7.2,0.2,10.7
			c0.1-0.4,0.2-0.9,0.3-1.3c0-0.2,0.1-0.3,0.1-0.5C419.4,340.7,419.4,340.2,419.5,339.7z"/>
		<polygon class="st0" points="314.7,386.2 326.1,455.8 266.7,423 219.3,449.2 216.2,467.6 227.6,397.9 191,360.4 255.2,350.6 
			283.2,290.9 275.6,274.8 305.1,337.5 354.7,345.1 		"/>
		<polygon class="st4" points="283.2,290.9 255.2,350.6 191,360.4 178.7,347.9 246.2,337.5 275.6,274.8 		"/>
		<polygon class="st0" points="191,360.4 191,360.4 178.7,347.9 		"/>
		<polygon class="st3" points="323.7,397.9 335,467.6 275.6,434.8 216.2,467.6 219.3,449.2 266.7,423 326.1,455.8 314.7,386.2 
			354.7,345.1 372.6,347.9 		"/>
		<polygon class="st3" points="330,143.6 323.4,148.9 306.3,162.7 287.2,178 283.5,181 291.6,174.4 291.6,48 315.6,48 315.6,155.1 
					"/>
		<path class="st3" d="M387.6,32v57.7c0,4.9-2.2,9.5-6,12.5l-34,27.3l0,0V48h40L387.6,32L387.6,32z"/>
		<polygon class="st3" points="263.7,177.7 221.3,143.6 235.7,155.1 235.7,48 259.7,48 259.7,174.4 		"/>
		<path class="st3" d="M203.7,48v81.5l-34-27.3c-3.8-3-6-7.6-6-12.5V48H203.7z"/>
		<g>
			<polygon class="st4" points="347.6,48 347.6,129.5 347.6,129.5 344.7,131.8 330,143.6 325.3,147.4 323.4,148.9 315.6,155.1 
				315.6,48 			"/>
			<polygon class="st0" points="347.6,129.4 347.6,129.5 344.7,131.8 330,143.6 			"/>
			<polygon class="st4" points="235.7,48 235.7,155.1 221.3,143.6 217.8,140.8 203.7,129.4 203.7,48 			"/>
			<polygon class="st0" points="217.8,140.8 203.7,129.5 203.7,129.4 			"/>
			<polygon class="st4" points="291.6,48 291.6,174.4 287.2,178 283.5,181 275.6,187.3 267.8,181 263.7,177.7 259.7,174.4 259.7,48 
							"/>
		</g>
		<rect x="235.6" y="32" class="st3" width="24" height="16"/>
		<rect x="163.7" y="32" class="st3" width="40" height="16"/>
		<rect x="163.7" y="32" class="st0" width="0" height="16"/>
		<rect x="291.6" y="32" class="st3" width="24" height="16"/>
		<rect x="347.6" y="32" class="st3" width="40" height="16"/>
		<g>
			<rect x="203.7" y="32" class="st3" width="32" height="16"/>
			<rect x="259.6" y="32" class="st3" width="32" height="16"/>
			<rect x="315.6" y="32" class="st3" width="32" height="16"/>
		</g>
		<path class="st1" d="M275.6,230.8c0,6-1.4,11.8-4.2,17.1l-31.3,62c-4.7,9.3-13.7,15.7-24,17.1l-61.3,9.4
			c-8.6,1.2-15,8.6-15.2,17.3l-2.9-2.9v0c-2.6-2.7-4.3-6.2-4.9-10c-1.4-9.8,5.4-19,15.3-20.4l77.6-11.8l34.9-74.2v-18.4h1.1
			c4.1,0,7.8,1.7,10.5,4.4C274,223,275.6,226.7,275.6,230.8z"/>
		<polygon class="st0" points="139.7,353.6 139.7,353.7 136.8,350.7 		"/>
	</g>
	<line class="st0" x1="302.8" y1="187.3" x2="301.9" y2="187.9"/>
	<path class="st2" d="M301.9,187.9c-6.6,7.6-10.3,17.4-10.3,27.6l-16,15.3c0-4.1-1.7-7.8-4.4-10.5c-2.7-2.7-6.4-4.4-10.5-4.4
		L301.9,187.9z"/>
</g>
</svg>
