<?xml version="1.0" encoding="utf-8"?>
<!-- Generator: Adobe Illustrator 21.0.2, SVG Export Plug-In . SVG Version: 6.00 Build 0)  -->
<svg version="1.1" id="Capa_1" xmlns="http://www.w3.org/2000/svg" xmlns:xlink="http://www.w3.org/1999/xlink" x="0px" y="0px"
	 viewBox="0 0 21.4 21.4" style="enable-background:new 0 0 21.4 21.4;" xml:space="preserve">
<style type="text/css">
	.st0{fill:#C7C5C4;}
	.st1{fill:#999695;}
	.st2{fill:none;}
</style>
<g>
	<g>
		<polygon class="st0" points="7.1,2.3 7.1,8.3 4.5,9.2 4.5,2.3 		"/>
		<polygon class="st0" points="14.3,2.3 14.3,8.3 11.7,9.2 11.7,2.3 		"/>
		<path class="st0" d="M1.3,15v6.4h18.8V15H1.3z M5.1,19.2H3V16h2V19.2z M8.8,19.2h-2V16h2V19.2z M12.3,19.2h-2V16h2V19.2z"/>
		<rect x="3" y="16" class="st1" width="2" height="3.2"/>
		<rect x="10.3" y="16" class="st1" width="2" height="3.2"/>
		<rect x="6.7" y="16" class="st1" width="2" height="3.2"/>
		<polygon class="st0" points="20.1,11.2 20.1,14 1.3,14 1.3,11.2 4.5,9.9 7.1,8.9 7.8,8.6 8.6,11.2 11.7,10 14.3,8.9 15.2,8.6 
			15.7,11.2 		"/>
		<path class="st1" d="M6.2,1.8L6.2,1.8C6,1.5,6,1.3,5.8,1.1S5.6,0.8,5.4,0.8c-0.2,0-0.5,0-0.7,0.1C4.5,1,4.3,1.2,4.1,1.4
			C3.9,1.6,3.6,1.8,3.3,1.9C3,2,2.6,1.9,2.3,1.6C1.9,1.2,1.7,0.6,1.8,0l0,0c0.3,0.5,0.6,0.9,0.9,1.2C2.9,1.3,3,1.4,3.2,1.4
			c0.2,0,0.4-0.1,0.7-0.2c0.2-0.1,0.5-0.3,0.7-0.4C4.8,0.6,5,0.4,5.4,0.3c0.2,0,0.4,0,0.5,0.2c0.2,0.1,0.2,0.3,0.3,0.4
			C6.3,1.2,6.3,1.5,6.2,1.8z"/>
		<path class="st1" d="M13.5,1.8L13.5,1.8c-0.2-0.2-0.2-0.3-0.3-0.5C13,1.2,13,1.2,12.9,1.1c-0.1,0-0.3,0-0.5,0
			c-0.2,0.1-0.3,0.2-0.4,0.4c-0.1,0.2-0.3,0.3-0.6,0.4c-0.2,0.1-0.5,0-0.7-0.2c-0.4-0.4-0.4-0.8-0.4-1.2l0,0
			c0.2,0.3,0.5,0.6,0.7,0.8c0.1,0.1,0.2,0.1,0.3,0.1c0.1,0,0.3,0,0.5-0.1C12,1.3,12.2,1.2,12.3,1c0.2-0.1,0.3-0.3,0.6-0.3
			c0.1,0,0.3,0,0.4,0.1c0.1,0.1,0.2,0.2,0.2,0.3C13.6,1.4,13.5,1.6,13.5,1.8z"/>
	</g>
</g>
<rect x="1.3" y="14" class="st1" width="18.8" height="1"/>
<polygon class="st1" points="14.3,8.3 14.3,8.9 11.7,10 11.7,9.2 "/>
<line class="st2" x1="11.7" y1="10.2" x2="11.7" y2="10"/>
<polygon class="st1" points="7.1,8.3 7.1,8.9 4.5,9.9 4.5,9.2 "/>
<line class="st2" x1="7.1" y1="8.9" x2="7.1" y2="8.9"/>
</svg>
