<?xml version="1.0" encoding="utf-8"?>
<!-- Generator: Adobe Illustrator 21.0.2, SVG Export Plug-In . SVG Version: 6.00 Build 0)  -->
<svg version="1.1" id="Capa_1" xmlns="http://www.w3.org/2000/svg" xmlns:xlink="http://www.w3.org/1999/xlink" x="0px" y="0px"
	 viewBox="0 0 55 55" style="enable-background:new 0 0 55 55;" xml:space="preserve">
<style type="text/css">
	.st0{fill:#7D7D7D;}
	.st1{fill:#A5A5A4;}
	.st2{fill:#878786;}
</style>
<g>
	<path class="st0" d="M26.4,45.3l-17-17l0.5-7c0-0.5,0.7-0.6,0.9-0.1l1.4,4.3l17,17l3.6,0.9c0.5,0.1,0.4,0.8,0,0.9L26.4,45.3z"/>
	<path class="st0" d="M7.7,55H1.3C0.6,55,0,54.4,0,53.7v-6.5C0,46.6,0.6,46,1.3,46h6.5C8.4,46,9,46.6,9,47.3v6.5
		C9,54.4,8.4,55,7.7,55z"/>
	<path class="st1" d="M7.7,46C8.4,46,9,46.6,9,47.3v2.6l11-11l-4.2-4.2L4.4,46H7.7z"/>
	<path class="st1" d="M55,1.4v5.7L24.2,37.5l-7.1-7.1L47.6,0h6L23.3,30.3c-0.4,0.4-0.4,1,0,1.4c0.2,0.2,0.5,0.3,0.7,0.3
		s0.5-0.1,0.7-0.3L55,1.4z"/>
</g>
<path class="st2" d="M55,1.4L24.7,31.7C24.5,31.9,24.3,32,24,32s-0.5-0.1-0.7-0.3c-0.4-0.4-0.4-1,0-1.4L53.6,0L55,1.4z"/>
<polygon class="st2" points="55,0 55,1.4 53.6,0 "/>
</svg>
