<?xml version="1.0" encoding="utf-8"?>
<!-- Generator: Adobe Illustrator 21.0.2, SVG Export Plug-In . SVG Version: 6.00 Build 0)  -->
<svg version="1.1" id="Capa_1" xmlns="http://www.w3.org/2000/svg" xmlns:xlink="http://www.w3.org/1999/xlink" x="0px" y="0px"
	 viewBox="0 0 512 512" style="enable-background:new 0 0 512 512;" xml:space="preserve">
<style type="text/css">
	.st0{fill:#C7C5C4;}
	.st1{fill:#A8A7A7;}
</style>
<g>
	<g>
		<path class="st0" d="M477.4,54.4C466.9,20.9,439.3,0,405.4,0H106.6c-33.9,0-61.5,20.9-72,54.4c-14.6,46.5,10.9,100.1,57,107.8V180
			c0,19.5,12.5,36.2,30,42.4v202.2c-17.5,6.2-30,22.9-30,42.4v30c0,8.3,6.7,15,15,15h300c8.3,0,15-6.7,15-15v-30
			c0-19.6-12.5-36.2-30-42.4V222.4c17.5-6.2,30-22.9,30-42.4v-18C467,153.6,491.9,100.5,477.4,54.4z M391.6,482h-270v-15
			c0-8.3,6.7-15,15-15h240c8.3,0,15,6.7,15,15V482z M316.6,255c-8.3,0-15,6.7-15,15v152h-30V270c0-8.3-6.7-15-15-15
			c-8.3,0-15,6.7-15,15v152h-30V270c0-8.3-6.7-15-15-15c-8.3,0-15,6.7-15,15v152h-30V225h210v197h-30V270
			C331.6,261.7,324.9,255,316.6,255z M391.6,180c0,8.3-6.7,15-15,15h-240c-8.3,0-15-6.7-15-15v-15h270V180z M158,135
			c6.4-8.8,10.7-19.2,11.4-30h173.3c0.7,10.8,5,21.2,11.4,30H158z M409,133.2c-26.5,0-45.3-28.9-32.1-41.3c2.7-2.6,9.2-4.4,14.1-2.9
			c2.8,0.8,4.3,2.5,5,5.7c1.9,8.1,10,13.1,18,11.2c8.1-1.9,13.1-10,11.2-18c-3.2-13.6-12.5-23.6-25.6-27.5
			c-14.7-4.4-32.5-0.4-43.3,9.8c-1.7,1.6-3.2,3.2-4.6,5H160.2c-1.4-1.8-2.9-3.4-4.6-5c-20-18.9-61-15.9-68.9,17.7
			c-1.9,8.1,3.1,16.1,11.2,18c8.1,1.9,16.1-3.1,18-11.2c0.8-3.2,2.2-4.8,5-5.7c5-1.5,11.4,0.3,14.1,2.9
			c13.1,12.4-5.7,41.3-32.1,41.3c-32,0-49.5-38.6-39.8-69.7C69.8,42.5,86,30,106.6,30h298.8c20.6,0,36.8,12.5,43.4,33.4
			C458.8,95.3,440.5,133.2,409,133.2z"/>
		<path class="st1" d="M391.6,467v15h-270v-15c0-8.3,6.7-15,15-15h240C384.9,452,391.6,458.7,391.6,467z"/>
		<path class="st1" d="M361.6,225v197h-30V270c0-8.3-6.7-15-15-15c-8.3,0-15,6.7-15,15v152h-30V270c0-8.3-6.7-15-15-15
			c-8.3,0-15,6.7-15,15v152h-30V270c0-8.3-6.7-15-15-15c-8.3,0-15,6.7-15,15v152h-30V225H361.6z"/>
		<path class="st1" d="M391.6,165v15c0,8.3-6.7,15-15,15h-240c-8.3,0-15-6.7-15-15v-15H391.6z"/>
		<path class="st1" d="M354,135H158c6.4-8.8,10.7-19.2,11.4-30h173.3C343.3,115.8,347.6,126.2,354,135z"/>
		<path class="st1" d="M409,133.2c-26.5,0-45.3-28.9-32.1-41.3c2.7-2.6,9.2-4.4,14.1-2.9c2.8,0.8,4.3,2.5,5,5.7
			c1.9,8.1,10,13.1,18,11.2c8.1-1.9,13.1-10,11.2-18c-3.2-13.6-12.5-23.6-25.6-27.5c-14.7-4.4-32.5-0.4-43.3,9.8
			c-1.7,1.6-3.2,3.2-4.6,5H160.2c-1.4-1.8-2.9-3.4-4.6-5c-20-18.9-61-15.9-68.9,17.7c-1.9,8.1,3.1,16.1,11.2,18
			c8.1,1.9,16.1-3.1,18-11.2c0.8-3.2,2.2-4.8,5-5.7c5-1.5,11.4,0.3,14.1,2.9c13.1,12.4-5.7,41.3-32.1,41.3
			c-32,0-49.5-38.6-39.8-69.7C69.8,42.5,86,30,106.6,30h298.8c20.6,0,36.8,12.5,43.4,33.4C458.8,95.3,440.5,133.2,409,133.2z"/>
	</g>
</g>
</svg>
