<?xml version="1.0" encoding="utf-8"?>
<!-- Generator: Adobe Illustrator 21.0.2, SVG Export Plug-In . SVG Version: 6.00 Build 0)  -->
<svg version="1.1" id="Layer_1" xmlns="http://www.w3.org/2000/svg" xmlns:xlink="http://www.w3.org/1999/xlink" x="0px" y="0px"
	 viewBox="0 0 504.1 504.1" style="enable-background:new 0 0 504.1 504.1;" xml:space="preserve">
<style type="text/css">
	.st0{fill:#999999;}
	.st1{fill:#898989;}
	.st2{fill:#EDEDED;}
	.st3{fill:#FFFFFF;}
	.st4{fill:#CCD0D2;}
	.st5{fill:#E1E1E1;}
	.st6{fill:#C1A7B3;}
	.st7{fill:#CECDCB;}
	.st8{fill:#C3C3C1;}
</style>
<path class="st0" d="M393.8,472.6c0,17.3-14.2,31.5-31.5,31.5H141.8c-17.3,0-31.5-14.2-31.5-31.5V212.7h283.6L393.8,472.6
	L393.8,472.6z"/>
<path class="st1" d="M110.3,228.4v244.2c0,17.3,14.2,31.5,31.5,31.5h110.3V228.4H110.3z"/>
<path class="st2" d="M195.7,0h112.6c12.2,0,22.4,10.2,22.4,22.4v112.6c0,12.6-10.2,22.4-22.4,22.4H195.7
	c-12.6,0-22.4-10.2-22.4-22.4V22.4C173.3,10.2,183.5,0,195.7,0z"/>
<path class="st3" d="M235.1,39.4H269c12.6,0,22.4,10.2,22.4,22.8v68.5c0,12.6-10.2,22.8-22.4,22.8h-33.9
	c-12.6,0-22.4-10.2-22.4-22.8V62.2C212.7,49.6,222.9,39.4,235.1,39.4z"/>
<path class="st4" d="M252.1,55.1c6.7,0,11.8,5.1,11.8,11.8s-5.1,11.8-11.8,11.8s-11.8-5.1-11.8-11.8
	C240.2,60.7,245.4,55.1,252.1,55.1z"/>
<path class="st2" d="M223.7,98.5h56.7c62.6,0,113.4,51.2,113.4,114.2H110.3C110.3,149.7,161.1,98.5,223.7,98.5z"/>
<path class="st5" d="M252.1,98.5h-28.4c-62.6,0-113.4,51.2-113.4,114.2h141.8L252.1,98.5L252.1,98.5z"/>
<path class="st6" d="M278.4,307.2c0,0-7.5,8.7-14.6,19.3c11.4,15.8,22.4,33.9,22.4,46.1c0,4.7-0.8,9.1-2,13.4
	c13-2.8,22.8-15,22.8-29.1C307.2,340.3,278.4,307.2,278.4,307.2z M200.9,371.4c0,21.3,16.9,38.6,37.4,38.6
	c20.9,0,37.4-17.3,37.4-38.6s-37.4-64.2-37.4-64.2S200.9,350.1,200.9,371.4z"/>
<path class="st7" d="M394.2,204.8H109.9c-6.3,0-11.4,5.1-11.4,11.8s5.1,11.8,11.4,11.8h284.4c6.3,0,11.4-5.1,11.4-11.8
	S400.5,204.8,394.2,204.8z M165,122.1h173.7c6.3,0,11.4-5.1,11.4-11.8s-5.1-11.8-11.4-11.8H165c-6.3,0-11.4,5.1-11.4,11.8
	S158.7,122.1,165,122.1z"/>
<path class="st8" d="M165,122.1h87V98.5h-87c-6.3,0-11.4,5.1-11.4,11.8S158.7,122.1,165,122.1z M109.5,228.4h142.6v-23.6H109.9
	c-6.3,0-11.4,5.1-11.4,11.8C98.5,222.9,103.6,228.4,109.5,228.4z"/>
</svg>
