<?xml version="1.0" encoding="utf-8"?>
<!-- Generator: Adobe Illustrator 21.0.2, SVG Export Plug-In . SVG Version: 6.00 Build 0)  -->
<svg version="1.1" id="Capa_1" xmlns="http://www.w3.org/2000/svg" xmlns:xlink="http://www.w3.org/1999/xlink" x="0px" y="0px"
	 viewBox="0 0 464.1 464.1" style="enable-background:new 0 0 464.1 464.1;" xml:space="preserve">
<style type="text/css">
	.st0{fill:#9B9A9A;}
	.st1{fill:#A8A7A7;}
	.st2{fill:#C7C5C4;}
	.st3{fill:#666564;}
</style>
<path class="st0" d="M401.8,133.4c3,0,5.5-2.5,5.5-5.5V119h21.8c3,0,5.5-2.5,5.5-5.5v-10.7h23.9c3,0,5.5-2.5,5.5-5.5V76
	c0-3-2.5-5.5-5.5-5.5h-23.9V59.8c0-3-2.5-5.5-5.5-5.5h-21.8v-8.9c0-3-2.5-5.5-5.5-5.5H62.2c-3,0-5.5,2.5-5.5,5.5v8.9H34.9
	c-3,0-5.5,2.5-5.5,5.5v10.7H5.5c-3,0-5.5,2.5-5.5,5.5v21.3c0,3,2.5,5.5,5.5,5.5h23.9v10.7c0,3,2.5,5.5,5.5,5.5h21.8v8.9
	c0,3,2.5,5.5,5.5,5.5h3.2v197.3h-3.2c-3,0-5.5,2.5-5.5,5.5v8.9H34.9c-3,0-5.5,2.5-5.5,5.5v10.7H5.5c-3,0-5.5,2.5-5.5,5.5v21.3
	c0,3,2.5,5.5,5.5,5.5h23.9v10.7c0,3,2.5,5.5,5.5,5.5h21.8v8.9c0,3,2.5,5.5,5.5,5.5h339.6c3,0,5.5-2.5,5.5-5.5v-8.9h21.8
	c3,0,5.5-2.5,5.5-5.5v-10.7h23.9c3,0,5.5-2.5,5.5-5.5v-21.3c0-3-2.5-5.5-5.5-5.5h-23.9v-10.7c0-3-2.5-5.5-5.5-5.5h-21.8v-8.9
	c0-3-2.5-5.5-5.5-5.5h-3.2V133.4H401.8z M434.7,81.5h18.4v10.3h-18.4V81.5z M407.3,65.2h16.3V108h-16.3V65.2z M29.4,91.8H11V81.5
	h18.4V91.8z M56.7,108H40.4V65.2h16.3V108z M29.4,382.6H11v-10.3h18.4V382.6z M56.7,398.8H40.4V356h16.3V398.8z M434.7,372.3h18.4
	v10.3h-18.4V372.3z M407.3,356h16.3v42.8h-16.3V356z M396.3,413.2H67.7v-71.5h328.6V413.2z M76.5,330.7V133.4h311.1v197.3H76.5z
	 M396.3,122.4H67.7V50.9h328.6V122.4z"/>
<rect x="11" y="372.3" class="st1" width="18.4" height="10.3"/>
<rect x="40.4" y="356" class="st1" width="16.3" height="42.8"/>
<rect x="434.7" y="372.3" class="st1" width="18.4" height="10.3"/>
<rect x="407.3" y="356" class="st1" width="16.3" height="42.8"/>
<rect x="434.7" y="81.5" class="st1" width="18.4" height="10.3"/>
<rect x="407.3" y="65.2" class="st1" width="16.3" height="42.8"/>
<rect x="11" y="81.5" class="st1" width="18.4" height="10.3"/>
<rect x="40.4" y="65.2" class="st1" width="16.3" height="42.8"/>
<rect x="76.5" y="133.4" class="st2" width="311.1" height="197.3"/>
<rect x="67.7" y="50.9" class="st2" width="328.6" height="71.5"/>
<rect x="67.7" y="341.7" class="st2" width="328.6" height="71.5"/>
<path class="st3" d="M156.1,166.4h100c3,0,5.5-2.5,5.5-5.5s-2.5-5.5-5.5-5.5h-100c-3,0-5.5,2.5-5.5,5.5S153.1,166.4,156.1,166.4z"/>
<path class="st3" d="M280.6,166.4h72.9c3,0,5.5-2.5,5.5-5.5s-2.5-5.5-5.5-5.5h-72.9c-3,0-5.5,2.5-5.5,5.5S277.6,166.4,280.6,166.4z"
	/>
<path class="st3" d="M110.5,166.4h21.1c3,0,5.5-2.5,5.5-5.5s-2.5-5.5-5.5-5.5h-21.1c-3,0-5.5,2.5-5.5,5.5S107.5,166.4,110.5,166.4z"
	/>
<path class="st3" d="M353.5,179.1H210.6c-3,0-5.5,2.5-5.5,5.5s2.5,5.5,5.5,5.5h142.9c3,0,5.5-2.5,5.5-5.5S356.6,179.1,353.5,179.1z"
	/>
<path class="st3" d="M110.5,190.1h75.6c3,0,5.5-2.5,5.5-5.5s-2.5-5.5-5.5-5.5h-75.6c-3,0-5.5,2.5-5.5,5.5S107.5,190.1,110.5,190.1z"
	/>
<path class="st3" d="M353.5,202.9h-96.9c-3,0-5.5,2.5-5.5,5.5s2.5,5.5,5.5,5.5h96.9c3,0,5.5-2.5,5.5-5.5S356.6,202.9,353.5,202.9z"
	/>
<path class="st3" d="M110.5,213.9h121.6c3,0,5.5-2.5,5.5-5.5s-2.5-5.5-5.5-5.5H110.5c-3,0-5.5,2.5-5.5,5.5S107.5,213.9,110.5,213.9z
	"/>
<path class="st3" d="M308.6,232.1c0-3-2.5-5.5-5.5-5.5H179.6c-3,0-5.5,2.5-5.5,5.5s2.5,5.5,5.5,5.5h123.5
	C306.2,237.6,308.6,235.2,308.6,232.1z"/>
<path class="st3" d="M353.5,226.6h-25.9c-3,0-5.5,2.5-5.5,5.5s2.5,5.5,5.5,5.5h25.9c3,0,5.5-2.5,5.5-5.5S356.6,226.6,353.5,226.6z"
	/>
<path class="st3" d="M110.5,237.6h44.6c3,0,5.5-2.5,5.5-5.5s-2.5-5.5-5.5-5.5h-44.6c-3,0-5.5,2.5-5.5,5.5S107.5,237.6,110.5,237.6z"
	/>
<path class="st3" d="M353.5,250.4h-87.4c-3,0-5.5,2.5-5.5,5.5c0,3,2.5,5.5,5.5,5.5h87.4c3,0,5.5-2.5,5.5-5.5
	S356.6,250.4,353.5,250.4z"/>
<path class="st3" d="M110.5,261.4h131.1c3,0,5.5-2.5,5.5-5.5s-2.5-5.5-5.5-5.5H110.5c-3,0-5.5,2.5-5.5,5.5S107.5,261.4,110.5,261.4z
	"/>
<path class="st3" d="M353.5,274.1H160.6c-3,0-5.5,2.5-5.5,5.5s2.5,5.5,5.5,5.5h192.9c3,0,5.5-2.5,5.5-5.5S356.6,274.1,353.5,274.1z"
	/>
<path class="st3" d="M110.5,285.1h25.6c3,0,5.5-2.5,5.5-5.5s-2.5-5.5-5.5-5.5h-25.6c-3,0-5.5,2.5-5.5,5.5S107.5,285.1,110.5,285.1z"
	/>
<path class="st3" d="M353.5,297.9h-42.4c-3,0-5.5,2.5-5.5,5.5s2.5,5.5,5.5,5.5h42.4c3,0,5.5-2.5,5.5-5.5S356.6,297.9,353.5,297.9z"
	/>
<path class="st3" d="M110.5,308.9h176.1c3,0,5.5-2.5,5.5-5.5s-2.5-5.5-5.5-5.5H110.5c-3,0-5.5,2.5-5.5,5.5S107.5,308.9,110.5,308.9z
	"/>
<path class="st3" d="M368.8,68.5H384c3,0,5.5-2.5,5.5-5.5s-2.5-5.5-5.5-5.5h-15.2c-3,0-5.5,2.5-5.5,5.5S365.8,68.5,368.8,68.5z"/>
<path class="st3" d="M223,68.5h120.8c3,0,5.5-2.5,5.5-5.5s-2.5-5.5-5.5-5.5H223c-3,0-5.5,2.5-5.5,5.5S220,68.5,223,68.5z"/>
<path class="st3" d="M241,395.5h-11.2c-3,0-5.5,2.5-5.5,5.5s2.5,5.5,5.5,5.5H241c3,0,5.5-2.5,5.5-5.5S244.1,395.5,241,395.5z"/>
<path class="st3" d="M208.8,395.5H80c-3,0-5.5,2.5-5.5,5.5s2.5,5.5,5.5,5.5h128.8c3,0,5.5-2.5,5.5-5.5S211.9,395.5,208.8,395.5z"/>
</svg>
