<?xml version="1.0" encoding="utf-8"?>
<!-- Generator: Adobe Illustrator 21.0.2, SVG Export Plug-In . SVG Version: 6.00 Build 0)  -->
<svg version="1.1" id="Capa_1" xmlns="http://www.w3.org/2000/svg" xmlns:xlink="http://www.w3.org/1999/xlink" x="0px" y="0px"
	 viewBox="0 0 512 512" style="enable-background:new 0 0 512 512;" xml:space="preserve">
<style type="text/css">
	.st0{fill:none;}
	.st1{fill:#5E5C5C;}
	.st2{fill:#7C7B7B;}
	.st3{fill:#938F8F;}
	.st4{fill:#ADACAC;}
	.st5{fill:#C7C5C4;}
</style>
<path class="st0" d="M445.2,445.2H66.8v0L445.2,445.2L445.2,445.2z M66.8,262.3v127.7V262.3L66.8,262.3z"/>
<path class="st0" d="M66.8,262.3v127.7V262.3L66.8,262.3z M445.2,445.2H66.8v0L445.2,445.2L445.2,445.2z"/>
<path class="st0" d="M445.2,445.2H66.8v0L445.2,445.2L445.2,445.2z M66.8,262.3v127.7V262.3L66.8,262.3z"/>
<path class="st0" d="M66.8,262.3v127.7V262.3L66.8,262.3z"/>
<path class="st0" d="M66.8,336.7c19.8-0.9,41.4-1.3,63.9-1.3c97.8,0,177.1,8.9,177.1,19.8c0,9.3-56.9,17-133.9,19.2"/>
<path class="st0" d="M66.8,373.6c19.8,0.9,41.4,1.3,63.9,1.3c7.8,0,15.4-0.1,22.9-0.2"/>
<path class="st0" d="M445.2,445.2H66.8v0L445.2,445.2L445.2,445.2z M66.8,262.3v127.7V262.3L66.8,262.3z"/>
<path class="st1" d="M504.4,0H7.6C3.4,0,0,3.4,0,7.6v496.8c0,4.2,3.4,7.6,7.6,7.6h496.8c4.2,0,7.6-3.4,7.6-7.6V7.6
	C512,3.4,508.6,0,504.4,0z M504.4,504.4H7.6V7.6h496.8V504.4z"/>
<path class="st2" d="M7.6,7.6L36,36h440v153c2.1,0,4-0.8,5.4-2.2c1.4-1.4,2.2-3.3,2.2-5.4V39.2L496.8,26V486l-13.2-13.2v-256
	c0-4.2-3.4-7.6-7.6-7.6V476l28.4,28.4V7.6H7.6z M472.8,28.4H39.2L26,15.2H486L472.8,28.4z"/>
<path class="st2" d="M476,189V36H36l30.7,30.7h378.5v378.5L476,476V209.3c-2.1,0-4,0.8-5.4,2.2c-1.4,1.4-2.2,3.3-2.2,5.4v240.8
	l-15.5-15.5V69.9l15.5-15.5v127C468.4,185.6,471.8,189,476,189z M442.1,59.2H69.9L54.4,43.6h403.2L442.1,59.2z"/>
<path class="st2" d="M445.2,445.2H66.8V66.8L36,36v440h440L445.2,445.2z M43.6,54.4l15.5,15.5v372.2l-15.5,15.5V54.4z M69.9,452.8
	h372.2l15.5,15.5H54.4L69.9,452.8z"/>
<path class="st2" d="M476,476H36V36L7.6,7.6v496.8h496.8L476,476z M15.2,26l13.2,13.2v433.7L15.2,486V26z M39.2,483.6h433.7
	l13.2,13.2H26L39.2,483.6z"/>
<polygon class="st1" points="486,496.8 26,496.8 39.2,483.6 472.8,483.6 "/>
<polygon class="st1" points="457.6,468.4 54.4,468.4 69.9,452.8 442.1,452.8 "/>
<polygon class="st1" points="28.4,39.2 28.4,472.8 15.2,486 15.2,26 "/>
<polygon class="st1" points="59.2,69.9 59.2,442.1 43.6,457.6 43.6,54.4 "/>
<path class="st1" d="M496.8,26V486l-13.2-13.2v-256c0-4.2-3.4-7.6-7.6-7.6V189c2.1,0,4-0.8,5.4-2.2c1.4-1.4,2.2-3.3,2.2-5.4V39.2
	L496.8,26z"/>
<path class="st1" d="M476,189v20.3c-2.1,0-4,0.8-5.4,2.2c-1.4,1.4-2.2,3.3-2.2,5.4v240.8l-15.5-15.5V69.9l15.5-15.5v127
	C468.4,185.6,471.8,189,476,189z"/>
<polygon class="st1" points="457.6,43.6 442.1,59.2 69.9,59.2 54.4,43.6 "/>
<polygon class="st1" points="486,15.2 472.8,28.4 39.2,28.4 26,15.2 "/>
<path class="st3" d="M243,243c-1.3-0.1-2.5-0.2-3.8-0.2c-6.6,0-13,1.6-18.7,4.7c-13.2-20-35.3-32.1-59.7-32.1
	c-28,0-53.4,16.5-65,41.6c-7.5-1.1-14.7-1.8-21.5-2.1v-69.1c5-2.2,10.4-3.3,15.9-3.3c10.4,0,20.4,4,27.9,11.2c1.6,1.5,3.8,2.3,6,2.1
	c2.2-0.2,4.2-1.4,5.5-3.2c4.5-6.5,12-10.4,19.9-10.4c10.9,0,20.6,7.3,23.5,17.9c0.7,2.6,2.8,4.7,5.5,5.3c2.7,0.7,5.5-0.1,7.4-2.1
	c2.9-3.1,6.3-5.6,9.9-7.6L243,243z"/>
<path class="st3" d="M437.6,192.1v61.5c-5.1-1.5-10.5-2.3-15.9-2.3c-22.2,0-42,13.3-50.8,33.1c-6.6-1.4-13.6-1.2-20.1,0.8
	c-5.9-24.4-27.8-42.2-53.9-42.2c-11.4,0-22.3,3.5-31.6,9.9c-6.2-5.5-14-8.9-22.3-9.7l-47.3-47.3c5.8-3.2,12.4-4.9,19.3-4.9
	c17.7,0,33.6,11.9,38.6,28.8c0.6,2,2.1,3.8,4,4.7c1.9,0.9,4.1,1,6.1,0.2c2.9-1.1,5.9-1.7,9-1.7c5,0,9.8,1.5,13.9,4.3
	c1.3,0.9,2.8,1.4,4.3,1.4c0.8,0,1.6-0.1,2.3-0.4c2.3-0.7,4-2.4,4.8-4.7c8-22.3,29.3-37.3,53-37.3c17.9,0,35,8.7,45.5,23.2
	c1.7,2.3,4.4,3.5,7.2,3c2.8-0.4,5.1-2.3,6.1-4.9c3.5-9.5,12.7-15.9,22.8-15.9C434.4,191.6,436.1,191.8,437.6,192.1z"/>
<path class="st4" d="M190.2,190.2c-3.6,2.2-6.9,4.9-9.8,7.9c-3.7-13.5-16.1-23.4-30.8-23.4c-10.8,0-20.4,5.4-26.1,13.6
	c-8.6-8.3-20.3-13.4-33.2-13.4c-8.5,0-16.6,2.2-23.5,6.2v81.3h0V66.8l7.6,7.6v95.3c5.1-1.5,10.5-2.3,15.9-2.3
	c11.7,0,23,3.7,32.3,10.4c7.2-6.8,16.9-10.6,27-10.6c13.9,0,26.5,7.3,33.6,18.6c0.5-0.4,1-0.7,1.5-1L190.2,190.2z"/>
<path class="st4" d="M445.2,66.8v378.5l0,0V186.5c-3.8-1.6-8-2.5-12.4-2.5c-13.8,0-25.5,8.7-30,20.9c-11.6-15.9-30.4-26.3-51.7-26.3
	c-27.7,0-51.3,17.7-60.2,42.3c-5.2-3.6-11.4-5.7-18.2-5.7c-4.2,0-8.2,0.8-11.8,2.3c-5.9-19.8-24.2-34.2-45.9-34.2
	c-9.1,0-17.6,2.5-24.8,7l-5.5-5.5c8.9-5.9,19.4-9,30.4-9c21.8,0,41.7,13.1,50.6,32.6c2.4-0.4,4.8-0.7,7.2-0.7c5,0,9.9,0.9,14.5,2.7
	c12-23.8,36.7-39.4,63.9-39.4c18.9,0,37.1,7.6,50.4,20.8c7.4-9.5,18.9-15.4,31.3-15.4c1.6,0,3.2,0.1,4.8,0.3V74.4H74.4l-7.6-7.6
	H445.2z"/>
<path class="st4" d="M317.7,317.7c-104.2-19.9-193.5-55.3-250.9-55.3v-81.3c6.9-3.9,15-6.2,23.5-6.2c12.9,0,24.6,5.1,33.2,13.4
	c5.8-8.2,15.3-13.6,26.1-13.6c14.7,0,27.1,9.9,30.8,23.4c2.9-3,6.2-5.7,9.8-7.9l5.5,5.5c-3.6,2-6.9,4.5-9.9,7.6
	c-1.9,2-4.7,2.8-7.4,2.1c-2.7-0.7-4.7-2.7-5.5-5.3c-2.9-10.5-12.5-17.9-23.5-17.9c-7.9,0-15.4,3.9-19.9,10.4c-1.3,1.8-3.3,3-5.5,3.2
	c-2.2,0.2-4.4-0.6-6-2.1c-7.5-7.2-17.5-11.2-27.9-11.2c-5.5,0-10.9,1.1-15.9,3.3v69.1c6.8,0.3,14,1.1,21.5,2.1
	c11.6-25.1,36.9-41.6,65-41.6c24.4,0,46.5,12.1,59.7,32.1c5.7-3.1,12.1-4.7,18.7-4.7c1.3,0,2.6,0.1,3.8,0.2l26.1,26.1
	c-1.5,1.1-3.3,1.6-5.2,1.5c-2.1-0.2-4.1-1.3-5.4-3c-4.7-6.1-11.7-9.6-19.4-9.6c-5.9,0-11.7,2.2-16.1,6.1c-1.8,1.6-4.2,2.2-6.5,1.8
	c-2.3-0.4-4.3-1.9-5.4-4.1c-9.6-19.2-28.9-31.2-50.4-31.2c-20.6,0-39.4,11.3-49.3,29c25.3,4.8,54,12.5,85.3,21
	c33.6,9.1,71.1,19.2,111.1,27.3L317.7,317.7z"/>
<path class="st4" d="M445.2,186.5v144.2c-44.1,0-87-5.4-127.5-13.1L308,308c41.1,8.3,84.9,14.5,129.7,15.1v-53.4
	c-5-2.1-10.4-3.3-15.9-3.3c-18,0-34,12.1-38.8,29.5c-0.6,2.1-2.1,3.9-4.1,4.9c-2,0.9-4.3,1-6.3,0c-3.2-1.4-6.5-2.2-10-2.2
	c-4.8,0-9.4,1.4-13.4,4c-1.3,0.8-2.7,1.3-4.2,1.3c-1.2,0-2.4-0.3-3.5-0.8c-2.4-1.2-4-3.7-4.1-6.5c-0.9-21.6-18.6-38.5-40.2-38.5
	c-10.1,0-19.8,3.8-27.2,10.6c-0.2,0.2-0.4,0.3-0.6,0.5L243,243c8.4,0.8,16.1,4.2,22.3,9.7c9.2-6.4,20.2-9.9,31.6-9.9
	c26.1,0,48,17.8,53.9,42.2c6.4-2,13.5-2.2,20.1-0.8c8.8-19.8,28.6-33.1,50.8-33.1c5.4,0,10.8,0.8,15.9,2.3v-61.5
	c-1.6-0.3-3.2-0.5-4.8-0.5c-10.1,0-19.3,6.4-22.8,15.9c-1,2.6-3.3,4.5-6.1,4.9c-2.8,0.4-5.5-0.8-7.2-3
	c-10.6-14.5-27.6-23.2-45.5-23.2c-23.7,0-45,15-53,37.3c-0.8,2.2-2.6,4-4.8,4.7c-0.8,0.2-1.5,0.4-2.3,0.4c-1.5,0-3-0.5-4.3-1.4
	c-4.1-2.8-8.9-4.3-13.9-4.3c-3.1,0-6.1,0.6-9,1.7c-2,0.8-4.2,0.7-6.1-0.2c-1.9-0.9-3.4-2.6-4-4.7c-5-17-20.9-28.8-38.6-28.8
	c-6.9,0-13.4,1.7-19.3,4.9l-5.5-5.5c7.2-4.4,15.7-7,24.8-7c21.7,0,40,14.4,45.9,34.2c3.6-1.5,7.6-2.3,11.8-2.3
	c6.8,0,13,2.1,18.2,5.7c8.9-24.7,32.5-42.3,60.2-42.3c21.3,0,40.1,10.4,51.7,26.3c4.5-12.2,16.2-20.9,30-20.9
	C437.2,184,441.4,184.9,445.2,186.5z"/>
<path class="st4" d="M437.6,269.7v53.4c-44.8-0.6-88.5-6.8-129.7-15.1l-38.8-38.8c0.2-0.2,0.4-0.3,0.6-0.5
	c7.5-6.8,17.1-10.6,27.2-10.6c21.6,0,39.3,16.9,40.2,38.5c0.1,2.7,1.7,5.2,4.1,6.5c1.1,0.5,2.3,0.8,3.5,0.8c1.5,0,2.9-0.4,4.2-1.3
	c4-2.6,8.6-4,13.4-4c3.5,0,6.9,0.7,10,2.2c2,0.9,4.3,0.9,6.3,0c2-0.9,3.5-2.7,4.1-4.9c4.8-17.3,20.8-29.5,38.8-29.5
	C427.2,266.5,432.6,267.6,437.6,269.7z"/>
<path class="st4" d="M308,308c-40-8.1-77.5-18.2-111.1-27.3c-31.3-8.5-59.9-16.2-85.3-21c9.8-17.6,28.6-29,49.3-29
	c21.5,0,40.8,11.9,50.4,31.2c1.1,2.1,3,3.6,5.4,4.1c2.3,0.5,4.7-0.2,6.5-1.8c4.4-4,10.2-6.1,16.1-6.1c7.7,0,14.7,3.5,19.4,9.6
	c1.3,1.7,3.2,2.8,5.4,3c1.9,0.2,3.7-0.4,5.2-1.5L308,308z"/>
<polygon class="st5" points="445.2,445.2 66.8,445.2 66.8,390.1 74.4,389.6 74.4,437.6 437.6,437.6 "/>
<polygon class="st5" points="445.2,365.8 445.2,445.2 437.6,437.6 437.6,366.2 "/>
<path class="st5" d="M445.2,330.8v35l-7.6,0.5v-27.9c-38-0.5-75.1-4.9-110.5-11.2l-9.4-9.4C358.2,325.4,401.1,330.8,445.2,330.8z"/>
<path class="st5" d="M315.3,355.1c0,10-11.7,15.1-44.6,19.8c-22.8,3.2-54.2,5.6-89,6.8h-0.3c-4.1,0-7.5-3.2-7.6-7.4v0
	c-0.1-4.2,3.2-7.7,7.4-7.8c61-2,96.9-7.1,112.1-11.3c-7.3-2-20.9-4.8-46-7.3c-32.2-3.2-73.6-4.9-116.7-4.9c-19.4,0-38.3,0.3-56.3,1
	v22.3c18.1,0.7,37,1,56.3,1c5,0,10.1,0,15.3-0.1c4.2,0,7.6,3.3,7.7,7.5v0c0,0,0,0,0,0c0.1,4.2-3.3,7.7-7.5,7.7
	c-5.2,0.1-10.3,0.1-15.4,0.1c-19.3,0-38.2-0.3-56.3-1v8.1l-7.6,0.5l0-127.7c57.4,0,146.7,35.5,250.9,55.3l9.4,9.4
	c-48.7-8.7-94.2-21-134.2-31.8c-46.5-12.6-87.2-23.6-118.5-25.2v58.6c18-0.7,36.9-1,56.3-1c47.6,0,92.3,2.1,126,5.8
	c16.6,1.9,29.8,4,39.1,6.5C302.1,341.8,315.3,345.2,315.3,355.1z"/>
<path class="st5" d="M293.3,355.2c-15.2,4.2-51.1,9.3-112.1,11.3c-4.2,0.1-7.5,3.6-7.4,7.8v0c-6.6,0.2-13.4,0.3-20.3,0.4
	c0,0,0,0,0,0v0c-0.1-4.2-3.5-7.5-7.7-7.5c-5.1,0-10.2,0.1-15.3,0.1c-19.3,0-38.2-0.3-56.3-1V344c18-0.7,36.9-1,56.3-1
	c43.1,0,84.5,1.8,116.7,4.9C272.4,350.4,286,353.1,293.3,355.2z"/>
<path class="st5" d="M370.6,370.6l-296.2,19v-8.1c18.1,0.7,37,1,56.3,1c5.1,0,10.2,0,15.4-0.1c4.2,0,7.6-3.5,7.5-7.7
	c6.9-0.1,13.7-0.2,20.3-0.4c0.1,4.1,3.5,7.4,7.6,7.4h0.3c34.8-1.2,66.2-3.5,89-6.8c33-4.6,44.6-9.8,44.6-19.8
	c0-9.9-13.2-13.4-19.6-15c-9.3-2.5-22.4-4.6-39.1-6.5c-33.7-3.8-78.5-5.8-126-5.8c-19.4,0-38.3,0.3-56.3,1v-58.6
	c31.3,1.6,72,12.6,118.5,25.2c40,10.8,85.5,23.1,134.2,31.8L370.6,370.6z"/>
<path class="st5" d="M437.6,338.3v27.9l-67.1,4.3l-43.5-43.5C362.5,333.4,399.7,337.8,437.6,338.3z"/>
<polygon class="st5" points="437.6,366.2 437.6,437.6 370.6,370.6 "/>
<polygon class="st5" points="437.6,437.6 74.4,437.6 74.4,389.6 370.6,370.6 "/>
<path class="st5" d="M184.7,184.7c-0.5,0.3-1,0.7-1.5,1c-7.1-11.4-19.7-18.6-33.6-18.6c-10.1,0-19.7,3.9-27,10.6
	c-9.4-6.7-20.6-10.4-32.3-10.4c-5.4,0-10.8,0.8-15.9,2.3V74.4L184.7,184.7z"/>
<path class="st5" d="M437.6,74.4v102.4c-1.6-0.2-3.2-0.3-4.8-0.3c-12.4,0-23.9,5.9-31.3,15.4c-13.3-13.2-31.5-20.8-50.4-20.8
	c-27.2,0-51.9,15.5-63.9,39.4c-4.6-1.8-9.5-2.7-14.5-2.7c-2.4,0-4.8,0.2-7.2,0.7c-8.9-19.5-28.7-32.6-50.6-32.6
	c-11,0-21.4,3.1-30.4,9L74.4,74.4H437.6z"/>
</svg>
