<?xml version="1.0" encoding="utf-8"?>
<!-- Generator: Adobe Illustrator 21.0.2, SVG Export Plug-In . SVG Version: 6.00 Build 0)  -->
<svg version="1.1" id="Capa_1" xmlns="http://www.w3.org/2000/svg" xmlns:xlink="http://www.w3.org/1999/xlink" x="0px" y="0px"
	 viewBox="0 0 472.9 472.9" style="enable-background:new 0 0 472.9 472.9;" xml:space="preserve">
<style type="text/css">
	.st0{fill:none;}
	.st1{fill:#C7C5C4;}
	.st2{fill:#A73439;}
	.st3{fill:#A5A4A4;}
</style>
<g>
	<path class="st0" d="M38,183.7c0,3.5-2.8,6.3-6.3,6.3c-3.5,0-6.3-2.8-6.3-6.3c0-3.5,2.8-6.3,6.3-6.3C35.2,177.4,38,180.2,38,183.7z
		"/>
	<path class="st0" d="M46.1,204.7c0,3.5-2.8,6.3-6.3,6.3c-3.5,0-6.3-2.8-6.3-6.3c0-3.5,2.8-6.3,6.3-6.3
		C43.3,198.4,46.1,201.2,46.1,204.7z"/>
	<path class="st0" d="M54.2,225.6c0,3.5-2.8,6.3-6.3,6.3c-3.5,0-6.3-2.8-6.3-6.3c0-3.5,2.8-6.3,6.3-6.3
		C51.4,219.3,54.2,222.1,54.2,225.6z"/>
	<path class="st0" d="M62.3,246.6c0,3.5-2.8,6.3-6.3,6.3c-3.5,0-6.3-2.8-6.3-6.3c0-3.5,2.8-6.3,6.3-6.3
		C59.4,240.3,62.3,243.1,62.3,246.6z"/>
	<path class="st0" d="M70.3,267.5c0,3.5-2.8,6.3-6.3,6.3c-3.5,0-6.3-2.8-6.3-6.3c0-3.5,2.8-6.3,6.3-6.3
		C67.5,261.2,70.3,264,70.3,267.5z"/>
	<path class="st0" d="M78.4,288.5c0,3.5-2.8,6.3-6.3,6.3c-3.5,0-6.3-2.8-6.3-6.3c0-3.5,2.8-6.3,6.3-6.3
		C75.6,282.2,78.4,285,78.4,288.5z"/>
	<path class="st0" d="M86.5,309.4c0,3.5-2.8,6.3-6.3,6.3c-3.5,0-6.3-2.8-6.3-6.3c0-3.5,2.8-6.3,6.3-6.3
		C83.7,303.1,86.5,305.9,86.5,309.4z"/>
	<path class="st0" d="M94.5,330.4c0,3.5-2.8,6.3-6.3,6.3c-3.5,0-6.3-2.8-6.3-6.3c0-3.5,2.8-6.3,6.3-6.3
		C91.7,324.1,94.5,326.9,94.5,330.4z"/>
	<path class="st0" d="M102.6,351.3c0,3.5-2.8,6.3-6.3,6.3c-3.5,0-6.3-2.8-6.3-6.3c0-3.5,2.8-6.3,6.3-6.3
		C99.8,345,102.6,347.8,102.6,351.3z"/>
	<path class="st0" d="M110.7,372.3c0,3.5-2.8,6.3-6.3,6.3c-3.5,0-6.3-2.8-6.3-6.3c0-3.5,2.8-6.3,6.3-6.3
		C107.9,366,110.7,368.8,110.7,372.3z"/>
	<path class="st0" d="M46.3,168.4c0,3.5-2.8,6.3-6.3,6.3c-3.5,0-6.3-2.8-6.3-6.3c0-3.5,2.8-6.3,6.3-6.3
		C43.5,162.1,46.3,164.9,46.3,168.4z"/>
	<path class="st0" d="M54.3,189.3c0,3.5-2.8,6.3-6.3,6.3c-3.5,0-6.3-2.8-6.3-6.3c0-3.5,2.8-6.3,6.3-6.3
		C51.5,183,54.3,185.8,54.3,189.3z"/>
	<path class="st0" d="M62.4,210.2c0,3.5-2.8,6.3-6.3,6.3c-3.5,0-6.3-2.8-6.3-6.3c0-3.5,2.8-6.3,6.3-6.3
		C59.6,204,62.4,206.8,62.4,210.2z"/>
	<path class="st0" d="M70.5,231.2c0,3.5-2.8,6.3-6.3,6.3c-3.5,0-6.3-2.8-6.3-6.3c0-3.5,2.8-6.3,6.3-6.3
		C67.7,224.9,70.5,227.7,70.5,231.2z"/>
	<path class="st0" d="M78.6,252.1c0,3.5-2.8,6.3-6.3,6.3c-3.5,0-6.3-2.8-6.3-6.3c0-3.5,2.8-6.3,6.3-6.3
		C75.8,245.9,78.6,248.7,78.6,252.1z"/>
	<path class="st0" d="M86.6,273.1c0,3.5-2.8,6.3-6.3,6.3c-3.5,0-6.3-2.8-6.3-6.3c0-3.5,2.8-6.3,6.3-6.3
		C83.8,266.8,86.6,269.6,86.6,273.1z"/>
	<path class="st0" d="M94.7,294.1c0,3.5-2.8,6.3-6.3,6.3c-3.5,0-6.3-2.8-6.3-6.3c0-3.5,2.8-6.3,6.3-6.3
		C91.9,287.8,94.7,290.6,94.7,294.1z"/>
	<path class="st0" d="M102.8,315c0,3.5-2.8,6.3-6.3,6.3c-3.5,0-6.3-2.8-6.3-6.3c0-3.5,2.8-6.3,6.3-6.3
		C100,308.7,102.8,311.5,102.8,315z"/>
	<path class="st0" d="M110.9,335.9c0,3.5-2.8,6.3-6.3,6.3c-3.5,0-6.3-2.8-6.3-6.3c0-3.5,2.8-6.3,6.3-6.3
		C108,329.7,110.9,332.5,110.9,335.9z"/>
	<path class="st0" d="M118.9,356.9c0,3.5-2.8,6.3-6.3,6.3c-3.5,0-6.3-2.8-6.3-6.3c0-3.5,2.8-6.3,6.3-6.3
		C116.1,350.6,118.9,353.4,118.9,356.9z"/>
	<path class="st0" d="M70.9,158.9c0,3.5-2.8,6.3-6.3,6.3c-3.5,0-6.3-2.8-6.3-6.3c0-3.5,2.8-6.3,6.3-6.3
		C68.1,152.6,70.9,155.4,70.9,158.9z"/>
	<path class="st0" d="M79,179.8c0,3.5-2.8,6.3-6.3,6.3c-3.5,0-6.3-2.8-6.3-6.3c0-3.5,2.8-6.3,6.3-6.3C76.2,173.5,79,176.3,79,179.8z
		"/>
	<path class="st0" d="M87.1,200.7c0,3.5-2.8,6.3-6.3,6.3c-3.5,0-6.3-2.8-6.3-6.3c0-3.5,2.8-6.3,6.3-6.3
		C84.3,194.5,87.1,197.3,87.1,200.7z"/>
	<path class="st0" d="M95.2,221.7c0,3.5-2.8,6.3-6.3,6.3c-3.5,0-6.3-2.8-6.3-6.3c0-3.5,2.8-6.3,6.3-6.3
		C92.3,215.4,95.2,218.2,95.2,221.7z"/>
	<path class="st0" d="M103.2,242.6c0,3.5-2.8,6.3-6.3,6.3c-3.5,0-6.3-2.8-6.3-6.3c0-3.5,2.8-6.3,6.3-6.3
		C100.4,236.4,103.2,239.2,103.2,242.6z"/>
	<path class="st0" d="M111.3,263.6c0,3.5-2.8,6.3-6.3,6.3c-3.5,0-6.3-2.8-6.3-6.3c0-3.5,2.8-6.3,6.3-6.3
		C108.5,257.3,111.3,260.1,111.3,263.6z"/>
	<path class="st0" d="M119.4,284.6c0,3.5-2.8,6.3-6.3,6.3c-3.5,0-6.3-2.8-6.3-6.3c0-3.5,2.8-6.3,6.3-6.3
		C116.6,278.3,119.4,281.1,119.4,284.6z"/>
	<path class="st0" d="M127.5,305.5c0,3.5-2.8,6.3-6.3,6.3c-3.5,0-6.3-2.8-6.3-6.3c0-3.5,2.8-6.3,6.3-6.3
		C124.6,299.2,127.5,302,127.5,305.5z"/>
	<path class="st0" d="M135.5,326.4c0,3.5-2.8,6.3-6.3,6.3c-3.5,0-6.3-2.8-6.3-6.3c0-3.5,2.8-6.3,6.3-6.3
		C132.7,320.2,135.5,323,135.5,326.4z"/>
	<path class="st0" d="M143.6,347.4c0,3.5-2.8,6.3-6.3,6.3c-3.5,0-6.3-2.8-6.3-6.3c0-3.5,2.8-6.3,6.3-6.3
		C140.8,341.1,143.6,343.9,143.6,347.4z"/>
	<path class="st0" d="M62.7,174.2c0,3.5-2.8,6.3-6.3,6.3c-3.5,0-6.3-2.8-6.3-6.3c0-3.5,2.8-6.3,6.3-6.3
		C59.9,167.9,62.7,170.7,62.7,174.2z"/>
	<path class="st0" d="M70.8,195.2c0,3.5-2.8,6.3-6.3,6.3c-3.5,0-6.3-2.8-6.3-6.3c0-3.5,2.8-6.3,6.3-6.3
		C68,188.9,70.8,191.7,70.8,195.2z"/>
	<path class="st0" d="M78.8,216.1c0,3.5-2.8,6.3-6.3,6.3c-3.5,0-6.3-2.8-6.3-6.3c0-3.5,2.8-6.3,6.3-6.3
		C76,209.8,78.8,212.6,78.8,216.1z"/>
	<path class="st0" d="M86.9,237.1c0,3.5-2.8,6.3-6.3,6.3c-3.5,0-6.3-2.8-6.3-6.3c0-3.5,2.8-6.3,6.3-6.3
		C84.1,230.8,86.9,233.6,86.9,237.1z"/>
	<path class="st0" d="M95,258c0,3.5-2.8,6.3-6.3,6.3c-3.5,0-6.3-2.8-6.3-6.3c0-3.5,2.8-6.3,6.3-6.3C92.2,251.7,95,254.5,95,258z"/>
	<path class="st0" d="M103.1,279c0,3.5-2.8,6.3-6.3,6.3c-3.5,0-6.3-2.8-6.3-6.3c0-3.5,2.8-6.3,6.3-6.3
		C100.2,272.7,103.1,275.5,103.1,279z"/>
	<path class="st0" d="M111.1,299.9c0,3.5-2.8,6.3-6.3,6.3c-3.5,0-6.3-2.8-6.3-6.3c0-3.5,2.8-6.3,6.3-6.3
		C108.3,293.6,111.1,296.4,111.1,299.9z"/>
	<path class="st0" d="M119.2,320.9c0,3.5-2.8,6.3-6.3,6.3c-3.5,0-6.3-2.8-6.3-6.3c0-3.5,2.8-6.3,6.3-6.3
		C116.4,314.6,119.2,317.4,119.2,320.9z"/>
	<path class="st0" d="M127.3,341.8c0,3.5-2.8,6.3-6.3,6.3c-3.5,0-6.3-2.8-6.3-6.3c0-3.5,2.8-6.3,6.3-6.3
		C124.5,335.5,127.3,338.3,127.3,341.8z"/>
	<path class="st0" d="M135.3,362.8c0,3.5-2.8,6.3-6.3,6.3c-3.5,0-6.3-2.8-6.3-6.3c0-3.5,2.8-6.3,6.3-6.3
		C132.5,356.5,135.3,359.3,135.3,362.8z"/>
	<path class="st0" d="M349.5,346.5c0,2.4-1.9,4.3-4.3,4.3c-2.4,0-4.3-1.9-4.3-4.3c0-2.4,1.9-4.3,4.3-4.3
		C347.6,342.2,349.5,344.1,349.5,346.5z"/>
	<path class="st0" d="M356.8,333c0,2.4-1.9,4.3-4.3,4.3c-2.4,0-4.3-1.9-4.3-4.3c0-2.4,1.9-4.3,4.3-4.3
		C354.8,328.7,356.8,330.6,356.8,333z"/>
	<path class="st0" d="M364,319.4c0,2.4-1.9,4.3-4.3,4.3c-2.4,0-4.3-1.9-4.3-4.3c0-2.4,1.9-4.3,4.3-4.3
		C362.1,315.1,364,317.1,364,319.4z"/>
	<path class="st0" d="M371.2,305.9c0,2.4-1.9,4.3-4.3,4.3c-2.4,0-4.3-1.9-4.3-4.3c0-2.4,1.9-4.3,4.3-4.3
		C369.3,301.6,371.2,303.5,371.2,305.9z"/>
	<path class="st0" d="M378.5,292.4c0,2.4-1.9,4.3-4.3,4.3c-2.4,0-4.3-1.9-4.3-4.3s1.9-4.3,4.3-4.3
		C376.5,288.1,378.5,290,378.5,292.4z"/>
	<path class="st0" d="M385.7,278.8c0,2.4-1.9,4.3-4.3,4.3c-2.4,0-4.3-1.9-4.3-4.3c0-2.4,1.9-4.3,4.3-4.3
		C383.8,274.5,385.7,276.4,385.7,278.8z"/>
	<path class="st0" d="M392.9,265.3c0,2.4-1.9,4.3-4.3,4.3c-2.4,0-4.3-1.9-4.3-4.3s1.9-4.3,4.3-4.3C391,261,392.9,262.9,392.9,265.3z
		"/>
	<path class="st0" d="M400.2,251.7c0,2.4-1.9,4.3-4.3,4.3c-2.4,0-4.3-1.9-4.3-4.3c0-2.4,1.9-4.3,4.3-4.3
		C398.2,247.4,400.2,249.4,400.2,251.7z"/>
	<circle class="st0" cx="403.1" cy="238.2" r="4.3"/>
	<path class="st0" d="M345,335.2c0,2.4-1.9,4.3-4.3,4.3c-2.4,0-4.3-1.9-4.3-4.3c0-2.4,1.9-4.3,4.3-4.3
		C343.1,330.9,345,332.9,345,335.2z"/>
	<path class="st0" d="M352.2,321.7c0,2.4-1.9,4.3-4.3,4.3c-2.4,0-4.3-1.9-4.3-4.3c0-2.4,1.9-4.3,4.3-4.3
		C350.3,317.4,352.2,319.3,352.2,321.7z"/>
	<path class="st0" d="M359.5,308.2c0,2.4-1.9,4.3-4.3,4.3c-2.4,0-4.3-1.9-4.3-4.3c0-2.4,1.9-4.3,4.3-4.3
		C357.5,303.9,359.5,305.8,359.5,308.2z"/>
	<path class="st0" d="M366.7,294.6c0,2.4-1.9,4.3-4.3,4.3c-2.4,0-4.3-1.9-4.3-4.3c0-2.4,1.9-4.3,4.3-4.3
		C364.8,290.4,366.7,292.3,366.7,294.6z"/>
	<path class="st0" d="M373.9,281.1c0,2.4-1.9,4.3-4.3,4.3c-2.4,0-4.3-1.9-4.3-4.3c0-2.4,1.9-4.3,4.3-4.3
		C372,276.8,373.9,278.7,373.9,281.1z"/>
	<path class="st0" d="M381.2,267.6c0,2.4-1.9,4.3-4.3,4.3c-2.4,0-4.3-1.9-4.3-4.3c0-2.4,1.9-4.3,4.3-4.3
		C379.2,263.3,381.2,265.2,381.2,267.6z"/>
	<path class="st0" d="M388.4,254c0,2.4-1.9,4.3-4.3,4.3c-2.4,0-4.3-1.9-4.3-4.3s1.9-4.3,4.3-4.3C386.5,249.7,388.4,251.7,388.4,254z
		"/>
	<path class="st0" d="M395.6,240.5c0,2.4-1.9,4.3-4.3,4.3c-2.4,0-4.3-1.9-4.3-4.3c0-2.4,1.9-4.3,4.3-4.3
		C393.7,236.2,395.6,238.1,395.6,240.5z"/>
	<path class="st0" d="M402.9,227c0,2.4-1.9,4.3-4.3,4.3c-2.4,0-4.3-1.9-4.3-4.3s1.9-4.3,4.3-4.3C400.9,222.7,402.9,224.6,402.9,227z
		"/>
	<path class="st0" d="M340.4,324.2c0,2.4-1.9,4.3-4.3,4.3c-2.4,0-4.3-1.9-4.3-4.3c0-2.4,1.9-4.3,4.3-4.3
		C338.4,319.9,340.4,321.8,340.4,324.2z"/>
	<path class="st0" d="M347.6,310.6c0,2.4-1.9,4.3-4.3,4.3c-2.4,0-4.3-1.9-4.3-4.3c0-2.4,1.9-4.3,4.3-4.3
		C345.7,306.3,347.6,308.3,347.6,310.6z"/>
	<path class="st0" d="M354.8,297.1c0,2.4-1.9,4.3-4.3,4.3c-2.4,0-4.3-1.9-4.3-4.3c0-2.4,1.9-4.3,4.3-4.3
		C352.9,292.8,354.8,294.7,354.8,297.1z"/>
	<path class="st0" d="M362.1,283.6c0,2.4-1.9,4.3-4.3,4.3c-2.4,0-4.3-1.9-4.3-4.3c0-2.4,1.9-4.3,4.3-4.3
		C360.1,279.3,362.1,281.2,362.1,283.6z"/>
	<path class="st0" d="M369.3,270c0,2.4-1.9,4.3-4.3,4.3c-2.4,0-4.3-1.9-4.3-4.3c0-2.4,1.9-4.3,4.3-4.3
		C367.4,265.7,369.3,267.7,369.3,270z"/>
	<path class="st0" d="M376.5,256.5c0,2.4-1.9,4.3-4.3,4.3c-2.4,0-4.3-1.9-4.3-4.3c0-2.4,1.9-4.3,4.3-4.3
		C374.6,252.2,376.5,254.1,376.5,256.5z"/>
	<path class="st0" d="M383.8,243c0,2.4-1.9,4.3-4.3,4.3c-2.4,0-4.3-1.9-4.3-4.3c0-2.4,1.9-4.3,4.3-4.3
		C381.8,238.7,383.8,240.6,383.8,243z"/>
	<path class="st0" d="M391,229.4c0,2.4-1.9,4.3-4.3,4.3c-2.4,0-4.3-1.9-4.3-4.3c0-2.4,1.9-4.3,4.3-4.3
		C389.1,225.1,391,227.1,391,229.4z"/>
	<path class="st0" d="M335.8,312.9c0,2.4-1.9,4.3-4.3,4.3c-2.4,0-4.3-1.9-4.3-4.3c0-2.4,1.9-4.3,4.3-4.3
		C333.9,308.6,335.8,310.6,335.8,312.9z"/>
	<path class="st0" d="M343.1,299.4c0,2.4-1.9,4.3-4.3,4.3c-2.4,0-4.3-1.9-4.3-4.3c0-2.4,1.9-4.3,4.3-4.3
		C341.1,295.1,343.1,297,343.1,299.4z"/>
	<path class="st0" d="M350.3,285.9c0,2.4-1.9,4.3-4.3,4.3s-4.3-1.9-4.3-4.3c0-2.4,1.9-4.3,4.3-4.3S350.3,283.5,350.3,285.9z"/>
	<path class="st0" d="M357.5,272.3c0,2.4-1.9,4.3-4.3,4.3c-2.4,0-4.3-1.9-4.3-4.3c0-2.4,1.9-4.3,4.3-4.3
		C355.6,268,357.5,269.9,357.5,272.3z"/>
	<path class="st0" d="M364.8,258.8c0,2.4-1.9,4.3-4.3,4.3c-2.4,0-4.3-1.9-4.3-4.3c0-2.4,1.9-4.3,4.3-4.3
		C362.8,254.5,364.8,256.4,364.8,258.8z"/>
	<path class="st0" d="M372,245.3c0,2.4-1.9,4.3-4.3,4.3c-2.4,0-4.3-1.9-4.3-4.3c0-2.4,1.9-4.3,4.3-4.3
		C370.1,241,372,242.9,372,245.3z"/>
	<path class="st0" d="M379.2,231.7c0,2.4-1.9,4.3-4.3,4.3c-2.4,0-4.3-1.9-4.3-4.3c0-2.4,1.9-4.3,4.3-4.3
		C377.3,227.4,379.2,229.4,379.2,231.7z"/>
	<path class="st0" d="M386.5,218.2c0,2.4-1.9,4.3-4.3,4.3c-2.4,0-4.3-1.9-4.3-4.3c0-2.4,1.9-4.3,4.3-4.3
		C384.5,213.9,386.5,215.8,386.5,218.2z"/>
	<path class="st0" d="M414.8,224.7c0,2.4-1.9,4.3-4.3,4.3c-2.4,0-4.3-1.9-4.3-4.3s1.9-4.3,4.3-4.3
		C412.8,220.4,414.8,222.3,414.8,224.7z"/>
	<path class="st0" d="M422,211.1c0,2.4-1.9,4.3-4.3,4.3c-2.4,0-4.3-1.9-4.3-4.3c0-2.4,1.9-4.3,4.3-4.3
		C420.1,206.8,422,208.8,422,211.1z"/>
	<path class="st0" d="M429.2,197.6c0,2.4-1.9,4.3-4.3,4.3c-2.4,0-4.3-1.9-4.3-4.3c0-2.4,1.9-4.3,4.3-4.3
		C427.3,193.3,429.2,195.2,429.2,197.6z"/>
	<path class="st0" d="M436.5,184.1c0,2.4-1.9,4.3-4.3,4.3c-2.4,0-4.3-1.9-4.3-4.3c0-2.4,1.9-4.3,4.3-4.3
		C434.5,179.8,436.5,181.7,436.5,184.1z"/>
	<path class="st0" d="M443.7,170.5c0,2.4-1.9,4.3-4.3,4.3c-2.4,0-4.3-1.9-4.3-4.3c0-2.4,1.9-4.3,4.3-4.3
		C441.8,166.2,443.7,168.2,443.7,170.5z"/>
	<path class="st0" d="M450.9,157c0,2.4-1.9,4.3-4.3,4.3s-4.3-1.9-4.3-4.3c0-2.4,1.9-4.3,4.3-4.3S450.9,154.6,450.9,157z"/>
	<path class="st0" d="M410.2,213.4c0,2.4-1.9,4.3-4.3,4.3c-2.4,0-4.3-1.9-4.3-4.3c0-2.4,1.9-4.3,4.3-4.3
		C408.3,209.1,410.2,211.1,410.2,213.4z"/>
	<path class="st0" d="M417.4,199.9c0,2.4-1.9,4.3-4.3,4.3c-2.4,0-4.3-1.9-4.3-4.3c0-2.4,1.9-4.3,4.3-4.3
		C415.5,195.6,417.4,197.5,417.4,199.9z"/>
	<path class="st0" d="M424.7,186.4c0,2.4-1.9,4.3-4.3,4.3c-2.4,0-4.3-1.9-4.3-4.3c0-2.4,1.9-4.3,4.3-4.3
		C422.8,182.1,424.7,184,424.7,186.4z"/>
	<path class="st0" d="M431.9,172.8c0,2.4-1.9,4.3-4.3,4.3c-2.4,0-4.3-1.9-4.3-4.3c0-2.4,1.9-4.3,4.3-4.3
		C430,168.5,431.9,170.5,431.9,172.8z"/>
	<path class="st0" d="M439.1,159.3c0,2.4-1.9,4.3-4.3,4.3c-2.4,0-4.3-1.9-4.3-4.3c0-2.4,1.9-4.3,4.3-4.3
		C437.2,155,439.1,156.9,439.1,159.3z"/>
	<path class="st0" d="M398.3,215.9c0,2.4-1.9,4.3-4.3,4.3c-2.4,0-4.3-1.9-4.3-4.3c0-2.4,1.9-4.3,4.3-4.3
		C396.4,211.6,398.3,213.5,398.3,215.9z"/>
	<path class="st0" d="M405.6,202.4c0,2.4-1.9,4.3-4.3,4.3c-2.4,0-4.3-1.9-4.3-4.3s1.9-4.3,4.3-4.3
		C403.7,198.1,405.6,200,405.6,202.4z"/>
	<path class="st0" d="M412.8,188.8c0,2.4-1.9,4.3-4.3,4.3c-2.4,0-4.3-1.9-4.3-4.3c0-2.4,1.9-4.3,4.3-4.3
		C410.9,184.5,412.8,186.4,412.8,188.8z"/>
	<path class="st0" d="M420,175.3c0,2.4-1.9,4.3-4.3,4.3c-2.4,0-4.3-1.9-4.3-4.3s1.9-4.3,4.3-4.3C418.1,171,420,172.9,420,175.3z"/>
	<path class="st0" d="M427.3,161.7c0,2.4-1.9,4.3-4.3,4.3c-2.4,0-4.3-1.9-4.3-4.3c0-2.4,1.9-4.3,4.3-4.3
		C425.3,157.4,427.3,159.4,427.3,161.7z"/>
	<path class="st0" d="M393.8,204.7c0,2.4-1.9,4.3-4.3,4.3s-4.3-1.9-4.3-4.3c0-2.4,1.9-4.3,4.3-4.3S393.8,202.3,393.8,204.7z"/>
	<path class="st0" d="M401,191.1c0,2.4-1.9,4.3-4.3,4.3c-2.4,0-4.3-1.9-4.3-4.3c0-2.4,1.9-4.3,4.3-4.3
		C399.1,186.8,401,188.7,401,191.1z"/>
	<path class="st0" d="M408.3,177.6c0,2.4-1.9,4.3-4.3,4.3c-2.4,0-4.3-1.9-4.3-4.3c0-2.4,1.9-4.3,4.3-4.3
		C406.3,173.3,408.3,175.2,408.3,177.6z"/>
	<path class="st0" d="M415.5,164.1c0,2.4-1.9,4.3-4.3,4.3c-2.4,0-4.3-1.9-4.3-4.3s1.9-4.3,4.3-4.3
		C413.6,159.7,415.5,161.7,415.5,164.1z"/>
	<path class="st1" d="M471.6,130.5c-1.9-5.1-5.8-9.2-10.5-11.8l-31.4-16.8c-0.9-0.5-2-0.6-3-0.3c-0.2,0-19.2,7-20.9,7.6
		c-2.4-6.9-5.1-13.7-8-20.5c-0.9-2-3.1-2.9-5.1-2.1c-6.9,2.6-13.7,5.5-20.2,8.6c-3.2-6.5-6.6-13-10.2-19.4c-1.1-1.9-3.4-2.5-5.3-1.5
		c-6.5,3.4-12.8,7-19,10.8c-3.8-6.1-7.9-12.2-12.2-18.1c-1.3-1.7-3.7-2.2-5.5-0.9c-6,4.1-11.9,8.4-17.6,12.9
		c-4.5-5.6-9.2-11.2-14.2-16.5c-1.5-1.6-3.9-1.7-5.5-0.3c-5.5,4.8-10.9,9.7-16,14.8c-5.1-5.1-10.5-10.1-16-14.9
		c-1.6-1.4-4.1-1.3-5.5,0.3c-5,5.3-9.7,10.9-14.3,16.5c-5.7-4.5-11.6-8.8-17.6-13c-1.8-1.2-4.2-0.8-5.5,0.9
		c-4.4,5.9-8.5,12-12.4,18.1c-6.2-3.8-12.6-7.5-19.1-10.9c-1.9-1-4.2-0.3-5.3,1.5c-3.7,6.4-7.2,12.9-10.4,19.5
		c-6.7-3.1-13.5-6-20.5-8.6c0,0-1.9-0.3-2.9,0L13.9,134.2c-11.2,4.3-16.8,16.9-12.5,28.1l90.8,235.7c3.2,8.3,11.3,13.9,20.3,13.9
		c2.7,0,5.3-0.5,7.8-1.5l123.5-47.6c13.6-5.2,27.8-5.9,40.8-1.9c2.9,0.9,5.7,2.1,8.4,3.6c8,4.3,29,15.5,29,15.5
		c3.1,1.7,6.7,2.6,10.2,2.6c8,0,15.4-4.4,19.2-11.5l119-222.8C473.3,142.8,473.8,136.4,471.6,130.5z M159.3,103.4L217.7,284
		L145.8,97.4C150.4,99.3,154.9,101.3,159.3,103.4z M16.8,141.6l47.8-18.4l3.6,9.3l-60,23.1C7.5,149.7,10.9,143.9,16.8,141.6z
		 M10.4,163.3L71,140l87.8,227.8l-60.5,23.3L10.4,163.3z M117.5,402.9c-1.6,0.6-3.2,0.9-4.9,0.9c-4.3,0-8.4-2.1-10.9-5.5l60-23.1
		l3.6,9.3L117.5,402.9z M172.7,381.6L72,120.4l29.5-11.4l100.7,261.3L172.7,381.6z M209.6,367.4L109,106.1l27.5-10.6l100.7,261.3
		L209.6,367.4z M166.8,100.8c2.9-6,5.9-11.9,9.2-17.7c5.6,3,11.1,6.2,16.4,9.5l54,254.6L166.8,100.8z M200.5,92
		c3.6-5.8,7.5-11.6,11.5-17.2c5.4,3.8,10.7,7.8,15.8,11.9L254.9,348L200.5,92z M261.6,334.7L235.8,85.8c4-5.1,8.3-10.2,12.7-15.1
		c5,4.5,9.9,9.1,14.6,13.8L261.6,334.7z M406.2,117.6c2.5-0.9,11.4-4.5,13.3-5.2L318.2,301.9L406.2,117.6z M271,84
		c4.5-4.5,9.2-9,14-13.2c4.4,4.9,8.6,10,12.6,15.1l-28.1,246.2L271,84z M276.8,339.4l28.8-252.6c5.1-4.1,10.3-8.1,15.7-11.8
		c3.8,5.4,7.5,10.9,10.9,16.4L276.8,339.4z M340,93.2c5.5-3.5,11.2-6.8,17-10c3.2,5.8,6.2,11.7,9,17.6l-78,224.6L340,93.2z
		 M292.3,337.7l81.4-234.3c5.9-2.8,12-5.5,18.2-8c2.6,6.2,5,12.4,7.1,18.6L292.3,337.7z M463.3,144.6l-119,222.8
		c-2.4,4.5-7,7.2-12.1,7.2c-2.3,0-4.4-0.5-6.5-1.6l-28.3-15.1l132-246.9l28.3,15.1c3.2,1.7,5.6,4.6,6.7,8.1
		C465.4,137.6,465,141.3,463.3,144.6z"/>
	<path class="st2" d="M165.2,384.5l-47.8,18.4c-1.6,0.6-3.2,0.9-4.9,0.9c-4.3,0-8.4-2.1-10.9-5.5l60-23.1L165.2,384.5z"/>
	<path class="st2" d="M68.1,132.5l-60,23.1c-0.5-5.9,2.9-11.8,8.7-14l47.8-18.4L68.1,132.5z"/>
	<path class="st2" d="M464.3,134.1c-1.1-3.5-3.4-6.4-6.7-8.1l-28.3-15.1l-132,246.9l28.3,15.1c2,1.1,4.2,1.6,6.5,1.6
		c5.1,0,9.7-2.8,12.1-7.2l119-222.8C465,141.3,465.4,137.6,464.3,134.1z M434.8,155c2.4,0,4.3,1.9,4.3,4.3c0,2.4-1.9,4.3-4.3,4.3
		c-2.4,0-4.3-1.9-4.3-4.3C430.5,156.9,432.5,155,434.8,155z M431.9,172.8c0,2.4-1.9,4.3-4.3,4.3c-2.4,0-4.3-1.9-4.3-4.3
		c0-2.4,1.9-4.3,4.3-4.3C430,168.5,431.9,170.5,431.9,172.8z M405.6,202.4c0,2.4-1.9,4.3-4.3,4.3c-2.4,0-4.3-1.9-4.3-4.3
		s1.9-4.3,4.3-4.3C403.7,198.1,405.6,200,405.6,202.4z M404.2,188.8c0-2.4,1.9-4.3,4.3-4.3c2.4,0,4.3,1.9,4.3,4.3
		c0,2.4-1.9,4.3-4.3,4.3C406.1,193.1,404.2,191.2,404.2,188.8z M398.3,215.9c0,2.4-1.9,4.3-4.3,4.3c-2.4,0-4.3-1.9-4.3-4.3
		c0-2.4,1.9-4.3,4.3-4.3C396.4,211.6,398.3,213.5,398.3,215.9z M391,229.4c0,2.4-1.9,4.3-4.3,4.3c-2.4,0-4.3-1.9-4.3-4.3
		c0-2.4,1.9-4.3,4.3-4.3C389.1,225.1,391,227.1,391,229.4z M383.8,243c0,2.4-1.9,4.3-4.3,4.3c-2.4,0-4.3-1.9-4.3-4.3
		c0-2.4,1.9-4.3,4.3-4.3C381.8,238.7,383.8,240.6,383.8,243z M376.5,256.5c0,2.4-1.9,4.3-4.3,4.3c-2.4,0-4.3-1.9-4.3-4.3
		c0-2.4,1.9-4.3,4.3-4.3C374.6,252.2,376.5,254.1,376.5,256.5z M369.3,270c0,2.4-1.9,4.3-4.3,4.3c-2.4,0-4.3-1.9-4.3-4.3
		c0-2.4,1.9-4.3,4.3-4.3C367.4,265.7,369.3,267.7,369.3,270z M362.1,283.6c0,2.4-1.9,4.3-4.3,4.3c-2.4,0-4.3-1.9-4.3-4.3
		c0-2.4,1.9-4.3,4.3-4.3C360.1,279.3,362.1,281.2,362.1,283.6z M354.8,297.1c0,2.4-1.9,4.3-4.3,4.3c-2.4,0-4.3-1.9-4.3-4.3
		c0-2.4,1.9-4.3,4.3-4.3C352.9,292.8,354.8,294.7,354.8,297.1z M347.6,310.6c0,2.4-1.9,4.3-4.3,4.3c-2.4,0-4.3-1.9-4.3-4.3
		c0-2.4,1.9-4.3,4.3-4.3C345.7,306.3,347.6,308.3,347.6,310.6z M347.9,317.4c2.4,0,4.3,1.9,4.3,4.3c0,2.4-1.9,4.3-4.3,4.3
		c-2.4,0-4.3-1.9-4.3-4.3C343.6,319.3,345.6,317.4,347.9,317.4z M350.9,308.2c0-2.4,1.9-4.3,4.3-4.3c2.4,0,4.3,1.9,4.3,4.3
		c0,2.4-1.9,4.3-4.3,4.3C352.8,312.5,350.9,310.6,350.9,308.2z M358.1,294.6c0-2.4,1.9-4.3,4.3-4.3c2.4,0,4.3,1.9,4.3,4.3
		c0,2.4-1.9,4.3-4.3,4.3C360,298.9,358.1,297,358.1,294.6z M365.3,281.1c0-2.4,1.9-4.3,4.3-4.3c2.4,0,4.3,1.9,4.3,4.3
		c0,2.4-1.9,4.3-4.3,4.3C367.3,285.4,365.3,283.5,365.3,281.1z M372.6,267.6c0-2.4,1.9-4.3,4.3-4.3c2.4,0,4.3,1.9,4.3,4.3
		c0,2.4-1.9,4.3-4.3,4.3C374.5,271.9,372.6,269.9,372.6,267.6z M379.8,254c0-2.4,1.9-4.3,4.3-4.3c2.4,0,4.3,1.9,4.3,4.3
		s-1.9,4.3-4.3,4.3C381.7,258.3,379.8,256.4,379.8,254z M387,240.5c0-2.4,1.9-4.3,4.3-4.3c2.4,0,4.3,1.9,4.3,4.3
		c0,2.4-1.9,4.3-4.3,4.3C389,244.8,387,242.9,387,240.5z M394.3,227c0-2.4,1.9-4.3,4.3-4.3c2.4,0,4.3,1.9,4.3,4.3s-1.9,4.3-4.3,4.3
		C396.2,231.3,394.3,229.3,394.3,227z M401.6,213.4c0-2.4,1.9-4.3,4.3-4.3c2.4,0,4.3,1.9,4.3,4.3c0,2.4-1.9,4.3-4.3,4.3
		C403.5,217.7,401.6,215.8,401.6,213.4z M408.8,199.9c0-2.4,1.9-4.3,4.3-4.3c2.4,0,4.3,1.9,4.3,4.3c0,2.4-1.9,4.3-4.3,4.3
		C410.8,204.2,408.8,202.3,408.8,199.9z M416.1,186.4c0-2.4,1.9-4.3,4.3-4.3c2.4,0,4.3,1.9,4.3,4.3c0,2.4-1.9,4.3-4.3,4.3
		C418,190.7,416.1,188.7,416.1,186.4z M423,157.4c2.4,0,4.3,1.9,4.3,4.3c0,2.4-1.9,4.3-4.3,4.3c-2.4,0-4.3-1.9-4.3-4.3
		C418.7,159.4,420.6,157.4,423,157.4z M420,175.3c0,2.4-1.9,4.3-4.3,4.3c-2.4,0-4.3-1.9-4.3-4.3s1.9-4.3,4.3-4.3
		C418.1,171,420,172.9,420,175.3z M411.2,159.7c2.4,0,4.3,1.9,4.3,4.3s-1.9,4.3-4.3,4.3c-2.4,0-4.3-1.9-4.3-4.3
		S408.8,159.7,411.2,159.7z M404,173.3c2.4,0,4.3,1.9,4.3,4.3c0,2.4-1.9,4.3-4.3,4.3c-2.4,0-4.3-1.9-4.3-4.3
		C399.7,175.2,401.6,173.3,404,173.3z M396.7,186.8c2.4,0,4.3,1.9,4.3,4.3c0,2.4-1.9,4.3-4.3,4.3c-2.4,0-4.3-1.9-4.3-4.3
		C392.4,188.7,394.4,186.8,396.7,186.8z M389.5,200.4c2.4,0,4.3,1.9,4.3,4.3c0,2.4-1.9,4.3-4.3,4.3s-4.3-1.9-4.3-4.3
		C385.2,202.3,387.1,200.4,389.5,200.4z M382.2,213.9c2.4,0,4.3,1.9,4.3,4.3c0,2.4-1.9,4.3-4.3,4.3c-2.4,0-4.3-1.9-4.3-4.3
		C377.8,215.8,379.8,213.9,382.2,213.9z M374.9,227.4c2.4,0,4.3,1.9,4.3,4.3c0,2.4-1.9,4.3-4.3,4.3c-2.4,0-4.3-1.9-4.3-4.3
		C370.6,229.4,372.5,227.4,374.9,227.4z M367.7,241c2.4,0,4.3,1.9,4.3,4.3c0,2.4-1.9,4.3-4.3,4.3c-2.4,0-4.3-1.9-4.3-4.3
		C363.4,242.9,365.3,241,367.7,241z M360.5,254.5c2.4,0,4.3,1.9,4.3,4.3c0,2.4-1.9,4.3-4.3,4.3c-2.4,0-4.3-1.9-4.3-4.3
		C356.2,256.4,358.1,254.5,360.5,254.5z M353.2,268c2.4,0,4.3,1.9,4.3,4.3c0,2.4-1.9,4.3-4.3,4.3c-2.4,0-4.3-1.9-4.3-4.3
		C348.9,269.9,350.8,268,353.2,268z M346,281.6c2.4,0,4.3,1.9,4.3,4.3c0,2.4-1.9,4.3-4.3,4.3s-4.3-1.9-4.3-4.3
		C341.7,283.5,343.6,281.6,346,281.6z M338.8,295.1c2.4,0,4.3,1.9,4.3,4.3c0,2.4-1.9,4.3-4.3,4.3c-2.4,0-4.3-1.9-4.3-4.3
		C334.5,297,336.4,295.1,338.8,295.1z M327.2,312.9c0-2.4,1.9-4.3,4.3-4.3c2.4,0,4.3,1.9,4.3,4.3c0,2.4-1.9,4.3-4.3,4.3
		C329.2,317.2,327.2,315.3,327.2,312.9z M331.8,324.2c0-2.4,1.9-4.3,4.3-4.3c2.4,0,4.3,1.9,4.3,4.3c0,2.4-1.9,4.3-4.3,4.3
		C333.7,328.5,331.8,326.6,331.8,324.2z M336.4,335.2c0-2.4,1.9-4.3,4.3-4.3c2.4,0,4.3,1.9,4.3,4.3c0,2.4-1.9,4.3-4.3,4.3
		C338.3,339.6,336.4,337.6,336.4,335.2z M345.2,350.8c-2.4,0-4.3-1.9-4.3-4.3c0-2.4,1.9-4.3,4.3-4.3c2.4,0,4.3,1.9,4.3,4.3
		C349.5,348.9,347.6,350.8,345.2,350.8z M352.5,337.3c-2.4,0-4.3-1.9-4.3-4.3c0-2.4,1.9-4.3,4.3-4.3c2.4,0,4.3,1.9,4.3,4.3
		C356.8,335.3,354.8,337.3,352.5,337.3z M359.7,323.7c-2.4,0-4.3-1.9-4.3-4.3c0-2.4,1.9-4.3,4.3-4.3c2.4,0,4.3,1.9,4.3,4.3
		C364,321.8,362.1,323.7,359.7,323.7z M366.9,310.2c-2.4,0-4.3-1.9-4.3-4.3c0-2.4,1.9-4.3,4.3-4.3c2.4,0,4.3,1.9,4.3,4.3
		C371.2,308.3,369.3,310.2,366.9,310.2z M374.2,296.6c-2.4,0-4.3-1.9-4.3-4.3s1.9-4.3,4.3-4.3c2.4,0,4.3,1.9,4.3,4.3
		S376.5,296.6,374.2,296.6z M381.4,283.1c-2.4,0-4.3-1.9-4.3-4.3c0-2.4,1.9-4.3,4.3-4.3c2.4,0,4.3,1.9,4.3,4.3
		C385.7,281.2,383.8,283.1,381.4,283.1z M388.6,269.6c-2.4,0-4.3-1.9-4.3-4.3s1.9-4.3,4.3-4.3c2.4,0,4.3,1.9,4.3,4.3
		S391,269.6,388.6,269.6z M395.9,256c-2.4,0-4.3-1.9-4.3-4.3c0-2.4,1.9-4.3,4.3-4.3c2.4,0,4.3,1.9,4.3,4.3
		C400.2,254.1,398.2,256,395.9,256z M403.1,242.5c-2.4,0-4.3-1.9-4.3-4.3s1.9-4.3,4.3-4.3s4.3,1.9,4.3,4.3S405.5,242.5,403.1,242.5z
		 M410.5,229c-2.4,0-4.3-1.9-4.3-4.3s1.9-4.3,4.3-4.3c2.4,0,4.3,1.9,4.3,4.3S412.8,229,410.5,229z M417.7,215.4
		c-2.4,0-4.3-1.9-4.3-4.3c0-2.4,1.9-4.3,4.3-4.3c2.4,0,4.3,1.9,4.3,4.3C422,213.5,420.1,215.4,417.7,215.4z M424.9,201.9
		c-2.4,0-4.3-1.9-4.3-4.3c0-2.4,1.9-4.3,4.3-4.3c2.4,0,4.3,1.9,4.3,4.3C429.2,200,427.3,201.9,424.9,201.9z M432.2,188.4
		c-2.4,0-4.3-1.9-4.3-4.3c0-2.4,1.9-4.3,4.3-4.3c2.4,0,4.3,1.9,4.3,4.3C436.5,186.4,434.5,188.4,432.2,188.4z M439.4,174.8
		c-2.4,0-4.3-1.9-4.3-4.3c0-2.4,1.9-4.3,4.3-4.3c2.4,0,4.3,1.9,4.3,4.3C443.7,172.9,441.8,174.8,439.4,174.8z M446.6,161.3
		c-2.4,0-4.3-1.9-4.3-4.3c0-2.4,1.9-4.3,4.3-4.3s4.3,1.9,4.3,4.3C450.9,159.4,449,161.3,446.6,161.3z"/>
	<path class="st2" d="M71,140l-60.5,23.3l87.8,227.8l60.5-23.3L71,140z M135.5,326.4c0,3.5-2.8,6.3-6.3,6.3c-3.5,0-6.3-2.8-6.3-6.3
		c0-3.5,2.8-6.3,6.3-6.3C132.7,320.2,135.5,323,135.5,326.4z M127.5,305.5c0,3.5-2.8,6.3-6.3,6.3c-3.5,0-6.3-2.8-6.3-6.3
		c0-3.5,2.8-6.3,6.3-6.3C124.6,299.2,127.5,302,127.5,305.5z M96.8,285.2c-3.5,0-6.3-2.8-6.3-6.3c0-3.5,2.8-6.3,6.3-6.3
		c3.5,0,6.3,2.8,6.3,6.3C103.1,282.4,100.2,285.2,96.8,285.2z M104.8,293.6c3.5,0,6.3,2.8,6.3,6.3c0,3.5-2.8,6.3-6.3,6.3
		c-3.5,0-6.3-2.8-6.3-6.3C98.5,296.4,101.4,293.6,104.8,293.6z M88.7,264.3c-3.5,0-6.3-2.8-6.3-6.3c0-3.5,2.8-6.3,6.3-6.3
		c3.5,0,6.3,2.8,6.3,6.3C95,261.5,92.2,264.3,88.7,264.3z M80.6,243.4c-3.5,0-6.3-2.8-6.3-6.3c0-3.5,2.8-6.3,6.3-6.3
		c3.5,0,6.3,2.8,6.3,6.3C86.9,240.5,84.1,243.4,80.6,243.4z M72.6,222.4c-3.5,0-6.3-2.8-6.3-6.3c0-3.5,2.8-6.3,6.3-6.3
		c3.5,0,6.3,2.8,6.3,6.3C78.8,219.6,76,222.4,72.6,222.4z M64.5,201.4c-3.5,0-6.3-2.8-6.3-6.3c0-3.5,2.8-6.3,6.3-6.3
		c3.5,0,6.3,2.8,6.3,6.3C70.8,198.6,68,201.4,64.5,201.4z M62.4,210.2c0,3.5-2.8,6.3-6.3,6.3c-3.5,0-6.3-2.8-6.3-6.3
		c0-3.5,2.8-6.3,6.3-6.3C59.6,204,62.4,206.8,62.4,210.2z M64.2,224.9c3.5,0,6.3,2.8,6.3,6.3c0,3.5-2.8,6.3-6.3,6.3
		c-3.5,0-6.3-2.8-6.3-6.3C57.9,227.7,60.7,224.9,64.2,224.9z M72.3,245.9c3.5,0,6.3,2.8,6.3,6.3c0,3.5-2.8,6.3-6.3,6.3
		c-3.5,0-6.3-2.8-6.3-6.3C66,248.7,68.8,245.9,72.3,245.9z M80.3,266.8c3.5,0,6.3,2.8,6.3,6.3c0,3.5-2.8,6.3-6.3,6.3
		c-3.5,0-6.3-2.8-6.3-6.3C74.1,269.6,76.9,266.8,80.3,266.8z M88.4,287.8c3.5,0,6.3,2.8,6.3,6.3c0,3.5-2.8,6.3-6.3,6.3
		c-3.5,0-6.3-2.8-6.3-6.3C82.1,290.6,85,287.8,88.4,287.8z M96.5,308.7c3.5,0,6.3,2.8,6.3,6.3c0,3.5-2.8,6.3-6.3,6.3
		c-3.5,0-6.3-2.8-6.3-6.3C90.2,311.5,93,308.7,96.5,308.7z M104.6,329.7c3.5,0,6.3,2.8,6.3,6.3c0,3.5-2.8,6.3-6.3,6.3
		c-3.5,0-6.3-2.8-6.3-6.3C98.3,332.5,101.1,329.7,104.6,329.7z M106.6,320.9c0-3.5,2.8-6.3,6.3-6.3c3.5,0,6.3,2.8,6.3,6.3
		c0,3.5-2.8,6.3-6.3,6.3C109.4,327.1,106.6,324.3,106.6,320.9z M119.4,284.6c0,3.5-2.8,6.3-6.3,6.3c-3.5,0-6.3-2.8-6.3-6.3
		c0-3.5,2.8-6.3,6.3-6.3C116.6,278.3,119.4,281.1,119.4,284.6z M111.3,263.6c0,3.5-2.8,6.3-6.3,6.3c-3.5,0-6.3-2.8-6.3-6.3
		c0-3.5,2.8-6.3,6.3-6.3C108.5,257.3,111.3,260.1,111.3,263.6z M103.2,242.6c0,3.5-2.8,6.3-6.3,6.3c-3.5,0-6.3-2.8-6.3-6.3
		c0-3.5,2.8-6.3,6.3-6.3C100.4,236.4,103.2,239.2,103.2,242.6z M95.2,221.7c0,3.5-2.8,6.3-6.3,6.3c-3.5,0-6.3-2.8-6.3-6.3
		c0-3.5,2.8-6.3,6.3-6.3C92.3,215.4,95.2,218.2,95.2,221.7z M87.1,200.7c0,3.5-2.8,6.3-6.3,6.3c-3.5,0-6.3-2.8-6.3-6.3
		c0-3.5,2.8-6.3,6.3-6.3C84.3,194.5,87.1,197.3,87.1,200.7z M72.7,173.5c3.5,0,6.3,2.8,6.3,6.3c0,3.5-2.8,6.3-6.3,6.3
		c-3.5,0-6.3-2.8-6.3-6.3C66.4,176.3,69.2,173.5,72.7,173.5z M64.7,152.6c3.5,0,6.3,2.8,6.3,6.3c0,3.5-2.8,6.3-6.3,6.3
		c-3.5,0-6.3-2.8-6.3-6.3C58.4,155.4,61.2,152.6,64.7,152.6z M56.4,167.9c3.5,0,6.3,2.8,6.3,6.3c0,3.5-2.8,6.3-6.3,6.3
		c-3.5,0-6.3-2.8-6.3-6.3C50.1,170.7,52.9,167.9,56.4,167.9z M54.3,189.3c0,3.5-2.8,6.3-6.3,6.3c-3.5,0-6.3-2.8-6.3-6.3
		c0-3.5,2.8-6.3,6.3-6.3C51.5,183,54.3,185.8,54.3,189.3z M40,162.1c3.5,0,6.3,2.8,6.3,6.3c0,3.5-2.8,6.3-6.3,6.3
		c-3.5,0-6.3-2.8-6.3-6.3C33.7,164.9,36.5,162.1,40,162.1z M25.5,183.7c0-3.5,2.8-6.3,6.3-6.3c3.5,0,6.3,2.8,6.3,6.3
		c0,3.5-2.8,6.3-6.3,6.3C28.3,190,25.5,187.2,25.5,183.7z M33.5,204.7c0-3.5,2.8-6.3,6.3-6.3c3.5,0,6.3,2.8,6.3,6.3
		c0,3.5-2.8,6.3-6.3,6.3C36.3,210.9,33.5,208.1,33.5,204.7z M41.6,225.6c0-3.5,2.8-6.3,6.3-6.3c3.5,0,6.3,2.8,6.3,6.3
		c0,3.5-2.8,6.3-6.3,6.3C44.4,231.9,41.6,229.1,41.6,225.6z M49.7,246.6c0-3.5,2.8-6.3,6.3-6.3c3.5,0,6.3,2.8,6.3,6.3
		c0,3.5-2.8,6.3-6.3,6.3C52.5,252.9,49.7,250,49.7,246.6z M57.8,267.5c0-3.5,2.8-6.3,6.3-6.3c3.5,0,6.3,2.8,6.3,6.3
		c0,3.5-2.8,6.3-6.3,6.3C60.6,273.8,57.8,271,57.8,267.5z M65.8,288.5c0-3.5,2.8-6.3,6.3-6.3c3.5,0,6.3,2.8,6.3,6.3
		c0,3.5-2.8,6.3-6.3,6.3C68.6,294.7,65.8,291.9,65.8,288.5z M73.9,309.4c0-3.5,2.8-6.3,6.3-6.3c3.5,0,6.3,2.8,6.3,6.3
		c0,3.5-2.8,6.3-6.3,6.3C76.7,315.7,73.9,312.9,73.9,309.4z M82,330.4c0-3.5,2.8-6.3,6.3-6.3c3.5,0,6.3,2.8,6.3,6.3
		c0,3.5-2.8,6.3-6.3,6.3C84.8,336.6,82,333.8,82,330.4z M90,351.3c0-3.5,2.8-6.3,6.3-6.3c3.5,0,6.3,2.8,6.3,6.3
		c0,3.5-2.8,6.3-6.3,6.3C92.9,357.6,90,354.8,90,351.3z M104.4,378.6c-3.5,0-6.3-2.8-6.3-6.3c0-3.5,2.8-6.3,6.3-6.3
		c3.5,0,6.3,2.8,6.3,6.3C110.7,375.7,107.9,378.6,104.4,378.6z M112.6,363.2c-3.5,0-6.3-2.8-6.3-6.3c0-3.5,2.8-6.3,6.3-6.3
		c3.5,0,6.3,2.8,6.3,6.3C118.9,360.4,116.1,363.2,112.6,363.2z M114.7,341.8c0-3.5,2.8-6.3,6.3-6.3c3.5,0,6.3,2.8,6.3,6.3
		c0,3.5-2.8,6.3-6.3,6.3C117.5,348.1,114.7,345.3,114.7,341.8z M129.1,369.1c-3.5,0-6.3-2.8-6.3-6.3c0-3.5,2.8-6.3,6.3-6.3
		c3.5,0,6.3,2.8,6.3,6.3C135.3,366.2,132.5,369.1,129.1,369.1z M137.3,353.7c-3.5,0-6.3-2.8-6.3-6.3c0-3.5,2.8-6.3,6.3-6.3
		c3.5,0,6.3,2.8,6.3,6.3C143.6,350.9,140.8,353.7,137.3,353.7z"/>
	
		<rect x="121.3" y="105.3" transform="matrix(0.9331 -0.3595 0.3595 0.9331 -79.0281 65.691)" class="st2" width="31.6" height="280"/>
	<polygon class="st2" points="237.2,356.8 209.6,367.4 109,106.1 136.5,95.5 	"/>
	<path class="st3" d="M419.5,112.4L318.2,301.9l88-184.3C408.7,116.7,417.6,113.1,419.5,112.4z"/>
	<path class="st3" d="M399,114.1L292.3,337.7l81.4-234.3c5.9-2.8,12-5.5,18.2-8C394.5,101.7,396.8,107.9,399,114.1z"/>
	<path class="st3" d="M366.1,100.8l-78,224.6L340,93.2c5.5-3.5,11.2-6.8,17-10C360.3,89,363.3,94.9,366.1,100.8z"/>
	<path class="st3" d="M297.7,85.9l-28.1,246.2L271,84c4.5-4.5,9.2-9,14-13.2C289.4,75.7,293.7,80.7,297.7,85.9z"/>
	<path class="st3" d="M332.3,91.4l-55.5,248l28.8-252.6c5.1-4.1,10.3-8.1,15.7-11.8C325.2,80.3,328.8,85.8,332.3,91.4z"/>
	<path class="st3" d="M263,84.6l-1.5,250.1L235.8,85.8c4-5.1,8.3-10.2,12.7-15.1C253.5,75.2,258.4,79.8,263,84.6z"/>
	<path class="st3" d="M254.9,348L200.5,92c3.6-5.8,7.5-11.6,11.5-17.2c5.4,3.8,10.7,7.8,15.8,11.9L254.9,348z"/>
	<path class="st3" d="M246.5,347.2l-79.7-246.4c2.9-6,5.9-11.9,9.2-17.7c5.6,3,11.1,6.2,16.4,9.5L246.5,347.2z"/>
	<path class="st3" d="M217.7,284L145.8,97.4c4.6,1.9,9.1,3.9,13.5,6L217.7,284z"/>
</g>
</svg>
