<?xml version="1.0" encoding="utf-8"?>
<!-- Generator: Adobe Illustrator 21.0.2, SVG Export Plug-In . SVG Version: 6.00 Build 0)  -->
<svg version="1.1" id="Capa_1" xmlns="http://www.w3.org/2000/svg" xmlns:xlink="http://www.w3.org/1999/xlink" x="0px" y="0px"
	 viewBox="0 0 325 325" style="enable-background:new 0 0 325 325;" xml:space="preserve">
<style type="text/css">
	.st0{fill:#C7C5C4;}
	.st1{fill:#878484;}
	.st2{fill:#CC9A9E;}
	.st3{fill:none;}
	.st4{fill:#757372;}
</style>
<path class="st0" d="M246.5,115.7c1.1,3.5,0.1,0.2,5.8,9.4L246.5,115.7z M246.5,115.3C246.5,115.3,246.4,115.3,246.5,115.3
	c0,0.2,0,0.3,0,0.4L246.5,115.3z M240.2,120.9c-16.8,15-34.1,31-49.6,45.9c-1.5,1.5-3,2.9-4.5,4.3c-0.7,0.7-1.5,1.4-2.2,2.1
	c-1.5,1.4-2.9,2.8-4.3,4.2c-2.8,2.8-5.6,5.5-8.2,8.1c-34.9,4.5-39.6,27.7-43.1,44.8c-3,14.5-4.9,21.5-16.1,22.5
	c-2.8,0.2-5,2.3-5.4,5c-0.4,2.7,1.1,5.4,3.6,6.5c0.7,0.3,17.9,7.3,37.9,7.3h0c14,0,25.9-3.4,35.6-10.1c11.9-8.2,20-21.3,24-38.8
	l7.5-8.1c0.1-0.1,0.1-0.1,0.2-0.2l35.2-37.8l2-2.1l-1.7-15.7l-3-28.7l-1.5-14.6v0l-4.6,3.7C241.3,119.9,240.8,120.4,240.2,120.9z
	 M195.9,221.8c-6.4,25.2-22.4,38-47.6,38h0c-6.7,0-13-0.9-18.4-2c6.4-6.5,8.4-16.3,10.1-24.9c3.3-16.2,6.4-31.5,31.9-35.2l10.7-6.3
	l16.2,16.3l3.7,3.7L195.9,221.8z M209.2,221.6c-0.4,0.4-0.9,0.9-1.3,1.3c1.8,7.8,49.6,17.8-70.3,59.3c-76,26.3-27.9-99.8,33.7-96.6
	l40.8-42.4l9.4-7.5l18.6-14.9l1.8-1.4c1.5-1.4,3-2.7,4.5-4c-8.8-25.2-25.3-47.7-46.9-63.7c-23.5-17.5-51.6-26.7-81-26.7c0,0,0,0,0,0
	C99.1,24.9,74.5,32,55.8,43c-12.5,7.3-33.5,23.1-33.5,45.9c0,19.7,10.4,27.4,21.3,35.5c10.2,7.6,21.9,16.2,21.9,34.5
	c0,18.3-11.6,26.9-21.9,34.5c-11,8.1-21.3,15.8-21.3,35.5c0,37.1,57.4,64,96.1,64h0c36.1,0,70.1-13.9,95.6-39.2
	c21.6-21.5,35-48.9,38.6-78.6C237.8,191.8,222.6,208,209.2,221.6z"/>
<path class="st1" d="M319.8,73.1c-4.8,8-15.7,23.8-41,53.9c-5.6,6.6-11.4,13.4-17.4,20.3c-3.4,3.9-6.8,7.8-10.3,11.7
	c-16.5,18.6-33.6,37.1-48.6,52.4l-3.7-3.7l-16.2-16.3c18.6-18.5,41.6-40,64.2-59.9c0.4-0.4,0.9-0.8,1.3-1.2c1.6-1.4,3.3-2.9,4.9-4.3
	c1.5-1.3,2.9-2.6,4.4-3.8c3-2.6,6-5.2,8.9-7.7C296.1,89,311.8,77.9,319.8,73.1z"/>
<path class="st2" d="M195.9,221.8c-6.4,25.2-22.4,38-47.6,38h0c-6.7,0-13-0.9-18.4-2c6.4-6.5,8.4-16.3,10.1-24.9
	c3.3-16.2,6.4-31.5,31.9-35.2L195.9,221.8z"/>
<path class="st0" d="M207.9,222.9c-4.1,17.5-12.1,30.5-24,38.8c-9.7,6.7-21.6,10.1-35.6,10.1h0c-20,0-37.2-7-37.9-7.3
	c-2.6-1.1-4.1-3.7-3.6-6.5s2.7-4.8,5.4-5c11.2-0.9,13.1-7.9,16.1-22.5c3.5-17.1,8.2-40.3,43.1-44.8c21-21.1,49.2-47.3,75.2-70
	c-8.7-25.3-25.3-47.9-47-64.1c-23.5-17.5-51.6-26.7-81-26.7c0,0,0,0,0,0C99.1,24.9,74.6,32,55.8,43c-12.5,7.3-33.5,23.1-33.5,45.9
	c0,19.7,10.4,27.4,21.3,35.5c10.2,7.6,21.9,16.2,21.9,34.5c0,18.3-11.6,26.9-21.9,34.5c-11,8.1-21.3,15.8-21.3,35.5
	c0,37.1,57.4,64,96.1,64h0c36.1,0,70.1-13.9,95.6-39.2c21.6-21.5,35-48.9,38.6-78.6C234.5,190.5,221.6,209.1,207.9,222.9z
	 M175.8,111.1c2.3-6.6,7.1-12,13.5-15c3.6-1.7,7.4-2.6,11.4-2.6c10,0,19.4,5.8,23.7,14.8c3,6.3,3.5,13.4,1.2,20
	c-2.3,6.6-7.1,12-13.5,15c-3.6,1.7-7.4,2.6-11.4,2.6c-10.1,0-19.4-5.8-23.8-14.8C173.9,124.8,173.5,117.7,175.8,111.1z M115.6,72.1
	c2.8-12,13.3-20.3,25.6-20.3c2,0,4,0.2,5.9,0.7c6.9,1.6,12.7,5.7,16.5,11.7c3.7,5.9,4.9,12.9,3.4,19.7c-2.8,12-13.3,20.3-25.7,20.3
	c-2,0-3.9-0.2-5.9-0.7c-6.9-1.5-12.8-5.7-16.5-11.6C115.2,85.9,114,78.9,115.6,72.1z M50.8,114.3c-4.4-5.5-6.4-12.3-5.6-19.3
	c0.8-7,4.2-13.2,9.8-17.5c4.6-3.7,10.5-5.7,16.4-5.7c8.1,0,15.6,3.6,20.6,9.8c4.4,5.5,6.4,12.3,5.6,19.2c-0.8,7-4.2,13.2-9.8,17.6
	c-4.6,3.7-10.5,5.7-16.4,5.7C63.3,124.1,55.8,120.5,50.8,114.3z M99.4,244.1c-5,6.2-12.5,9.8-20.6,9.8c-5.9,0-11.8-2-16.4-5.7
	c-5.5-4.4-9-10.6-9.8-17.6c-0.8-6.9,1.2-13.8,5.6-19.2c5-6.2,12.5-9.8,20.6-9.8c5.9,0,11.8,2,16.4,5.7c5.5,4.4,9,10.6,9.8,17.6
	C105.8,231.8,103.8,238.7,99.4,244.1z"/>
<path class="st2" d="M105,224.9c-0.8-7-4.3-13.2-9.8-17.6c-4.6-3.7-10.5-5.7-16.4-5.7c-8.1,0-15.6,3.6-20.6,9.8
	c-4.4,5.5-6.4,12.3-5.6,19.2c0.8,7,4.3,13.2,9.8,17.6c4.6,3.7,10.5,5.7,16.4,5.7c8.1,0,15.6-3.6,20.6-9.8
	C103.8,238.7,105.8,231.8,105,224.9z M90,236.6c-2.7,3.4-6.8,5.4-11.2,5.4c-3.3,0-6.4-1.1-9-3.1c-3-2.4-4.9-5.7-5.3-9.5
	c-0.4-3.8,0.6-7.4,3-10.4c2.7-3.4,6.8-5.3,11.2-5.3c3.3,0,6.4,1.1,9,3.1c3,2.4,4.9,5.7,5.3,9.5C93.5,230,92.4,233.6,90,236.6z"/>
<path class="st2" d="M90,236.6c-2.7,3.4-6.8,5.4-11.2,5.4c-3.3,0-6.4-1.1-9-3.1c-3-2.4-4.9-5.7-5.3-9.5c-0.4-3.8,0.7-7.4,3-10.4
	c2.7-3.4,6.8-5.3,11.2-5.3c3.3,0,6.4,1.1,9,3.1c3,2.4,4.9,5.7,5.3,9.5C93.5,230,92.4,233.6,90,236.6z"/>
<path class="st2" d="M91.9,81.6c-5-6.2-12.5-9.8-20.6-9.8c-5.9,0-11.7,2-16.4,5.7c-5.5,4.3-9,10.6-9.8,17.5
	c-0.8,7,1.2,13.8,5.6,19.3c5,6.2,12.5,9.8,20.6,9.8c5.9,0,11.7-2,16.4-5.7c5.5-4.4,9-10.6,9.8-17.6C98.3,93.9,96.3,87.1,91.9,81.6z
	 M85.6,99.5c-0.4,3.8-2.3,7.2-5.3,9.5c-2.5,2-5.6,3.1-8.9,3.1c-4.4,0-8.5-2-11.2-5.4c-2.4-3-3.5-6.6-3-10.4c0.4-3.8,2.3-7.1,5.3-9.5
	c2.6-2,5.7-3.1,8.9-3.1c4.4,0,8.5,2,11.2,5.3C84.9,92.1,86,95.8,85.6,99.5z"/>
<path class="st2" d="M85.6,99.5c-0.4,3.8-2.3,7.2-5.3,9.5c-2.6,2-5.6,3.1-8.9,3.1c-4.4,0-8.5-2-11.2-5.4c-2.4-3-3.4-6.6-3-10.4
	c0.4-3.8,2.3-7.1,5.3-9.5c2.6-2,5.7-3.1,9-3.1c4.4,0,8.5,2,11.2,5.3C84.9,92.1,86,95.8,85.6,99.5z"/>
<path class="st2" d="M224.4,108.3c-4.4-9-13.7-14.8-23.7-14.8c-4,0-7.8,0.9-11.4,2.6c-6.4,3-11.1,8.4-13.5,15
	c-2.3,6.6-1.9,13.7,1.2,20c4.4,9,13.7,14.8,23.8,14.8c4,0,7.8-0.9,11.4-2.6c6.4-3,11.2-8.4,13.5-15
	C227.9,121.7,227.4,114.6,224.4,108.3z M214.2,124.3c-1.2,3.6-3.8,6.5-7.3,8.1c-2,0.9-4,1.4-6.2,1.4c-5.5,0-10.6-3.2-13-8
	c-1.6-3.4-1.9-7.2-0.6-10.7c1.2-3.6,3.8-6.5,7.3-8.1c2-0.9,4.1-1.4,6.2-1.4c5.5,0,10.6,3.2,12.9,8
	C215.2,117,215.5,120.8,214.2,124.3z"/>
<path class="st2" d="M214.2,124.3c-1.2,3.6-3.9,6.5-7.3,8.1c-2,0.9-4,1.4-6.2,1.4c-5.5,0-10.6-3.2-13-8c-1.6-3.4-1.9-7.2-0.6-10.7
	c1.2-3.6,3.8-6.5,7.3-8.1c2-0.9,4.1-1.4,6.2-1.4c5.5,0,10.6,3.2,12.9,8C215.2,117,215.5,120.8,214.2,124.3z"/>
<path class="st2" d="M163.6,64.1c-3.7-6-9.6-10.1-16.5-11.7c-1.9-0.4-3.9-0.7-5.9-0.7c-12.3,0-22.9,8.4-25.6,20.3
	c-1.6,6.8-0.4,13.8,3.3,19.7c3.8,6,9.6,10.1,16.5,11.6c1.9,0.4,3.9,0.7,5.9,0.7c12.4,0,22.9-8.4,25.7-20.3
	C168.5,77,167.3,70,163.6,64.1z M155.3,81.1c-1.5,6.4-7.3,11-14,11c-1.1,0-2.2-0.1-3.2-0.4c-3.8-0.8-6.9-3.1-9-6.3
	c-2-3.2-2.6-7-1.8-10.6c1.5-6.5,7.2-11,13.9-11c1.1,0,2.2,0.1,3.2,0.4c3.8,0.8,6.9,3.1,9,6.3C155.5,73.7,156.1,77.5,155.3,81.1z"/>
<path class="st2" d="M155.3,81.1c-1.5,6.4-7.3,11-14,11c-1.1,0-2.2-0.1-3.2-0.4c-3.8-0.8-6.9-3.1-9-6.3c-2-3.2-2.6-7-1.8-10.6
	c1.5-6.5,7.2-11,13.9-11c1.1,0,2.2,0.1,3.2,0.4c3.8,0.8,6.9,3.1,9,6.3C155.4,73.7,156.1,77.5,155.3,81.1z"/>
<polyline class="st3" points="239.2,119.3 245.6,129.6 247.7,132.9 "/>
<polygon class="st4" points="202.5,211.4 195.9,221.8 171.9,197.7 182.6,191.4 198.8,207.7 "/>
</svg>
