<?xml version="1.0" encoding="utf-8"?>
<!-- Generator: Adobe Illustrator 21.0.2, SVG Export Plug-In . SVG Version: 6.00 Build 0)  -->
<svg version="1.1" id="Capa_1" xmlns="http://www.w3.org/2000/svg" xmlns:xlink="http://www.w3.org/1999/xlink" x="0px" y="0px"
	 viewBox="0 0 512 512" style="enable-background:new 0 0 512 512;" xml:space="preserve">
<style type="text/css">
	.st0{fill:#C7C5C4;}
	.st1{fill:#AAA9A9;}
	.st2{fill:#8C8989;}
	.st3{fill:none;}
</style>
<g>
	<path class="st0" d="M504.4,210.6h-27.2c-4.2,0-7.6,3.4-7.6,7.6v21.2h-12.4v-21.2c0-4.2-3.4-7.6-7.6-7.6h-30
		c-4.2,0-7.6,3.4-7.6,7.6v21.2h-12.4v-21.2c0-4.2-3.4-7.6-7.6-7.6h-27.2c-4.2,0-7.6,3.4-7.6,7.6v81.9h-20.6V184.6h18.6
		c2.5,0,4.9-1.1,6.4-3.1c2.2-3.1,1.8-7.3-0.8-9.9l-97.2-96.1V59.9h62.8c2.2,0,4.5-0.9,5.9-2.6c2.3-2.7,2.5-6.5,0.6-9.3l-12.3-18.1
		l12.3-18.1c1.9-2.8,1.8-6.6-0.6-9.3c-1.5-1.7-3.7-2.6-5.9-2.6H256c-4.2,0-7.6,3.4-7.6,7.6v67.9l-97.1,96c-1.8,1.8-2.7,4.2-2.3,6.7
		c0.6,3.8,3.9,6.5,7.5,6.5h18.8v43.6c0,3.4,2.2,6.2,5.3,7.2c0.7,0.2,1.5,0.4,2.3,0.4c2.6,0,4.9-1.3,6.3-3.4c0.4-0.6,0.7-1.3,1-2
		c0.1-0.2,0.1-0.5,0.2-0.7c0.1-0.5,0.2-1,0.2-1.5v-43.6h131v146.7h-12.3v-23.5c0-0.5-0.1-1-0.2-1.5c-0.1-0.2-0.1-0.5-0.2-0.7
		c-0.2-0.7-0.5-1.4-1-2c-1.4-2-3.7-3.4-6.3-3.4h-31.8c-2.1,0-4,0.9-5.4,2.2c-0.3,0.3-0.7,0.7-0.9,1.1c-0.1,0.2-0.2,0.3-0.3,0.5
		c-0.1,0.1-0.1,0.2-0.1,0.3c-0.1,0.1-0.2,0.3-0.2,0.5c0,0,0,0.1,0,0.1c-0.1,0.2-0.2,0.4-0.2,0.6c-0.1,0.2-0.1,0.3-0.1,0.5
		c0,0.2-0.1,0.3-0.1,0.4c0,0.1,0,0.2,0,0.3c0,0.1,0,0.1,0,0.2c0,0.2,0,0.5,0,0.7v23.5h-12.3v-23.5c0-1.6-0.5-3-1.3-4.2
		c-1.4-2-3.7-3.4-6.3-3.4h-31.7c-2.1,0-4,0.9-5.4,2.2c-1.4,1.4-2.2,3.3-2.2,5.4v23.5h-12.4v-67.6c0-0.5-0.1-1-0.2-1.5
		c-0.1-0.2-0.1-0.5-0.2-0.7c-0.1-0.2-0.2-0.5-0.3-0.7c-0.2-0.5-0.4-0.9-0.7-1.3c-0.1-0.2-0.3-0.4-0.4-0.6c-0.2-0.2-0.3-0.4-0.5-0.5
		c-1.4-1.4-3.3-2.2-5.4-2.2c-0.8,0-1.6,0.1-2.3,0.4c-3,1-5.3,3.8-5.3,7.2v36.5h-20.6v-81.9c0-4.2-3.4-7.6-7.6-7.6H120
		c-4.2,0-7.6,3.4-7.6,7.6v21.2H100v-21.2c0-4.2-3.4-7.6-7.6-7.6h-30c-4.2,0-7.6,3.4-7.6,7.6v21.2H42.4v-21.2c0-4.2-3.4-7.6-7.6-7.6
		H7.6c-4.2,0-7.6,3.4-7.6,7.6v57.6c0,4.2,3.4,7.6,7.6,7.6h17.9v221c0,4.2,3.4,7.6,7.6,7.6h114c0,0,0,0,0,0h217.7c0,0,0,0,0,0h114
		c4.2,0,7.6-3.4,7.6-7.6V363c0-4.2-3.4-7.6-7.6-7.6c-0.5,0-1,0.1-1.4,0.1h0c-0.3,0-0.6,0.1-0.8,0.2c-0.1,0-0.3,0.1-0.4,0.1
		c0,0-0.1,0-0.1,0.1c-0.2,0.1-0.3,0.1-0.5,0.2c-0.1,0.1-0.3,0.1-0.4,0.2c-0.1,0.1-0.3,0.2-0.4,0.2c-0.2,0.1-0.4,0.2-0.5,0.4
		c-0.1,0.1-0.3,0.2-0.4,0.3c-0.1,0.1-0.3,0.2-0.4,0.4c-0.2,0.2-0.3,0.4-0.5,0.5c-0.3,0.4-0.6,0.8-0.8,1.2c-0.1,0.2-0.2,0.4-0.3,0.7
		c-0.1,0.2-0.2,0.5-0.2,0.7c-0.1,0.2-0.1,0.5-0.2,0.7c-0.1,0.5-0.2,1-0.2,1.5v133.8h-98.9V283.4h98.9v44.1c0,0.5,0.1,1,0.2,1.5
		c0,0.2,0.1,0.5,0.2,0.7c0.1,0.2,0.2,0.5,0.2,0.7c0,0,0,0,0,0c0.1,0.2,0.2,0.4,0.3,0.6c0,0,0,0.1,0.1,0.1c0.1,0.2,0.2,0.4,0.3,0.6
		c0.1,0.2,0.3,0.4,0.4,0.6c0.2,0.2,0.3,0.4,0.5,0.5c0.2,0.2,0.4,0.4,0.6,0.6c0.1,0.1,0.2,0.2,0.3,0.3c0.2,0.1,0.4,0.3,0.6,0.4
		c0.1,0.1,0.3,0.2,0.4,0.2c0,0,0.1,0,0.1,0.1c0.2,0.1,0.3,0.1,0.5,0.2c0,0,0.1,0,0.1,0.1c0.2,0.1,0.4,0.1,0.6,0.2
		c0.2,0.1,0.4,0.1,0.7,0.2h0c0.5,0.1,1,0.1,1.4,0.1c4.2,0,7.6-3.4,7.6-7.6v-44.1h17.9c4.2,0,7.6-3.4,7.6-7.6v-57.6
		C512,214,508.6,210.6,504.4,210.6z M263.6,15.2h48.6l-7.1,10.4c-1.8,2.6-1.8,6,0,8.6l7.1,10.5h-48.6V15.2z M139.5,496.8H40.7V283.4
		h98.9V496.8z M139.5,268.2H15.2v-42.4h12V247c0,4.2,3.4,7.6,7.6,7.6h27.6c4.2,0,7.6-3.4,7.6-7.6v-21.2h14.8V247
		c0,4.2,3.4,7.6,7.6,7.6H120c4.2,0,7.6-3.4,7.6-7.6v-21.2h12V268.2z M175,169.4l81-80l81,80H175z M248.4,496.3h-36.5v-66.9
		c0-21.7,15.8-39.8,36.5-43.4V496.3z M300.1,496.3h-36.5V386c20.7,3.6,36.5,21.7,36.5,43.4V496.3z M357.3,496.8h-42v-67.4
		c0-32.7-26.6-59.3-59.3-59.3c-32.7,0-59.3,26.6-59.3,59.3v67.4h-42V315.4h20.6v23.5c0,4.2,3.4,7.6,7.6,7.6h27.6
		c4.2,0,7.6-3.4,7.6-7.6v-23.5h16.5v23.5c0,4.2,3.4,7.6,7.6,7.6h27.6c4.2,0,7.6-3.4,7.6-7.6v-23.5h16.5v23.5c0,4.2,3.4,7.6,7.6,7.6
		h27.6c4.2,0,7.6-3.4,7.6-7.6v-23.5h20.6V496.8z M496.8,268.2H372.5v-42.4h12V247c0,4.2,3.4,7.6,7.6,7.6h27.6c4.2,0,7.6-3.4,7.6-7.6
		v-21.2H442V247c0,4.2,3.4,7.6,7.6,7.6h27.6c4.2,0,7.6-3.4,7.6-7.6v-21.2h11.9V268.2z"/>
	<path class="st1" d="M248.4,386v3c-16.8,6.2-28.9,22.4-28.9,41.4v65.9h-7.6v-66.9C211.9,407.7,227.7,389.6,248.4,386z"/>
	<path class="st1" d="M300.1,429.4v66.9h-8.2v-66c0-18.8-11.8-34.8-28.3-41.2V386C284.3,389.6,300.1,407.7,300.1,429.4z"/>
	<path class="st1" d="M496.8,225.8v42.4H372.5v-42.4h12V247c0,4.2,3.4,7.6,7.6,7.6h27.6c4.2,0,7.6-3.4,7.6-7.6v-21.2h14.8V247
		c0,4.2,3.4,7.6,7.6,7.6h27.6c4.2,0,7.6-3.4,7.6-7.6v-21.2H496.8z"/>
	<polygon class="st1" points="337,169.4 175,169.4 256,89.3 	"/>
	<path class="st1" d="M139.5,225.8v42.4H15.2v-42.4h12V247c0,4.2,3.4,7.6,7.6,7.6h27.6c4.2,0,7.6-3.4,7.6-7.6v-21.2h14.8V247
		c0,4.2,3.4,7.6,7.6,7.6h27.6c4.2,0,7.6-3.4,7.6-7.6v-21.2H139.5z"/>
	<path class="st1" d="M291.9,430.3v66.9h-36.5V386.9c0.2,0,0.4,0.1,0.5,0.1c0,0,0,0,0.1,0c2.6,0.5,5.1,1.2,7.6,2.1
		C280.2,395.5,291.9,411.6,291.9,430.3z"/>
	<path class="st1" d="M256,387v110.3h-36.5v-66.9c0-19,12-35.2,28.9-41.4c2.3-0.8,4.6-1.5,7-1.9C255.6,387.1,255.8,387,256,387
		C256,387,256,387,256,387z"/>
	<path class="st0" d="M336.7,315.4v23.5c0,4.2-3.4,7.6-7.6,7.6h-27.6c-4.2,0-7.6-3.4-7.6-7.6v-23.5h-16.5v23.5
		c0,4.2-3.4,7.6-7.6,7.6h-27.6c-4.2,0-7.6-3.4-7.6-7.6v-23.5h-16.5v23.5c0,4.2-3.4,7.6-7.6,7.6h-27.6c-4.2,0-7.6-3.4-7.6-7.6v-23.5
		h-20.6v181.4h42v-67.4c0-32.7,26.6-59.3,59.3-59.3s59.3,26.6,59.3,59.3v67.4h42V315.4H336.7z M191.2,403.6h-21.3
		c-4.2,0-7.6-3.4-7.6-7.6c0-4.2,3.4-7.6,7.6-7.6h21.3c4.2,0,7.6,3.4,7.6,7.6C198.8,400.2,195.4,403.6,191.2,403.6z M340.2,385.3H319
		c-4.2,0-7.6-3.4-7.6-7.6c0-4.2,3.4-7.6,7.6-7.6h21.3c4.2,0,7.6,3.4,7.6,7.6C347.9,381.9,344.4,385.3,340.2,385.3z"/>
	<path class="st0" d="M40.7,283.4v213.4h98.9V283.4H40.7z M51.3,423.3c0-4.2,3.4-7.6,7.6-7.6h21.3c4.2,0,7.6,3.4,7.6,7.6
		c0,4.2-3.4,7.6-7.6,7.6H58.9C54.7,430.9,51.3,427.5,51.3,423.3z M104.5,455.3H83.2c-4.2,0-7.6-3.4-7.6-7.6s3.4-7.6,7.6-7.6h21.3
		c4.2,0,7.6,3.4,7.6,7.6C112.1,451.9,108.7,455.3,104.5,455.3z M116.7,380.8c0,4.2-3.4,7.6-7.6,7.6H66.5c-4.2,0-7.6-3.4-7.6-7.6
		v-45.6c0-15.9,13-28.9,28.9-28.9s28.9,13,28.9,28.9V380.8z"/>
</g>
<g>
	<g>
		<path class="st1" d="M87.8,306.2c-15.9,0-28.9,13-28.9,28.9v45.6c0,4.2,3.4,7.6,7.6,7.6h42.6c4.2,0,7.6-3.4,7.6-7.6v-45.6
			C116.7,319.2,103.7,306.2,87.8,306.2z M101.5,373.2H74.1v-38c0-7.5,6.1-13.7,13.7-13.7c7.5,0,13.7,6.1,13.7,13.7V373.2z"/>
		<path class="st2" d="M101.5,335.1v38H74.1v-38c0-7.5,6.1-13.7,13.7-13.7C95.3,321.5,101.5,327.6,101.5,335.1z"/>
	</g>
</g>
<g>
	<g>
		<path class="st1" d="M87.8,423.3c0,4.2-3.4,7.6-7.6,7.6H58.9c-4.2,0-7.6-3.4-7.6-7.6c0-4.2,3.4-7.6,7.6-7.6h21.3
			C84.4,415.7,87.8,419.1,87.8,423.3z"/>
	</g>
</g>
<g>
	<g>
		<path class="st1" d="M112.1,447.7c0,4.2-3.4,7.6-7.6,7.6H83.2c-4.2,0-7.6-3.4-7.6-7.6s3.4-7.6,7.6-7.6h21.3
			C108.7,440.1,112.1,443.5,112.1,447.7z"/>
	</g>
</g>
<g>
	<g>
		<path class="st1" d="M347.8,377.7c0,4.2-3.4,7.6-7.6,7.6H319c-4.2,0-7.6-3.4-7.6-7.6c0-4.2,3.4-7.6,7.6-7.6h21.3
			C344.4,370.1,347.8,373.5,347.8,377.7z"/>
	</g>
</g>
<g>
	<g>
		<path class="st1" d="M198.8,396c0,4.2-3.4,7.6-7.6,7.6h-21.3c-4.2,0-7.6-3.4-7.6-7.6c0-4.2,3.4-7.6,7.6-7.6h21.3
			C195.4,388.4,198.8,391.8,198.8,396z"/>
	</g>
</g>
<path class="st0" d="M190.5,184.6v43.6c0,4.2-3.4,7.6-7.6,7.6c-0.8,0-1.6-0.1-2.3-0.4v21c0.7-0.2,1.5-0.4,2.3-0.4
	c4.2,0,7.6,3.4,7.6,7.6v67.6h12.4v-23.5c0-4.2,3.4-7.6,7.6-7.6h31.7c4.2,0,7.6,3.4,7.6,7.6v23.5h12.4v-23.5c0-4.2,3.4-7.6,7.6-7.6
	h31.8c4.2,0,7.6,3.4,7.6,7.6v23.5h12.4V184.6H190.5z M202.9,205.9c-4.2,0-7.6-3.4-7.6-7.6c0-4.2,3.4-7.6,7.6-7.6h21.3
	c4.2,0,7.6,3.4,7.6,7.6c0,4.2-3.4,7.6-7.6,7.6H202.9z M284.9,271.8c0,4.2-3.4,7.6-7.6,7.6h-42.6c-2.1,0-4-0.8-5.4-2.2
	c-1.4-1.4-2.2-3.3-2.2-5.4v-45.6c0-15.9,13-28.9,28.9-28.9s28.9,13,28.9,28.9V271.8z"/>
<path class="st1" d="M231.8,198.3c0,4.2-3.4,7.6-7.6,7.6h-21.3c-4.2,0-7.6-3.4-7.6-7.6c0-4.2,3.4-7.6,7.6-7.6h21.3
	C228.4,190.7,231.8,194.1,231.8,198.3z"/>
<path class="st1" d="M256,197.3c-15.9,0-28.9,13-28.9,28.9v45.6c0,2.1,0.9,4,2.2,5.4c1.4,1.4,3.3,2.2,5.4,2.2h42.6
	c4.2,0,7.6-3.4,7.6-7.6v-45.6C284.9,210.2,271.9,197.3,256,197.3z M269.7,264.2h-27.4v-38h0c0-7.5,6.1-13.7,13.7-13.7
	s13.7,6.1,13.7,13.7V264.2z"/>
<path class="st2" d="M269.7,226.2v38h-27.4v-38h0c0-7.5,6.1-13.7,13.7-13.7S269.7,218.6,269.7,226.2z"/>
<line class="st3" x1="180.6" y1="269.8" x2="180.6" y2="256.4"/>
<line class="st3" x1="180.6" y1="235.4" x2="180.6" y2="220.8"/>
<path class="st0" d="M471.3,327.5v-44.1h-98.9v213.4h98.9V363c0-3.7,2.6-6.8,6.2-7.5V335C474,334.3,471.3,331.2,471.3,327.5z
	 M385.9,423.3c0-4.2,3.4-7.6,7.6-7.6h21.3c4.2,0,7.6,3.4,7.6,7.6c0,4.2-3.4,7.6-7.6,7.6h-21.3C389.3,430.9,385.9,427.5,385.9,423.3z
	 M439.1,455.3h-21.3c-4.2,0-7.6-3.4-7.6-7.6s3.4-7.6,7.6-7.6h21.3c4.2,0,7.6,3.4,7.6,7.6S443.3,455.3,439.1,455.3z M448.2,380.8
	c0,4.2-3.4,7.6-7.6,7.6H398c-4.2,0-7.6-3.4-7.6-7.6v-45.6c0-15.9,13-28.9,28.9-28.9c15.9,0,28.9,13,28.9,28.9V380.8z"/>
<path class="st1" d="M446.7,447.7c0,4.2-3.4,7.6-7.6,7.6h-21.3c-4.2,0-7.6-3.4-7.6-7.6s3.4-7.6,7.6-7.6h21.3
	C443.3,440.1,446.7,443.5,446.7,447.7z"/>
<path class="st1" d="M422.4,423.3c0,4.2-3.4,7.6-7.6,7.6h-21.3c-4.2,0-7.6-3.4-7.6-7.6c0-4.2,3.4-7.6,7.6-7.6h21.3
	C419,415.7,422.4,419.1,422.4,423.3z"/>
<path class="st1" d="M419.3,306.2c-15.9,0-28.9,13-28.9,28.9v45.6c0,4.2,3.4,7.6,7.6,7.6h42.6c4.2,0,7.6-3.4,7.6-7.6v-45.6
	C448.2,319.2,435.2,306.2,419.3,306.2z M433,373.2h-27.4v-38c0-7.5,6.1-13.7,13.7-13.7c7.5,0,13.7,6.1,13.7,13.7V373.2z"/>
<path class="st2" d="M433,335.1v38h-27.4v-38c0-7.5,6.1-13.7,13.7-13.7C426.9,321.5,433,327.6,433,335.1z"/>
<line class="st3" x1="477.5" y1="385.3" x2="477.5" y2="355.5"/>
<line class="st3" x1="477.5" y1="335" x2="477.5" y2="316.3"/>
</svg>
